<?xml version="1.0" encoding="iso-8859-1"?>
<!-- Generator: Adobe Illustrator 18.0.0, SVG Export Plug-In . SVG Version: 6.00 Build 0)  -->
<!DOCTYPE svg PUBLIC "-//W3C//DTD SVG 1.1//EN" "http://www.w3.org/Graphics/SVG/1.1/DTD/svg11.dtd">
<svg version="1.1" id="Capa_1" xmlns="http://www.w3.org/2000/svg" xmlns:xlink="http://www.w3.org/1999/xlink" x="0px" y="0px"
	 viewBox="0 0 393.853 393.853" style="enable-background:new 0 0 393.853 393.853;" xml:space="preserve">
<g>
	<path style="fill:#84BD93;" d="M201.053,376.588v-87.574c-1.412-0.094-2.788-0.159-4.127-0.159s-2.716,0.065-4.128,0.159v87.574
		c0,0.784,1.568,2.224,4.129,2.224C199.486,378.812,201.053,377.372,201.053,376.588z"/>
	<g>
		<path style="fill:#CE593F;" d="M133.917,245.43c0.251,0.231,0.522,0.452,0.786,0.676
			C134.438,245.882,134.168,245.661,133.917,245.43z"/>
		<path style="fill:#CE593F;" d="M137.463,248.217c-0.313-0.216-0.612-0.438-0.915-0.659
			C136.85,247.779,137.15,248.002,137.463,248.217z"/>
		<path style="fill:#CE593F;" d="M290.564,131.51c-1.265-3.916-2.573-7.964-3.198-12.257c-0.656-4.507-0.579-8.879-0.502-13.106
			c0.087-4.874,0.17-9.477-0.97-13.177c-1.271-4.122-4.094-8.027-7.083-12.162c-2.308-3.194-4.696-6.496-6.568-10.18
			c-1.955-3.844-3.28-7.775-4.562-11.578c-1.293-3.84-2.555-7.467-4.256-10.354c-1.038-0.636-2.102-1.266-3.184-1.904
			c-3.007-1.774-6.115-3.606-8.994-5.823c-2.861-2.204-5.404-4.638-7.863-6.992c-0.696-0.667-1.385-1.321-2.071-1.964
			c0.585,0.448,1.205,0.826,1.805,1.246c-0.632-0.441-1.285-0.841-1.9-1.315c-2.862-2.203-5.404-4.638-7.863-6.992
			c0.967,0.926,1.956,1.864,2.964,2.796c-1.521-1.116-3.052-2.027-4.62-2.601c-2.015-0.737-4.387-1.081-7.463-1.081
			c-2.515,0-5.168,0.224-7.976,0.463c-3.012,0.255-6.126,0.519-9.307,0.519c-3.181,0-6.295-0.264-9.307-0.519
			c-2.809-0.239-5.461-0.463-7.976-0.463c-3.076,0-5.448,0.344-7.463,1.081c-3.982,1.457-7.725,5.039-11.685,8.831
			c-2.458,2.353-5,4.787-7.86,6.989c-2.879,2.219-5.99,4.053-8.999,5.827c-4.663,2.751-9.068,5.348-11.905,8.931
			c-2.437,3.076-3.955,7.583-5.563,12.356c-1.281,3.799-2.606,7.729-4.558,11.573c-1.872,3.684-4.259,6.986-6.567,10.181
			c-2.989,4.134-5.812,8.041-7.084,12.164c-1.141,3.697-1.058,8.3-0.969,13.173c0.076,4.228,0.156,8.601-0.501,13.11
			c-0.626,4.29-1.933,8.336-3.197,12.249c-1.531,4.738-2.977,9.214-2.977,13.412c0,4.199,1.446,8.675,2.977,13.414
			c1.264,3.914,2.571,7.961,3.197,12.251c0.657,4.508,0.578,8.88,0.501,13.108c-0.088,4.873-0.171,9.477,0.969,13.175
			c1.272,4.124,4.095,8.03,7.085,12.165c2.308,3.192,4.693,6.494,6.565,10.176c1.955,3.845,3.28,7.775,4.56,11.577
			c1.285,3.813,2.521,7.443,4.206,10.322c1.054,0.646,2.134,1.287,3.234,1.935c3.007,1.773,6.118,3.608,8.997,5.826
			c2.86,2.202,5.401,4.635,7.859,6.988c2.401,2.298,4.721,4.511,7.063,6.229c-1.661-1.218-3.312-2.689-4.988-4.261
			c0.031,0.023,0.063,0.045,0.094,0.068c1.733,1.336,3.343,2.757,4.895,4.193c1.523,1.117,3.054,2.029,4.624,2.603
			c2.017,0.738,4.391,1.083,7.47,1.083c2.514,0,5.167-0.225,7.974-0.463c3.011-0.255,6.124-0.518,9.303-0.518
			c3.178,0,6.291,0.264,9.3,0.518c2.808,0.238,5.461,0.463,7.975,0.463c3.078,0,5.452-0.345,7.468-1.083
			c3.985-1.457,7.725-5.037,11.687-8.828c2.459-2.353,5.002-4.788,7.863-6.99c2.878-2.218,5.989-4.053,8.999-5.829
			c4.662-2.749,9.065-5.347,11.904-8.931c2.434-3.073,3.952-7.58,5.559-12.35c1.282-3.801,2.606-7.732,4.56-11.578
			c1.872-3.681,4.258-6.981,6.565-10.172c2.99-4.138,5.814-8.045,7.086-12.17c1.14-3.699,1.058-8.302,0.97-13.176
			c-0.076-4.228-0.154-8.6,0.502-13.108c0.625-4.29,1.933-8.339,3.198-12.255c1.531-4.737,2.976-9.213,2.976-13.409
			C293.54,140.721,292.095,136.247,290.564,131.51z M187.029,60.247c-7.172,0-13.007,5.834-13.007,13.007
			c0,4.154-3.367,7.52-7.521,7.52c-13.45,0-24.392,10.942-24.392,24.391c0,4.154-3.367,7.521-7.521,7.521
			c-4.154,0-7.521-3.367-7.521-7.521c0-19.477,14.198-35.69,32.786-38.861c3.099-12.115,14.108-21.099,27.176-21.099
			c4.154,0,7.521,3.366,7.521,7.52S191.183,60.247,187.029,60.247z M238.336,217.085c-3.185,15.696-17.089,27.547-33.711,27.547
			c-4.154,0-7.521-3.367-7.521-7.521s3.367-7.521,7.521-7.521c10.674,0,19.357-8.683,19.357-19.356c0-4.154,3.367-7.521,7.521-7.521
			c11.161,0,20.24-9.081,20.24-20.241c0-4.154,3.367-7.521,7.521-7.521c4.154,0,7.52,3.367,7.52,7.521
			C266.784,199.59,254.53,213.893,238.336,217.085z"/>
		<path style="fill:#CE593F;" d="M140.371,250.112c-0.201-0.124-0.389-0.252-0.588-0.376
			C139.982,249.86,140.17,249.988,140.371,250.112z"/>
	</g>
	<path style="fill:#3F2D20;" d="M187.029,45.205c-13.068,0-24.077,8.984-27.176,21.099c-18.587,3.171-32.786,19.384-32.786,38.861
		c0,4.154,3.367,7.521,7.521,7.521c4.154,0,7.521-3.367,7.521-7.521c0-13.449,10.942-24.392,24.392-24.392
		c4.154,0,7.521-3.367,7.521-7.521c0-7.172,5.835-13.007,13.008-13.007c4.154,0,7.521-3.367,7.521-7.521
		C194.55,48.572,191.183,45.205,187.029,45.205z"/>
	<path style="fill:#3F2D20;" d="M259.263,174.951c-4.154,0-7.521,3.367-7.521,7.521c0,11.161-9.08,20.241-20.24,20.241
		c-4.154,0-7.521,3.367-7.521,7.521c0,10.673-8.683,19.356-19.357,19.356c-4.154,0-7.521,3.367-7.521,7.521s3.367,7.521,7.521,7.521
		c16.622,0,30.526-11.851,33.711-27.547c16.194-3.193,28.449-17.496,28.449-34.613C266.784,178.318,263.418,174.951,259.263,174.951
		z"/>
	<path style="fill:#3F2D20;" d="M304.877,126.886c-1.123-3.476-2.184-6.76-2.626-9.801c-0.481-3.295-0.416-6.877-0.349-10.67
		c0.105-5.84,0.214-11.88-1.635-17.877c-2.002-6.492-5.861-11.831-9.267-16.543c-2.061-2.852-4.008-5.545-5.349-8.184
		c-1.459-2.87-2.556-6.123-3.716-9.567c-1.948-5.78-3.962-11.756-8.019-16.879c-4.578-5.783-10.68-9.381-16.063-12.555
		c-2.733-1.612-5.314-3.134-7.456-4.784c-2.221-1.71-4.366-3.764-6.638-5.939c-4.904-4.695-9.976-9.55-16.915-12.09
		C223.118,0.635,219.104,0,214.21,0c-3.151,0-6.25,0.263-9.247,0.516c-2.824,0.24-5.492,0.466-8.036,0.466
		c-2.544,0-5.212-0.226-8.036-0.466C185.894,0.263,182.795,0,179.643,0c-4.894,0-8.908,0.635-12.632,1.998
		c-6.939,2.539-12.012,7.394-16.917,12.09c-2.272,2.175-4.418,4.229-6.638,5.939c-2.143,1.651-4.725,3.174-7.46,4.787
		c-5.382,3.173-11.482,6.771-16.056,12.548c-4.062,5.126-6.077,11.107-8.026,16.89c-1.16,3.441-2.256,6.692-3.714,9.563
		c-1.34,2.637-3.287,5.331-5.348,8.183c-3.405,4.71-7.264,10.049-9.267,16.542c-1.85,5.997-1.74,12.037-1.634,17.879
		c0.068,3.793,0.132,7.375-0.348,10.669c-0.443,3.038-1.503,6.319-2.626,9.795c-1.737,5.375-3.705,11.468-3.705,18.036
		c0,6.569,1.968,12.662,3.705,18.037c1.122,3.476,2.183,6.759,2.626,9.798c0.48,3.293,0.415,6.874,0.348,10.667
		c-0.106,5.84-0.215,11.881,1.634,17.88c2.003,6.494,5.863,11.832,9.268,16.544c2.061,2.85,4.007,5.543,5.348,8.18
		c1.458,2.869,2.554,6.121,3.714,9.565c1.949,5.782,3.963,11.76,8.022,16.885c4.577,5.781,10.678,9.377,16.059,12.55
		c2.734,1.612,5.316,3.135,7.458,4.785c2.22,1.711,4.366,3.764,6.637,5.938c4.906,4.696,9.979,9.551,16.918,12.092
		c3.234,1.184,6.69,1.817,10.749,1.964v86.786c0,9.52,8.6,17.265,19.17,17.265c10.569,0,19.167-7.745,19.167-17.265v-86.786
		c4.058-0.147,7.513-0.78,10.744-1.963c6.941-2.538,12.013-7.393,16.918-12.087c2.273-2.175,4.419-4.228,6.642-5.941
		c2.143-1.651,4.726-3.175,7.461-4.788c5.38-3.174,11.478-6.771,16.055-12.55c4.058-5.125,6.073-11.103,8.021-16.883
		c1.16-3.443,2.256-6.695,3.715-9.565c1.34-2.635,3.287-5.328,5.346-8.179c3.407-4.712,7.267-10.054,9.27-16.547
		c1.849-5.997,1.74-12.036,1.635-17.878c-0.068-3.793-0.132-7.375,0.349-10.67c0.443-3.039,1.503-6.322,2.626-9.799
		c1.736-5.375,3.705-11.467,3.705-18.033C308.581,138.351,306.613,132.261,304.877,126.886z M267.681,230.784
		c-1.607,4.771-3.126,9.278-5.559,12.351c-2.839,3.584-7.242,6.182-11.904,8.931c-3.009,1.775-6.12,3.61-8.999,5.829
		c-2.861,2.202-5.404,4.637-7.863,6.99c-3.961,3.791-7.702,7.371-11.687,8.828c-2.016,0.738-4.39,1.083-7.468,1.083
		c-2.515,0-5.167-0.225-7.975-0.463c-3.009-0.255-6.122-0.518-9.3-0.518c-3.179,0-6.292,0.264-9.303,0.518
		c-2.808,0.238-5.461,0.463-7.974,0.463c-3.079,0-5.453-0.345-7.47-1.083c-3.984-1.458-7.725-5.04-11.688-8.833
		c-2.458-2.353-4.999-4.786-7.859-6.988c-2.88-2.218-5.99-4.052-8.997-5.825c-4.663-2.75-9.069-5.347-11.907-8.932
		c-2.433-3.073-3.952-7.579-5.56-12.351c-1.281-3.801-2.606-7.732-4.56-11.577c-1.871-3.682-4.257-6.983-6.565-10.176
		c-2.99-4.135-5.813-8.042-7.085-12.165c-1.141-3.699-1.058-8.302-0.97-13.175c0.077-4.228,0.156-8.601-0.501-13.108
		c-0.626-4.29-1.933-8.337-3.197-12.251c-1.531-4.739-2.977-9.215-2.977-13.414c0-4.198,1.446-8.674,2.977-13.412
		c1.264-3.913,2.571-7.959,3.197-12.25c0.657-4.509,0.578-8.881,0.501-13.109c-0.088-4.873-0.171-9.476,0.97-13.173
		c1.272-4.124,4.095-8.03,7.084-12.164c2.308-3.194,4.695-6.496,6.567-10.18c1.953-3.844,3.278-7.774,4.559-11.573
		c1.608-4.772,3.127-9.279,5.563-12.355c2.837-3.583,7.242-6.18,11.905-8.931c3.008-1.773,6.12-3.608,8.999-5.827
		c2.86-2.202,5.403-4.636,7.86-6.989c3.961-3.792,7.703-7.374,11.686-8.831c2.015-0.737,4.387-1.081,7.463-1.081
		c2.515,0,5.168,0.224,7.976,0.463c3.012,0.255,6.126,0.519,9.307,0.519c3.181,0,6.295-0.264,9.307-0.519
		c2.809-0.239,5.461-0.463,7.976-0.463c3.076,0,5.448,0.344,7.463,1.081c3.982,1.458,7.724,5.039,11.684,8.83
		c2.459,2.354,5.001,4.789,7.863,6.992c2.879,2.216,5.987,4.049,8.994,5.823c4.664,2.751,9.071,5.35,11.91,8.936
		c2.433,3.072,3.951,7.577,5.558,12.347c1.282,3.802,2.607,7.734,4.562,11.578c1.872,3.684,4.26,6.986,6.568,10.181
		c2.989,4.134,5.812,8.04,7.083,12.161c1.14,3.7,1.057,8.303,0.97,13.177c-0.076,4.227-0.154,8.6,0.502,13.106
		c0.625,4.293,1.933,8.341,3.198,12.257c1.531,4.737,2.976,9.21,2.976,13.407c0,4.196-1.445,8.671-2.976,13.409
		c-1.265,3.915-2.573,7.964-3.198,12.255c-0.656,4.508-0.579,8.879-0.502,13.107c0.087,4.874,0.17,9.478-0.97,13.176
		c-1.272,4.125-4.096,8.032-7.086,12.169c-2.307,3.191-4.693,6.492-6.565,10.173C270.287,223.053,268.963,226.984,267.681,230.784z
		 M192.799,376.588v-87.574c1.412-0.094,2.789-0.159,4.128-0.159s2.714,0.065,4.127,0.159v87.574c0,0.784-1.567,2.224-4.125,2.224
		C194.367,378.812,192.799,377.372,192.799,376.588z"/>
</g>
<g>
</g>
<g>
</g>
<g>
</g>
<g>
</g>
<g>
</g>
<g>
</g>
<g>
</g>
<g>
</g>
<g>
</g>
<g>
</g>
<g>
</g>
<g>
</g>
<g>
</g>
<g>
</g>
<g>
</g>
</svg>
