<?xml version="1.0" encoding="iso-8859-1"?>
<!-- Generator: Adobe Illustrator 18.0.0, SVG Export Plug-In . SVG Version: 6.00 Build 0)  -->
<!DOCTYPE svg PUBLIC "-//W3C//DTD SVG 1.1//EN" "http://www.w3.org/Graphics/SVG/1.1/DTD/svg11.dtd">
<svg version="1.1" id="Capa_1" xmlns="http://www.w3.org/2000/svg" xmlns:xlink="http://www.w3.org/1999/xlink" x="0px" y="0px"
	 viewBox="0 0 400.535 400.535" style="enable-background:new 0 0 400.535 400.535;" xml:space="preserve">
<g>
	<path style="fill:#CE593F;" d="M364.9,206.644c-4.156,2.594-8.59,5.358-14.22,7.488h20.799c0.052,0,0.105,0,0.157,0
		c7.644,0,13.865-6.219,13.865-13.865c0-0.683-0.066-1.349-0.162-2.005C376.397,199.485,370.99,202.843,364.9,206.644z"/>
	<path style="fill:#CE593F;" d="M292.717,206.644c-7.635-4.767-14.229-8.882-28.13-8.882c-13.902,0-20.495,4.116-28.13,8.882
		c-4.156,2.594-8.59,5.358-14.22,7.488h84.7C301.306,212.002,296.872,209.238,292.717,206.644z"/>
	<path style="fill:#CE593F;" d="M93.804,214.132h84.693c-5.63-2.13-10.064-4.894-14.22-7.488
		c-7.635-4.767-14.228-8.882-28.128-8.882c-13.9,0-20.493,4.116-28.125,8.882C103.868,209.238,99.434,212.002,93.804,214.132z"/>
	<g>
		<path style="fill:#CE593F;" d="M23.891,200.343c0.215,0.079,0.424,0.163,0.636,0.245
			C24.315,200.507,24.106,200.422,23.891,200.343z"/>
		<path style="fill:#CE593F;" d="M26.217,201.285c0.219,0.096,0.441,0.191,0.657,0.29C26.658,201.476,26.436,201.382,26.217,201.285
			z"/>
		<path style="fill:#CE593F;" d="M28.887,202.557c0.201,0.104,0.398,0.215,0.598,0.322
			C29.285,202.773,29.088,202.662,28.887,202.557z"/>
		<path style="fill:#CE593F;" d="M35.845,206.422c-1.822-1.138-3.591-2.336-5.404-3.349c1.429,6.136,6.929,10.614,13.492,10.614
			h6.132C44.434,210.688,40,209.016,35.845,206.422z"/>
		<path style="fill:#CE593F;" d="M21.011,199.421c0.168,0.047,0.344,0.088,0.509,0.137C21.355,199.51,21.179,199.468,21.011,199.421
			z"/>
		<path style="fill:#CE593F;" d="M18.098,198.725c0.256,0.051,0.507,0.106,0.756,0.161C18.605,198.83,18.354,198.776,18.098,198.725
			z"/>
	</g>
	<g>
		<path style="fill:#CE593F;" d="M161.607,187.926c-1.148-0.531-2.328-1.047-3.587-1.523
			C159.278,186.879,160.458,187.395,161.607,187.926z"/>
		<path style="fill:#CE593F;" d="M232.542,192.688h-64.35c-0.762-3-1.542-1.538-2.342-1.982c2.265,1.253,4.362,2.238,6.389,3.502
			c7.635,4.767,14.228,8.723,28.129,8.723c13.901,0,20.494-4.195,28.128-8.962c2.026-1.264,4.124-1.971,6.389-3.223
			C234.084,191.19,233.305,189.688,232.542,192.688z"/>
		<path style="fill:#CE593F;" d="M239.131,187.925c1.148-0.53,2.327-1.046,3.584-1.522
			C241.458,186.879,240.279,187.394,239.131,187.925z"/>
		<path style="fill:#CE593F;" d="M235.527,189.73c0.848-0.458,1.724-0.906,2.627-1.343
			C237.252,188.824,236.375,189.271,235.527,189.73z"/>
		<path style="fill:#CE593F;" d="M165.21,189.731c-0.849-0.46-1.727-0.908-2.632-1.346
			C163.483,188.823,164.361,189.272,165.21,189.731z"/>
	</g>
	<g>
		<path style="fill:#CE593F;" d="M290.043,187.924c-1.148-0.53-2.327-1.046-3.585-1.522
			C287.715,186.878,288.894,187.395,290.043,187.924z"/>
		<path style="fill:#CE593F;" d="M360.987,192.688h-64.354c-0.762-3-1.542-1.538-2.343-1.981c2.265,1.252,4.363,2.237,6.389,3.502
			c7.634,4.767,14.228,8.723,28.129,8.723c13.903,0,20.496-4.195,28.131-8.962c2.026-1.264,4.128-1.973,6.4-3.227
			C362.535,191.187,361.752,189.688,360.987,192.688z"/>
		<path style="fill:#CE593F;" d="M293.648,189.73c-0.848-0.459-1.725-0.905-2.628-1.343
			C291.923,188.824,292.799,189.272,293.648,189.73z"/>
		<path style="fill:#CE593F;" d="M367.582,187.926c1.151-0.53,2.333-1.047,3.595-1.523
			C369.914,186.879,368.732,187.395,367.582,187.926z"/>
		<path style="fill:#CE593F;" d="M363.947,189.745c0.858-0.464,1.746-0.916,2.66-1.358
			C365.692,188.829,364.804,189.281,363.947,189.745z"/>
	</g>
	<g>
		<path style="fill:#FDD44B;" d="M351.695,166.638c-6.824-3.2-14.983-4.95-23.653-4.95H101.956c-12.661,0-24.245,3-32.153,10
			h284.793C353.877,169.688,352.884,168.296,351.695,166.638z"/>
	</g>
	<path style="fill:#FDD44B;" d="M60.974,228.688c4.964,13,21.86,23,41.285,23h211.053c19.424,0,36.321-10,41.285-23H60.974z"/>
	<path style="fill:#3F2D20;" d="M371.636,171.369h-1.378c-4.651-20.97-28.408-36.983-56.947-36.983H87.224
		c-28.539,0-52.296,16.013-56.947,36.983h-1.378C12.964,171.369,0,184.333,0,200.267c0,15.935,12.964,28.899,28.899,28.899h1.377
		c4.654,20.969,28.411,36.983,56.948,36.983h226.087c28.539,0,52.296-16.015,56.949-36.983h1.22c0.052,0,0.105,0,0.157,0
		c15.935,0,28.899-12.964,28.899-28.899C400.535,184.333,387.571,171.369,371.636,171.369z M371.636,214.132
		c-0.052,0-0.105,0-0.157,0H350.68c5.63-2.13,10.064-4.894,14.22-7.488c6.09-3.802,11.497-7.159,20.439-8.382
		c0.096,0.657,0.162,1.322,0.162,2.005C385.501,207.913,379.281,214.132,371.636,214.132z M87.224,251.115
		c-19.424,0-36.321-9.478-41.285-21.948l308.656,0.001c-4.964,12.471-21.86,21.947-41.285,21.947H87.224z M15.034,200.267
		c0-0.693,0.067-1.368,0.166-2.034c9.065,1.2,14.508,4.58,20.645,8.411c4.155,2.594,8.589,5.358,14.22,7.488H28.899
		C21.255,214.132,15.034,207.913,15.034,200.267z M313.311,149.42c19.424,0,36.321,9.477,41.285,21.948H45.939
		c4.964-12.471,21.86-21.948,41.285-21.948H313.311z M236.457,206.644c7.635-4.767,14.228-8.882,28.13-8.882
		c13.902,0,20.496,4.116,28.13,8.882c4.155,2.594,8.589,5.358,14.22,7.488h-84.7C227.867,212.002,232.301,209.238,236.457,206.644z
		 M200.367,202.773c-13.901,0-20.494-4.116-28.128-8.883c-4.156-2.594-8.589-5.358-14.219-7.488h84.696
		c-5.63,2.13-10.064,4.894-14.22,7.488C220.861,198.657,214.268,202.773,200.367,202.773z M164.277,206.644
		c4.156,2.594,8.59,5.358,14.22,7.488H93.804c5.63-2.13,10.064-4.894,14.22-7.488c7.632-4.767,14.226-8.882,28.125-8.882
		C150.05,197.762,156.643,201.877,164.277,206.644z M328.808,202.773c-13.901,0-20.495-4.116-28.129-8.883
		c-4.155-2.594-8.59-5.358-14.221-7.488h84.718c-5.646,2.131-10.088,4.899-14.237,7.488
		C349.304,198.657,342.711,202.773,328.808,202.773z M114.281,186.403c-5.63,2.13-10.064,4.894-14.219,7.488
		c-7.633,4.767-14.227,8.883-28.127,8.883c-13.901,0-20.494-4.116-28.129-8.882c-4.15-2.591-8.599-5.357-14.248-7.489H114.281z"/>
	<g>
		<path style="fill:#CE593F;" d="M43.807,194.193c7.635,4.766,14.228,8.731,28.129,8.731c13.9,0,20.493-4.191,28.127-8.958
			C102.09,192.7,41.781,192.928,43.807,194.193z"/>
		<path style="fill:#CE593F;" d="M36.79,189.743c-0.86-0.465-1.75-0.918-2.667-1.36C35.04,188.825,35.93,189.279,36.79,189.743z"/>
		<path style="fill:#CE593F;" d="M33.163,187.929c-1.154-0.532-2.339-1.049-3.604-1.526
			C30.823,186.88,32.008,187.398,33.163,187.929z"/>
		<path style="fill:#CE593F;" d="M107.073,189.74c0.855-0.463,1.74-0.915,2.651-1.355
			C108.813,188.826,107.928,189.277,107.073,189.74z"/>
	</g>
</g>
<g>
</g>
<g>
</g>
<g>
</g>
<g>
</g>
<g>
</g>
<g>
</g>
<g>
</g>
<g>
</g>
<g>
</g>
<g>
</g>
<g>
</g>
<g>
</g>
<g>
</g>
<g>
</g>
<g>
</g>
</svg>
