<?xml version="1.0" encoding="iso-8859-1"?>
<!-- Generator: Adobe Illustrator 18.0.0, SVG Export Plug-In . SVG Version: 6.00 Build 0)  -->
<!DOCTYPE svg PUBLIC "-//W3C//DTD SVG 1.1//EN" "http://www.w3.org/Graphics/SVG/1.1/DTD/svg11.dtd">
<svg version="1.1" id="Capa_1" xmlns="http://www.w3.org/2000/svg" xmlns:xlink="http://www.w3.org/1999/xlink" x="0px" y="0px"
	 viewBox="0 0 353.928 353.928" style="enable-background:new 0 0 353.928 353.928;" xml:space="preserve">
<g>
	<g>
		<path style="fill:#FDD44B;" d="M178.518,338.483c-0.122,0.062-0.246,0.117-0.375,0.165
			C178.274,338.6,178.394,338.545,178.518,338.483z"/>
		<path style="fill:#FDD44B;" d="M177.826,149.244v186.129c0,1.264,0.459,2.358,1.462,2.976c1.032-0.612,1.538-1.689,1.538-2.972
			V149.156C180.826,149.21,177.826,149.243,177.826,149.244z"/>
	</g>
	<g>
		<path style="fill:#CE593F;" d="M176.964,15.042c1.642,0,3.27,0.081,4.887,0.216C180.234,15.123,178.606,15.042,176.964,15.042z"/>
		<path style="fill:#CE593F;" d="M181.939,15.5c-22.311,1.934-41.843,16.045-50.192,37.045h100.461
			C223.85,31.544,204.281,17.407,181.939,15.5z"/>
	</g>
	<g>
		<path style="fill:#CE593F;" d="M181.854,133.987c-1.617,0.136-3.247,0.217-4.891,0.217
			C178.607,134.204,180.236,134.123,181.854,133.987z"/>
		<path style="fill:#CE593F;" d="M121.718,97.544h10.028c8.349,21,27.882,35.114,50.195,37.046
			c22.342-1.907,41.91-16.046,50.269-37.046H121.718z"/>
	</g>
	<g>
		<path style="fill:#CE593F;" d="M246.905,71.171c0.162,0.661,0.29,1.392,0.356,2.198C247.195,72.561,247.068,71.833,246.905,71.171
			z"/>
		<path style="fill:#CE593F;" d="M245.02,67.355c0.161,0.129,0.359,0.361,0.564,0.658C245.378,67.717,245.181,67.483,245.02,67.355z
			"/>
		<path style="fill:#CE593F;" d="M247.261,73.544H118.936c-0.777,0-2.299,2.468-2.299,6.509c0,0.437,0.026,0.491,0.058,0.491
			h128.327c0.775,0,2.298-2.466,2.298-6.507C247.319,73.6,247.294,73.544,247.261,73.544z"/>
		<path style="fill:#CE593F;" d="M246.318,69.381c0.206,0.485,0.4,1.045,0.561,1.678C246.717,70.425,246.526,69.867,246.318,69.381z
			"/>
		<path style="fill:#CE593F;" d="M245.642,68.093c0.205,0.309,0.418,0.703,0.622,1.165
			C246.058,68.796,245.848,68.401,245.642,68.093z"/>
	</g>
	<path style="fill:#3F2D20;" d="M248.28,52.636c-4.344-14.056-12.856-26.697-24.383-36.032C210.675,5.896,194.007,0,176.964,0
		c-17.043,0-33.711,5.896-46.933,16.604c-11.527,9.335-20.039,21.976-24.383,36.032c-8.095,1.772-14.081,10.791-14.081,21.987
		c0,11.194,5.985,20.211,14.079,21.985c4.344,14.057,12.857,26.699,24.384,36.034c8.345,6.758,18.064,11.594,28.382,14.245v188.485
		c0,10.231,8.323,18.555,18.552,18.555c10.229,0,18.552-8.322,18.552-18.551V146.888c10.317-2.653,20.037-7.488,28.381-14.245
		c11.527-9.335,20.041-21.977,24.385-36.034c8.094-1.772,14.079-10.79,14.079-21.985C262.361,63.427,256.374,54.408,248.28,52.636z
		 M180.475,335.376c0,1.935-1.575,3.51-3.511,3.51c-1.936,0-3.511-1.577-3.511-3.514V149.156c1.168,0.056,2.338,0.09,3.51,0.09
		h0.002c1.172,0,2.341-0.034,3.51-0.09V335.376z M176.963,134.204c-24.379,0-46.271-15.21-55.245-37.273l110.491-0.001
		C223.234,118.994,201.342,134.205,176.963,134.204z M108.908,81.89c-0.775-0.618-2.299-3.225-2.299-7.267
		c0-4.041,1.523-6.65,2.299-7.268H245.02c0.777,0.618,2.299,3.227,2.299,7.268s-1.523,6.648-2.298,7.266L108.908,81.89z
		 M176.964,15.042c24.378,0,46.27,15.21,55.244,37.272H121.72C130.694,30.252,152.586,15.042,176.964,15.042z"/>
</g>
<g>
</g>
<g>
</g>
<g>
</g>
<g>
</g>
<g>
</g>
<g>
</g>
<g>
</g>
<g>
</g>
<g>
</g>
<g>
</g>
<g>
</g>
<g>
</g>
<g>
</g>
<g>
</g>
<g>
</g>
</svg>
