<?xml version="1.0" encoding="iso-8859-1"?>
<!-- Generator: Adobe Illustrator 18.0.0, SVG Export Plug-In . SVG Version: 6.00 Build 0)  -->
<!DOCTYPE svg PUBLIC "-//W3C//DTD SVG 1.1//EN" "http://www.w3.org/Graphics/SVG/1.1/DTD/svg11.dtd">
<svg version="1.1" id="Capa_1" xmlns="http://www.w3.org/2000/svg" xmlns:xlink="http://www.w3.org/1999/xlink" x="0px" y="0px"
	 viewBox="0 0 387.463 387.463" style="enable-background:new 0 0 387.463 387.463;" xml:space="preserve">
<g>
	<path style="fill:#CE593F;" d="M195.249,40.213h-1.023l-0.693,7.828c-0.673,0.004-1.344-0.307-2.013-0.284
		c0.735-0.025,1.47-0.211,2.212-0.211c0.742,0,1.477,0.596,2.212,0.62L195.249,40.213z"/>
	<g>
		<path style="fill:#CE593F;" d="M198.455,15.034c0.439,0,0.855,0.083,1.254,0.203C199.309,15.118,198.894,15.034,198.455,15.034z"
			/>
		<path style="fill:#CE593F;" d="M201.067,14.994c0.711,0.533,1.261,1.219,1.553,1.219h-8.602c-2.436,0-4.418,3.568-4.418,6.003
			c0,0.496,0.101,2.997,0.252,2.997h8.601c2.436,0,4.419-3.111,4.419-5.546C202.873,18.211,202.157,15.799,201.067,14.994z"/>
		<path style="fill:#CE593F;" d="M199.935,15.308c0.392,0.142,0.763,0.327,1.094,0.569
			C200.696,15.637,200.328,15.449,199.935,15.308z"/>
	</g>
	<g>
		<path style="fill:#CE593F;" d="M212.706,66.046c0.117,0.048,0.24,0.089,0.356,0.137C212.946,66.135,212.824,66.094,212.706,66.046
			z"/>
		<path style="fill:#CE593F;" d="M216.022,67.559c0.272,0.138,0.536,0.283,0.804,0.426
			C216.557,67.842,216.294,67.697,216.022,67.559z"/>
		<path style="fill:#CE593F;" d="M205.561,63.772c0.241,0.056,0.474,0.124,0.713,0.184
			C206.036,63.897,205.802,63.829,205.561,63.772z"/>
		<path style="fill:#CE593F;" d="M201.278,62.976c0.283,0.041,0.569,0.074,0.849,0.12C201.847,63.051,201.561,63.017,201.278,62.976
			z"/>
		<path style="fill:#CE593F;" d="M208.948,64.706c0.316,0.099,0.632,0.198,0.944,0.303
			C209.579,64.904,209.265,64.805,208.948,64.706z"/>
		<path style="fill:#CE593F;" d="M226.941,75.726c0.135,0.148,0.28,0.29,0.411,0.439C227.221,76.015,227.076,75.874,226.941,75.726z
			"/>
		<path style="fill:#CE593F;" d="M229.124,78.392c0.161,0.222,0.307,0.45,0.461,0.674C229.431,78.841,229.285,78.614,229.124,78.392
			z"/>
		<path style="fill:#CE593F;" d="M225.263,74.012c-0.224-0.214-0.451-0.424-0.683-0.633
			C224.811,73.588,225.039,73.799,225.263,74.012z"/>
		<path style="fill:#CE593F;" d="M222.223,71.413c0.151,0.115,0.291,0.238,0.439,0.355
			C222.514,71.651,222.375,71.528,222.223,71.413z"/>
		<path style="fill:#CE593F;" d="M218.954,69.202c0.246,0.15,0.497,0.297,0.739,0.452C219.451,69.499,219.2,69.353,218.954,69.202z"
			/>
		<path style="fill:#CE593F;" d="M161.418,111.886c0.815,0.824,1.687,1.618,2.612,2.381
			C163.105,113.505,162.233,112.71,161.418,111.886z"/>
		<path style="fill:#CE593F;" d="M161.241,111.703c-0.819-0.841-1.588-1.708-2.289-2.604
			C159.653,109.996,160.421,110.862,161.241,111.703z"/>
		<path style="fill:#CE593F;" d="M158.925,109.063c-0.723-0.928-1.383-1.884-1.974-2.865
			C157.541,107.179,158.202,108.135,158.925,109.063z"/>
		<path style="fill:#CE593F;" d="M167.246,116.649c-1.064-0.704-2.068-1.449-3.022-2.225
			C165.177,115.2,166.181,115.945,167.246,116.649z"/>
		<path style="fill:#CE593F;" d="M230.151,79.963c-7.091-4.681-16.315-7.523-26.397-7.523c-22.309,0-40.457,13.871-40.457,30.922
			c0,4.69,0.336,9.053,2.896,13.136c1.137,0.753,3.383,3.715,4.64,3.715h45.795c11.03-5,17.56-17.248,17.56-27.456
			C234.189,87.961,232.712,84.017,230.151,79.963z"/>
		<path style="fill:#CE593F;" d="M156.946,106.191c-0.556-0.923-1.039-1.872-1.473-2.835
			C155.907,104.319,156.391,105.267,156.946,106.191z"/>
		<path style="fill:#CE593F;" d="M153.494,96.435c-0.134-1.023-0.219-2.054-0.219-3.097
			C153.274,94.381,153.36,95.412,153.494,96.435z"/>
		<path style="fill:#CE593F;" d="M154.161,99.725c-0.263-0.951-0.475-1.915-0.62-2.89C153.686,97.81,153.898,98.773,154.161,99.725z
			"/>
		<path style="fill:#CE593F;" d="M197.426,62.56c0.347,0.024,0.691,0.056,1.036,0.087C198.117,62.616,197.774,62.584,197.426,62.56z
			"/>
		<path style="fill:#CE593F;" d="M155.313,103.003c-0.398-0.921-0.736-1.859-1.019-2.81
			C154.577,101.144,154.915,102.082,155.313,103.003z"/>
	</g>
	<path style="fill:#EF8829;" d="M155.64,332.146v40.067h88v-44h-83.475C157.181,328.213,155.64,329.162,155.64,332.146z"/>
	<path style="fill:#EF8829;" d="M224.522,206.221c-12.123-11.963-13.709-24.112-12.899-32.434c0.481-4.92,1.935-8.574,3.939-13.574
		h-33.637c2.005,5,3.457,8.654,3.937,13.574c0.811,8.318-0.773,20.597-12.887,32.556c-4.756,5.267-7.36,11.707-7.36,18.231
		c0,10.337,6.264,20.639,16.842,25.639h32.57c10.58-5,16.843-15.369,16.843-25.706C231.871,217.987,229.271,211.486,224.522,206.221
		z"/>
	<path style="fill:#EF8829;" d="M226.061,263.213h-54.637c-2.986,0-5.413,3.189-5.413,6.499c0,3.311,2.427,6.501,5.413,6.501h54.637
		c2.985,0,5.412-3.19,5.412-6.501C231.474,266.402,229.046,263.213,226.061,263.213z"/>
	<path style="fill:#EF8829;" d="M229.295,289.213h-61.103c-2.984,0-5.412,3.05-5.412,6.5c0,3.449,2.427,6.5,5.412,6.5h61.103
		c2.983,0,5.411-3.051,5.411-6.5C234.706,292.263,232.278,289.213,229.295,289.213z"/>
	<g>
		<path style="fill:#EF8829;" d="M227.124,133.925c0.15,0.035,0.288,0.099,0.433,0.147
			C227.412,134.024,227.274,133.959,227.124,133.925z"/>
		<path style="fill:#EF8829;" d="M231.433,138.213h-60.008c-2.986,0-5.413,3.455-5.413,6.86c0,0.156,0.029,1.14,0.039,1.14h40.115
			h19.896c2.985,0,5.412-3.454,5.412-6.86C231.474,139.197,231.443,138.213,231.433,138.213z"/>
	</g>
	<path style="fill:#3F2D20;" d="M247.913,304.667c1.163-2.566,1.826-5.405,1.826-8.402c0-5.863-2.494-11.143-6.463-14.87
		c2.035-3.177,3.231-6.942,3.231-10.988c0-7.754-4.338-14.512-10.715-17.976c7.068-7.922,11.112-17.754,11.112-28.049
		c0-11.214-4.712-21.998-13.266-30.373c-5.334-5.863-7.712-12.254-7.051-19.033c0.855-8.766,6.601-15.986,9.555-17.981
		c6.18-3.522,10.365-10.16,10.365-17.767c0-7.223-3.774-13.568-9.445-17.206c7.722-8.031,12.16-18.121,12.16-28.684
		c0-20.281-15.952-37.525-38.008-43.605l-1.196-14.676c4.775-3.549,7.889-9.214,7.889-15.606C217.907,8.726,209.18,0,198.455,0
		h-9.447c-10.726,0-19.452,8.726-19.452,19.452c0,6.393,3.115,12.058,7.889,15.606l-1.196,14.675
		c-22.055,6.081-38.008,23.325-38.008,43.606c0,10.561,4.432,20.656,12.153,28.689c-5.665,3.639-9.438,9.982-9.438,17.201
		c0,7.607,4.185,14.245,10.366,17.767c2.953,1.996,8.701,9.215,9.554,17.981c0.661,6.778-1.717,13.172-7.054,19.036
		c-8.552,8.375-13.263,19.158-13.263,30.37c0,10.294,4.034,20.133,11.1,28.055c-6.37,3.467-10.704,10.221-10.704,17.971
		c0,4.038,1.192,7.797,3.221,10.972c-3.969,3.729-6.453,9.021-6.453,14.885c0,2.997,0.665,5.837,1.829,8.405
		c-5.898,3.586-9.854,10.057-9.854,17.453v57.823c0,4.152,3.365,7.517,7.517,7.517H250.25c4.151,0,7.517-3.365,7.517-7.517v-57.823
		C257.767,314.729,253.808,308.259,247.913,304.667z M242.732,372.429h-98.002v-50.306c0-2.984,2.427-5.413,5.411-5.413h87.179
		c2.983,0,5.412,2.428,5.412,5.413V372.429z M189.008,15.034h9.447c2.436,0,4.418,1.982,4.418,4.417s-1.982,4.417-4.418,4.417
		h-9.447c-2.436,0-4.418-1.982-4.418-4.417S186.571,15.034,189.008,15.034z M191.519,47.43l0.696-8.526h3.033l0.695,8.526
		c-0.735-0.025-1.47-0.047-2.212-0.047C192.989,47.382,192.254,47.405,191.519,47.43z M193.731,62.417
		c22.309,0,40.457,13.872,40.457,30.922c0,10.209-6.53,19.623-17.56,25.445h-45.796c-11.029-5.822-17.559-15.236-17.559-25.445
		C153.274,76.288,171.423,62.417,193.731,62.417z M226.062,144.64h-19.896h-44.764c-0.089,0-0.171-0.022-0.259-0.026
		c-2.863-0.138-5.153-2.489-5.153-5.385c0-2.983,2.427-5.411,5.413-5.411h64.66c2.985,0,5.412,2.427,5.412,5.411
		C231.474,142.213,229.046,144.64,226.062,144.64z M162.952,206.208c12.114-11.959,13.697-24.372,12.887-32.69
		c-0.48-4.92-1.932-9.63-3.937-13.844h43.66c-2.005,4.214-3.458,8.924-3.939,13.844c-0.81,8.321,0.775,20.74,12.898,32.703
		c4.749,5.266,7.349,11.642,7.349,18.161c0,10.337-6.263,19.796-16.843,25.581h-42.593c-10.579-5.785-16.842-15.244-16.842-25.581
		C155.593,217.858,158.196,211.476,162.952,206.208z M161.402,264.997h64.66c2.985,0,5.412,2.427,5.412,5.411
		c0,2.984-2.427,5.413-5.412,5.413h-64.66c-2.985,0-5.413-2.428-5.413-5.413C155.989,267.425,158.417,264.997,161.402,264.997z
		 M158.169,290.855h71.126c2.984,0,5.411,2.427,5.411,5.411c0,2.983-2.427,5.411-5.411,5.411h-71.126
		c-2.984,0-5.412-2.427-5.412-5.411C152.757,293.282,155.185,290.855,158.169,290.855z"/>
</g>
<g>
</g>
<g>
</g>
<g>
</g>
<g>
</g>
<g>
</g>
<g>
</g>
<g>
</g>
<g>
</g>
<g>
</g>
<g>
</g>
<g>
</g>
<g>
</g>
<g>
</g>
<g>
</g>
<g>
</g>
</svg>
