<?xml version="1.0" encoding="iso-8859-1"?>
<!-- Generator: Adobe Illustrator 18.0.0, SVG Export Plug-In . SVG Version: 6.00 Build 0)  -->
<!DOCTYPE svg PUBLIC "-//W3C//DTD SVG 1.1//EN" "http://www.w3.org/Graphics/SVG/1.1/DTD/svg11.dtd">
<svg version="1.1" id="Capa_1" xmlns="http://www.w3.org/2000/svg" xmlns:xlink="http://www.w3.org/1999/xlink" x="0px" y="0px"
	 viewBox="0 0 319.777 319.777" style="enable-background:new 0 0 319.777 319.777;" xml:space="preserve">
<g>
	<path style="fill:#EF8829;" d="M118.156,304.743h16.134l-2.318-54.997c-7.909-2.448-15.213-5.942-21.567-10.396L118.156,304.743z"
		/>
	<path style="fill:#CE593F;" d="M147.157,253.04l2.181,51.703h21.101l2.181-51.703c-4.164,0.544-8.418,0.835-12.731,0.835
		C155.575,253.875,151.321,253.584,147.157,253.04z"/>
	<path style="fill:#EF8829;" d="M209.371,239.35c-6.354,4.453-13.658,7.948-21.566,10.396l-2.319,54.997h16.085l0.112-0.524
		L209.371,239.35z"/>
	<path style="fill:#CE593F;" d="M66.311,116.565l34.178,167.199l-7.487-63.345c-3.216-6.106-4.918-12.77-4.918-19.581
		c0-3.562,0.469-7.102,1.366-10.504l-10.007-84.117l1.188,10.347H66.311z"/>
	<g>
		<path style="fill:#84BD93;" d="M207.947,180.661c-0.278-0.295-0.579-0.582-0.869-0.873
			C207.368,180.079,207.67,180.366,207.947,180.661z"/>
		<path style="fill:#84BD93;" d="M204.156,177.097c0.322,0.27,0.632,0.546,0.943,0.821
			C204.787,177.643,204.479,177.367,204.156,177.097z"/>
		<path style="fill:#84BD93;" d="M210.046,183.098c-10.593-6.726-24.235-10.409-38.77-10.409c-15.626,0-30.226,4.252-41.108,11.971
			c-10.099,7.165-15.661,16.44-15.661,26.116c0,6.149,2.261,12.131,6.49,17.518c10.615,6.79,24.284,10.547,38.892,10.547
			c15.626,0,30.226-4.252,41.108-11.971c10.099-7.164,15.66-16.439,15.66-26.116C216.657,194.551,214.346,188.521,210.046,183.098z"
			/>
	</g>
	<path style="fill:#EF8829;" d="M125.904,106.197l0.404,10.369H95.772l6.309,52.89c2.387-2.382,5.047-4.812,8.001-6.907
		c5.327-3.779,11.338-6.784,17.815-9.153L125.904,106.197z"/>
	<path style="fill:#CE593F;" d="M141.374,116.565l1.402,32.91c5.538-0.988,11.276-1.671,17.112-1.671
		c5.836,0,11.574,0.769,17.112,1.758l1.402-32.997H141.374z"/>
	<path style="fill:#CE593F;" d="M239.145,116.565l-8.82,74.073c0.898,3.401,1.366,6.726,1.366,10.288
		c0,6.811-1.701,13.714-4.917,19.819l-10.015,84.82h7.159l38.528-189H239.145z"/>
	<path style="fill:#EF8829;" d="M193.458,116.565l0.415-10.369l-1.994,47.111c6.476,2.369,12.488,5.374,17.815,9.153
		c2.954,2.095,5.614,4.655,8.002,7.037l6.31-52.933H193.458z"/>
	<g>
		<path style="fill:#FDD44B;" d="M84.098,48.325c-0.65-0.107-1.285-0.267-1.88-0.518C82.814,48.058,83.449,48.217,84.098,48.325z"/>
		<path style="fill:#FDD44B;" d="M105.667,28.415c-0.376-0.054-0.755-0.089-1.142-0.089c-0.506,0-1.017,0.048-1.522,0.141
			c-0.081,0.022-0.161,0.041-0.243,0.06c-2.678,0.615-5.476-0.279-7.302-2.332c-1.586-1.784-3.843-2.807-6.194-2.807
			c-0.557,0-1.12,0.058-1.676,0.173c-2.173,0.445-4.039,1.71-5.259,3.561c-1.22,1.85-1.645,4.064-1.2,6.235
			c0.294,1.432,0.944,2.72,1.931,3.829c1.789,2.01,2.368,4.825,1.516,7.378c-0.415,1.243-0.512,2.511-0.332,3.777
			c0.384,0.057,0.766,0.12,1.163,0.121c0.56,0,1.126-0.059,1.684-0.174c2.883-0.592,5.258-2.709,6.194-5.524
			c0.875-2.628,3.125-4.562,5.855-5.033c0.062-0.011,0.124-0.021,0.185-0.03C103.559,36.734,106.287,32.667,105.667,28.415z"/>
	</g>
	<g>
		<path style="fill:#FDD44B;" d="M126.801,60.89c0.206,0.083,0.397,0.192,0.594,0.291C127.198,61.083,127.008,60.974,126.801,60.89z
			"/>
		<path style="fill:#FDD44B;" d="M128.154,61.594c0.204,0.13,0.393,0.281,0.584,0.428C128.546,61.874,128.359,61.725,128.154,61.594
			z"/>
		<path style="fill:#FDD44B;" d="M107.856,84.784c-0.05-0.174-0.118-0.34-0.156-0.519C107.738,84.444,107.806,84.609,107.856,84.784
			z"/>
		<path style="fill:#FDD44B;" d="M125.312,60.442c0.18,0.035,0.348,0.101,0.524,0.148C125.66,60.543,125.493,60.477,125.312,60.442z
			"/>
		<path style="fill:#FDD44B;" d="M131.661,66.337c0.081,0.286,0.158,0.574,0.208,0.872C131.819,66.91,131.743,66.624,131.661,66.337
			z"/>
		<path style="fill:#FDD44B;" d="M131.117,64.914c0.128,0.258,0.247,0.519,0.348,0.791
			C131.364,65.432,131.246,65.172,131.117,64.914z"/>
		<path style="fill:#FDD44B;" d="M130.335,63.634c0.164,0.22,0.316,0.448,0.458,0.684C130.651,64.081,130.5,63.854,130.335,63.634z"
			/>
		<path style="fill:#FDD44B;" d="M129.878,63.08c-0.174-0.194-0.348-0.384-0.539-0.562C129.529,62.695,129.705,62.886,129.878,63.08
			z"/>
		<path style="fill:#FDD44B;" d="M108.462,86.308c-0.101-0.193-0.211-0.381-0.296-0.583
			C108.251,85.928,108.361,86.114,108.462,86.308z"/>
		<path style="fill:#FDD44B;" d="M131.888,67.389c-0.38-0.055-0.765-0.093-1.159-0.093c-1.461,0-2.855,0.378-4.141,1.121
			c-2.33,1.349-5.203,1.348-7.533-0.001c-1.284-0.744-2.677-1.12-4.139-1.12c-4.575,0-8.297,3.722-8.297,8.297
			c0,2.943,1.595,5.695,4.166,7.18c2.376,1.373,3.815,3.934,3.752,6.678c-0.002,0.088-0.006,0.175-0.01,0.262
			c0.007,0.335,0.042,0.662,0.088,0.986c0.392,0.057,0.784,0.119,1.192,0.119c4.517,0,8.203-3.628,8.294-8.124
			c-0.003-0.059-0.005-0.117-0.007-0.176c-0.094-2.773,1.349-5.373,3.751-6.762c1.267-0.732,2.294-1.775,3.013-2.994
			c0.168-0.362,0.346-0.721,0.532-1.073c0.4-0.977,0.619-2.03,0.619-3.112C132.008,68.17,131.944,67.78,131.888,67.389z"/>
		<path style="fill:#FDD44B;" d="M112.958,90.284c-0.268-0.098-0.526-0.215-0.78-0.339C112.433,90.07,112.689,90.186,112.958,90.284
			z"/>
		<path style="fill:#FDD44B;" d="M114.443,90.681c-0.293-0.049-0.576-0.125-0.858-0.203
			C113.869,90.556,114.15,90.632,114.443,90.681z"/>
		<path style="fill:#FDD44B;" d="M109.308,87.623c-0.149-0.188-0.299-0.375-0.432-0.576
			C109.009,87.249,109.159,87.434,109.308,87.623z"/>
		<path style="fill:#FDD44B;" d="M111.588,89.629c-0.234-0.139-0.46-0.289-0.679-0.449
			C111.128,89.342,111.353,89.489,111.588,89.629z"/>
		<path style="fill:#FDD44B;" d="M109.8,88.206c0.177,0.187,0.366,0.358,0.56,0.529C110.167,88.566,109.978,88.392,109.8,88.206z"/>
	</g>
	<g>
		<path style="fill:#FDD44B;" d="M244.463,20.105c0.33,0.5,0.592,1.029,0.802,1.575C245.053,21.135,244.793,20.605,244.463,20.105z"
			/>
		<path style="fill:#FDD44B;" d="M245.374,22.047c0.144,0.435,0.267,0.876,0.339,1.329C245.641,22.923,245.52,22.482,245.374,22.047
			z"/>
		<path style="fill:#FDD44B;" d="M245.723,23.494c-2.747-0.393-5.525,0.619-7.373,2.701c-1.829,2.058-4.638,2.948-7.32,2.328
			c-0.077-0.018-0.152-0.037-0.227-0.057c-0.499-0.092-1.011-0.14-1.518-0.14c-3.91,0-7.321,2.788-8.11,6.631
			c-0.201,0.979-0.21,1.952-0.07,2.888c-0.152-0.037-0.3-0.085-0.456-0.113c2.725,0.476,4.968,2.408,5.842,5.031
			c0.937,2.815,3.31,4.932,6.195,5.524c0.557,0.115,1.125,0.174,1.684,0.174c1.12,0,2.194-0.235,3.183-0.651
			c0.3-0.155,0.603-0.304,0.911-0.444c2.014-1.155,3.526-3.14,4.018-5.535c0.295-1.434,0.206-2.874-0.264-4.28
			c-0.854-2.555-0.275-5.37,1.515-7.381c0.988-1.109,1.638-2.397,1.931-3.83C245.859,25.386,245.857,24.43,245.723,23.494z"/>
	</g>
	<g>
		<path style="fill:#FDD44B;" d="M56.331,86.2c-0.098-0.195-0.205-0.384-0.288-0.588C56.125,85.816,56.233,86.004,56.331,86.2z"/>
		<path style="fill:#FDD44B;" d="M57.171,87.544c-0.146-0.19-0.295-0.377-0.425-0.58C56.876,87.168,57.025,87.354,57.171,87.544z"/>
		<path style="fill:#FDD44B;" d="M55.741,84.64c-0.047-0.174-0.112-0.34-0.147-0.519C55.629,84.3,55.694,84.466,55.741,84.64z"/>
		<path style="fill:#FDD44B;" d="M60.073,89.931c0.254,0.126,0.509,0.242,0.776,0.341C60.582,90.173,60.326,90.056,60.073,89.931z"
			/>
		<path style="fill:#FDD44B;" d="M75.72,61.364c0.505,0.287,0.968,0.637,1.4,1.02C76.687,62.002,76.225,61.652,75.72,61.364z"/>
		<path style="fill:#FDD44B;" d="M77.281,62.522c0.407,0.38,0.771,0.803,1.095,1.256C78.05,63.325,77.688,62.902,77.281,62.522z"/>
		<path style="fill:#FDD44B;" d="M83.673,75.34c-2.376-1.373-3.815-3.934-3.753-6.678c0.002-0.092,0.006-0.183,0.01-0.273
			c-0.022-0.972-0.227-1.895-0.557-2.756c0.214,0.562,0.38,1.148,0.468,1.761c-0.39-0.058-0.785-0.098-1.19-0.098
			c-4.521,0-8.208,3.634-8.295,8.134c0.005,0.083,0.008,0.165,0.01,0.249c0.063,2.744-1.376,5.305-3.753,6.678
			c-2.569,1.485-4.164,4.236-4.164,7.18c0,0.395,0.038,0.779,0.092,1.16c0.391,0.057,0.781,0.12,1.187,0.12
			c1.462,0,2.855-0.377,4.14-1.121c1.165-0.674,2.466-1.012,3.766-1.012s2.602,0.338,3.766,1.012
			c1.285,0.744,2.678,1.121,4.142,1.121c4.574,0,8.296-3.721,8.296-8.296C87.838,79.577,86.241,76.825,83.673,75.34z"/>
		<path style="fill:#FDD44B;" d="M57.672,88.152c0.175,0.188,0.362,0.36,0.553,0.531C58.035,88.512,57.847,88.339,57.672,88.152z"/>
		<path style="fill:#FDD44B;" d="M78.512,63.973c0.315,0.469,0.587,0.97,0.802,1.5C79.098,64.943,78.829,64.443,78.512,63.973z"/>
		<path style="fill:#FDD44B;" d="M62.353,90.678c-0.291-0.049-0.573-0.124-0.853-0.203C61.781,90.554,62.061,90.629,62.353,90.678z"
			/>
		<path style="fill:#FDD44B;" d="M58.79,89.149c0.217,0.162,0.441,0.311,0.673,0.451C59.232,89.46,59.007,89.31,58.79,89.149z"/>
	</g>
	<g>
		<path style="fill:#FDD44B;" d="M158.287,60.445c0.292-0.059,0.6-0.062,0.901-0.09C158.887,60.382,158.579,60.386,158.287,60.445z"
			/>
		<path style="fill:#FDD44B;" d="M156.749,60.917c0.047-0.019,0.099-0.026,0.147-0.045
			C156.848,60.891,156.795,60.898,156.749,60.917z"/>
		<path style="fill:#FDD44B;" d="M155.351,61.665c0.08-0.053,0.173-0.086,0.255-0.136C155.524,61.579,155.431,61.612,155.351,61.665
			z"/>
		<path style="fill:#FDD44B;" d="M151.694,67.975c-0.01,0.144-0.048,0.28-0.052,0.426c0,0.001,0,0.003,0,0.004
			C151.645,68.257,151.683,68.12,151.694,67.975z"/>
		<path style="fill:#FDD44B;" d="M154.48,62.372c-0.113,0.099-0.243,0.179-0.35,0.285C154.237,62.551,154.367,62.471,154.48,62.372z
			"/>
		<path style="fill:#FDD44B;" d="M167.6,65.444c-0.457-1.113-1.143-2.102-2.009-2.912C166.455,63.341,167.143,64.332,167.6,65.444z"
			/>
		<path style="fill:#FDD44B;" d="M152.341,65.239c0.079-0.179,0.193-0.335,0.283-0.507C152.534,64.904,152.42,65.061,152.341,65.239
			z"/>
		<path style="fill:#FDD44B;" d="M167.728,65.832c0.153,0.431,0.275,0.876,0.355,1.336
			C168.003,66.707,167.881,66.265,167.728,65.832z"/>
		<path style="fill:#FDD44B;" d="M161.672,60.471c-0.56-0.12-1.139-0.191-1.734-0.191c0,0,0,0,0,0
			C160.533,60.28,161.112,60.349,161.672,60.471z"/>
		<path style="fill:#FDD44B;" d="M161.992,60.569c0.445,0.116,0.884,0.251,1.297,0.435C162.874,60.82,162.438,60.684,161.992,60.569
			z"/>
		<path style="fill:#FDD44B;" d="M164.187,61.485c0.397,0.239,0.767,0.514,1.117,0.814
			C164.953,61.999,164.585,61.725,164.187,61.485z"/>
		<path style="fill:#FDD44B;" d="M153.115,63.859c0.106-0.153,0.243-0.281,0.359-0.426
			C153.359,63.578,153.222,63.705,153.115,63.859z"/>
		<path style="fill:#FDD44B;" d="M145.974,88.152c0.175,0.188,0.362,0.36,0.553,0.531C146.336,88.512,146.149,88.339,145.974,88.152
			z"/>
		<path style="fill:#FDD44B;" d="M145.472,87.544c-0.146-0.19-0.294-0.377-0.424-0.58C145.178,87.168,145.326,87.354,145.472,87.544
			z"/>
		<path style="fill:#FDD44B;" d="M151.84,66.765c0.038-0.167,0.111-0.32,0.159-0.483C151.951,66.445,151.877,66.597,151.84,66.765z"
			/>
		<path style="fill:#FDD44B;" d="M175.681,79.874c-0.352-0.634-0.675-1.285-0.967-1.95c-0.699-1.04-1.619-1.937-2.739-2.584
			c-2.376-1.373-3.815-3.934-3.754-6.678c0.002-0.088,0.005-0.174,0.01-0.262c-0.007-0.346-0.073-0.675-0.122-1.01
			c-0.379-0.055-0.763-0.095-1.157-0.095c-4.521,0-8.208,3.634-8.296,8.134c0.005,0.083,0.008,0.165,0.01,0.249
			c0.063,2.744-1.376,5.305-3.753,6.678c-2.569,1.485-4.165,4.236-4.165,7.18c0,0.395,0.039,0.779,0.093,1.16
			c0.391,0.057,0.781,0.12,1.187,0.12c1.462,0,2.855-0.377,4.141-1.121c1.165-0.674,2.465-1.012,3.766-1.012
			c1.301,0,2.601,0.338,3.766,1.012c1.285,0.744,2.678,1.121,4.14,1.121c4.575,0,8.297-3.721,8.297-8.296
			C176.14,81.607,175.969,80.719,175.681,79.874z"/>
		<path style="fill:#FDD44B;" d="M150.654,90.678c-0.29-0.049-0.571-0.124-0.85-0.203C150.084,90.554,150.363,90.629,150.654,90.678
			z"/>
		<path style="fill:#FDD44B;" d="M147.093,89.149c0.217,0.162,0.44,0.31,0.672,0.45C147.533,89.46,147.309,89.31,147.093,89.149z"/>
		<path style="fill:#FDD44B;" d="M148.375,89.931c0.253,0.125,0.508,0.241,0.774,0.34C148.884,90.173,148.628,90.056,148.375,89.931
			z"/>
		<path style="fill:#FDD44B;" d="M143.895,84.121c0.035,0.179,0.1,0.344,0.147,0.519C143.996,84.466,143.931,84.3,143.895,84.121z"
			/>
		<polygon style="fill:#FDD44B;" points="144.353,79.408 144.352,79.409 144.351,79.413 		"/>
		<path style="fill:#FDD44B;" d="M143.877,81.082c0.019-0.107,0.041-0.212,0.065-0.318C143.919,80.87,143.897,80.975,143.877,81.082
			z"/>
		<path style="fill:#FDD44B;" d="M144.345,85.613c0.082,0.204,0.19,0.392,0.288,0.588C144.535,86.005,144.427,85.816,144.345,85.613
			z"/>
	</g>
	<g>
		<path style="fill:#FDD44B;" d="M246.091,60.568c0.109-0.028,0.21-0.075,0.321-0.099C246.302,60.493,246.201,60.539,246.091,60.568
			z"/>
		<path style="fill:#FDD44B;" d="M244.803,60.997c-0.02,0.009-0.044,0.012-0.064,0.021c-0.229,0.115-0.452,0.241-0.685,0.348
			c-0.094,0.054-0.18,0.121-0.272,0.179C244.109,61.341,244.447,61.155,244.803,60.997z"/>
		<path style="fill:#FDD44B;" d="M241.464,63.688c0.224-0.305,0.468-0.596,0.731-0.868
			C241.932,63.093,241.689,63.383,241.464,63.688z"/>
		<path style="fill:#FDD44B;" d="M242.407,62.599c0.301-0.288,0.629-0.547,0.97-0.788C243.035,62.051,242.708,62.31,242.407,62.599z
			"/>
		<path style="fill:#FDD44B;" d="M240.022,66.949c-0.095,0.472-0.165,0.954-0.175,1.451c0,0.003,0,0.006,0,0.009
			C239.857,67.91,239.926,67.425,240.022,66.949z"/>
		<path style="fill:#FDD44B;" d="M255.937,65.847c0.149,0.425,0.271,0.863,0.35,1.316C256.208,66.709,256.087,66.273,255.937,65.847
			z"/>
		<path style="fill:#FDD44B;" d="M248.15,60.281c0.592,0.001,1.168,0.069,1.724,0.19C249.317,60.351,248.742,60.281,248.15,60.281z"
			/>
		<path style="fill:#FDD44B;" d="M255.803,65.439c-0.457-1.11-1.141-2.096-2.004-2.905C254.661,63.342,255.347,64.33,255.803,65.439
			z"/>
		<path style="fill:#FDD44B;" d="M250.217,60.575c0.436,0.115,0.867,0.247,1.272,0.427
			C251.083,60.822,250.655,60.689,250.217,60.575z"/>
		<path style="fill:#FDD44B;" d="M252.396,61.488c0.391,0.236,0.756,0.508,1.102,0.803
			C253.152,61.995,252.788,61.724,252.396,61.488z"/>
		<polygon style="fill:#FDD44B;" points="248.142,60.28 248.141,60.28 248.133,60.281 		"/>
		<path style="fill:#FDD44B;" d="M235.301,89.151c0.215,0.161,0.437,0.307,0.667,0.447
			C235.738,89.459,235.516,89.311,235.301,89.151z"/>
		<path style="fill:#FDD44B;" d="M240.554,65.226c0.185-0.418,0.416-0.81,0.665-1.188C240.97,64.417,240.74,64.808,240.554,65.226z"
			/>
		<path style="fill:#FDD44B;" d="M233.676,87.541c-0.145-0.188-0.292-0.374-0.42-0.574
			C233.384,87.168,233.531,87.352,233.676,87.541z"/>
		<path style="fill:#FDD44B;" d="M260.181,75.34c-2.377-1.373-3.815-3.934-3.754-6.678c0.002-0.088,0.004-0.174,0.009-0.262
			c-0.007-0.346-0.073-0.676-0.122-1.01c-0.378-0.055-0.762-0.095-1.156-0.095c-4.521,0-8.208,3.634-8.296,8.134
			c0.005,0.083,0.008,0.165,0.01,0.249c0.062,2.744-1.376,5.305-3.752,6.678c-2.57,1.485-4.165,4.236-4.165,7.18
			c0,0.395,0.039,0.78,0.093,1.16c0.391,0.057,0.781,0.12,1.187,0.12c1.462,0,2.855-0.377,4.139-1.121
			c1.166-0.674,2.466-1.012,3.767-1.012s2.602,0.338,3.767,1.012c1.284,0.744,2.677,1.121,4.139,1.121
			c4.574,0,8.296-3.721,8.296-8.296C264.345,79.577,262.749,76.825,260.181,75.34z"/>
		<path style="fill:#FDD44B;" d="M238.86,90.678c-0.29-0.049-0.57-0.124-0.849-0.202C238.291,90.554,238.569,90.629,238.86,90.678z"
			/>
		<path style="fill:#FDD44B;" d="M234.182,88.154c0.174,0.186,0.358,0.356,0.548,0.526
			C234.541,88.511,234.355,88.339,234.182,88.154z"/>
		<path style="fill:#FDD44B;" d="M236.584,89.932c0.252,0.125,0.506,0.24,0.771,0.339C237.09,90.173,236.835,90.056,236.584,89.932z
			"/>
		<path style="fill:#FDD44B;" d="M240.103,66.589c0.107-0.433,0.241-0.856,0.413-1.26C240.344,65.732,240.211,66.155,240.103,66.589
			z"/>
		<path style="fill:#FDD44B;" d="M232.837,86.196c-0.097-0.193-0.204-0.381-0.286-0.583
			C232.632,85.816,232.74,86.002,232.837,86.196z"/>
		<path style="fill:#FDD44B;" d="M232.247,84.639c-0.046-0.174-0.111-0.339-0.146-0.517C232.136,84.3,232.201,84.464,232.247,84.639
			z"/>
	</g>
	<g>
		<path style="fill:#FDD44B;" d="M138.226,15.325c0.444,0.116,0.881,0.25,1.293,0.434C139.106,15.575,138.671,15.439,138.226,15.325
			z"/>
		<path style="fill:#FDD44B;" d="M132.868,15.731c-2.4,1.046-4.218,3.186-4.799,5.794C128.651,18.917,130.469,16.778,132.868,15.731
			z"/>
		<path style="fill:#FDD44B;" d="M136.168,15.035c-0.565,0-1.117,0.057-1.65,0.165C135.051,15.091,135.604,15.035,136.168,15.035z"
			/>
		<path style="fill:#FDD44B;" d="M132.978,15.672c0.383-0.16,0.792-0.267,1.201-0.369C133.769,15.405,133.361,15.512,132.978,15.672
			z"/>
		<path style="fill:#FDD44B;" d="M140.421,16.241c0.394,0.237,0.762,0.511,1.11,0.809C141.182,16.751,140.816,16.479,140.421,16.241
			z"/>
		<path style="fill:#FDD44B;" d="M143.963,20.599c0.15,0.426,0.271,0.865,0.35,1.319C144.234,21.463,144.114,21.026,143.963,20.599z
			"/>
		<path style="fill:#FDD44B;" d="M143.83,20.195c-0.457-1.111-1.142-2.098-2.006-2.907C142.688,18.096,143.374,19.085,143.83,20.195
			z"/>
		<path style="fill:#FDD44B;" d="M136.168,15.035c0.596,0,1.175,0.069,1.735,0.191C137.342,15.105,136.764,15.035,136.168,15.035z"
			/>
		<path style="fill:#FDD44B;" d="M128.035,21.814c-0.082,0.439-0.152,0.881-0.161,1.341c0,0.003,0,0.007,0,0.01
			C127.883,22.702,127.952,22.255,128.035,21.814z"/>
		<path style="fill:#FDD44B;" d="M126.888,45.432c-0.291-0.049-0.572-0.124-0.852-0.203
			C126.317,45.308,126.596,45.384,126.888,45.432z"/>
		<path style="fill:#FDD44B;" d="M123.328,43.906c0.215,0.16,0.435,0.306,0.665,0.446C123.764,44.213,123.542,44.065,123.328,43.906
			z"/>
		<path style="fill:#FDD44B;" d="M122.21,42.91c0.172,0.185,0.356,0.354,0.544,0.522C122.566,43.264,122.382,43.094,122.21,42.91z"
			/>
		<path style="fill:#FDD44B;" d="M121.698,42.29c-0.143-0.186-0.289-0.37-0.416-0.568C121.41,41.921,121.555,42.103,121.698,42.29z"
			/>
		<path style="fill:#FDD44B;" d="M148.207,30.096c-2.402-1.389-3.845-3.989-3.751-6.762c0.002-0.06,0.004-0.118,0.007-0.176
			c-0.007-0.347-0.073-0.677-0.122-1.013c-0.379-0.055-0.762-0.095-1.156-0.095c-4.521,0-8.208,3.635-8.295,8.134
			c0.004,0.083,0.008,0.165,0.01,0.249c0.063,2.744-1.376,5.305-3.752,6.678c-2.569,1.485-4.165,4.236-4.165,7.18
			c0,0.395,0.039,0.779,0.092,1.16c0.391,0.057,0.781,0.12,1.188,0.12c1.462,0,2.855-0.377,4.139-1.121
			c1.165-0.675,2.466-1.013,3.767-1.013c1.301,0,2.601,0.337,3.765,1.011c1.286,0.744,2.68,1.122,4.141,1.122
			c4.574,0,8.297-3.723,8.297-8.298C152.371,34.33,150.776,31.58,148.207,30.096z"/>
		<path style="fill:#FDD44B;" d="M120.272,39.386c-0.046-0.171-0.11-0.335-0.144-0.51C120.162,39.052,120.226,39.215,120.272,39.386
			z"/>
		<path style="fill:#FDD44B;" d="M122.396,31.429c-1.533,1.538-2.43,3.638-2.43,5.845c0,0,0,0,0,0.001
			C119.966,35.067,120.863,32.967,122.396,31.429z"/>
		<path style="fill:#FDD44B;" d="M124.611,44.687c0.252,0.124,0.505,0.239,0.77,0.338C125.117,44.927,124.862,44.811,124.611,44.687
			z"/>
		<path style="fill:#FDD44B;" d="M120.861,40.946c-0.096-0.192-0.202-0.377-0.283-0.578
			C120.659,40.569,120.765,40.753,120.861,40.946z"/>
	</g>
	<g>
		<path style="fill:#FDD44B;" d="M185.669,15.325c0.443,0.116,0.878,0.25,1.289,0.433C186.547,15.575,186.113,15.44,185.669,15.325z
			"/>
		<path style="fill:#FDD44B;" d="M178.985,16.45c-0.424,0.286-0.823,0.606-1.186,0.963C178.162,17.056,178.561,16.736,178.985,16.45
			z"/>
		<path style="fill:#FDD44B;" d="M180.418,15.672c0.403-0.168,0.831-0.284,1.264-0.388C181.25,15.388,180.822,15.504,180.418,15.672
			z"/>
		<path style="fill:#FDD44B;" d="M175.451,22.01c-0.061,0.377-0.13,0.753-0.138,1.145c0,0.003,0,0.007,0,0.01
			C175.321,22.769,175.39,22.39,175.451,22.01z"/>
		<path style="fill:#FDD44B;" d="M176.784,18.617c0.274-0.395,0.589-0.757,0.925-1.098
			C177.373,17.861,177.058,18.222,176.784,18.617z"/>
		<path style="fill:#FDD44B;" d="M179.02,16.422c0.338-0.225,0.708-0.404,1.078-0.578C179.728,16.018,179.359,16.196,179.02,16.422z
			"/>
		<path style="fill:#FDD44B;" d="M191.27,20.194c-0.457-1.111-1.141-2.097-2.005-2.906C190.127,18.096,190.813,19.085,191.27,20.194
			z"/>
		<path style="fill:#FDD44B;" d="M183.608,15.035c-0.565,0-1.117,0.057-1.65,0.165C182.491,15.091,183.044,15.035,183.608,15.035z"
			/>
		<path style="fill:#FDD44B;" d="M191.403,20.6c0.15,0.426,0.271,0.864,0.35,1.318C191.674,21.462,191.553,21.026,191.403,20.6z"/>
		<path style="fill:#FDD44B;" d="M183.608,15.035c0.596,0,1.175,0.069,1.734,0.191C184.782,15.105,184.204,15.035,183.608,15.035z"
			/>
		<path style="fill:#FDD44B;" d="M187.861,16.241c0.393,0.237,0.76,0.51,1.107,0.807C188.62,16.751,188.255,16.479,187.861,16.241z"
			/>
		<path style="fill:#FDD44B;" d="M176.011,19.998c0.212-0.481,0.469-0.937,0.765-1.366C176.48,19.061,176.223,19.517,176.011,19.998
			z"/>
		<path style="fill:#FDD44B;" d="M169.648,42.908c0.174,0.187,0.36,0.357,0.55,0.527C170.008,43.266,169.821,43.094,169.648,42.908z
			"/>
		<path style="fill:#FDD44B;" d="M169.141,42.294c-0.144-0.188-0.292-0.374-0.42-0.574C168.85,41.922,168.997,42.106,169.141,42.294
			z"/>
		<path style="fill:#FDD44B;" d="M170.765,43.904c0.217,0.161,0.439,0.31,0.672,0.45C171.205,44.214,170.981,44.065,170.765,43.904z
			"/>
		<path style="fill:#FDD44B;" d="M195.647,30.095c-2.376-1.373-3.815-3.934-3.754-6.678c0.002-0.088,0.005-0.175,0.01-0.262
			c-0.007-0.346-0.073-0.675-0.122-1.01c-0.379-0.055-0.762-0.095-1.156-0.095c-4.521,0-8.209,3.635-8.295,8.134
			c0.005,0.083,0.008,0.165,0.01,0.249c0.063,2.744-1.376,5.305-3.753,6.678c-2.57,1.485-4.165,4.236-4.165,7.18
			c0,0.395,0.039,0.779,0.092,1.16c0.391,0.057,0.78,0.12,1.187,0.12c1.462,0,2.855-0.377,4.14-1.121
			c1.165-0.675,2.465-1.013,3.767-1.013c1.301,0,2.601,0.338,3.766,1.013c1.285,0.744,2.678,1.121,4.141,1.121
			c4.574,0,8.296-3.723,8.296-8.298C199.811,34.331,198.215,31.58,195.647,30.095z"/>
		<path style="fill:#FDD44B;" d="M174.329,45.433c-0.293-0.049-0.575-0.125-0.856-0.204
			C173.755,45.308,174.035,45.384,174.329,45.433z"/>
		<path style="fill:#FDD44B;" d="M175.322,23.384c0,0.011,0.001,0.022,0.001,0.033c0,0,0-0.001,0-0.001
			C175.323,23.406,175.322,23.395,175.322,23.384z"/>
		<path style="fill:#FDD44B;" d="M175.51,21.523c0.099-0.443,0.252-0.864,0.419-1.278C175.762,20.659,175.609,21.08,175.51,21.523z"
			/>
		<path style="fill:#FDD44B;" d="M171.57,30.095c2.226-1.286,3.578-3.624,3.695-6.169c-0.118,2.545-1.471,4.883-3.697,6.17
			c-2.567,1.484-4.163,4.234-4.163,7.178c0,0,0,0,0,0.001C167.406,34.331,169.001,31.579,171.57,30.095z"/>
		<path style="fill:#FDD44B;" d="M172.047,44.686c0.253,0.125,0.508,0.241,0.776,0.341C172.556,44.927,172.3,44.811,172.047,44.686z
			"/>
		<path style="fill:#FDD44B;" d="M168.302,40.95c-0.097-0.194-0.204-0.381-0.285-0.583C168.099,40.57,168.206,40.755,168.302,40.95z
			"/>
		<path style="fill:#FDD44B;" d="M167.713,39.388c-0.046-0.172-0.11-0.336-0.145-0.512
			C167.602,39.052,167.667,39.215,167.713,39.388z"/>
	</g>
	<g>
		<path style="fill:#FDD44B;" d="M207.737,61.401c1.286-0.744,2.68-1.122,4.141-1.122c0,0,0,0,0,0
			C210.416,60.28,209.023,60.656,207.737,61.401c-0.47,0.272-0.974,0.45-1.48,0.613C206.763,61.852,207.267,61.674,207.737,61.401z"
			/>
		<path style="fill:#FDD44B;" d="M214.97,60.891c0.203,0.082,0.391,0.19,0.585,0.287C215.36,61.081,215.173,60.973,214.97,60.891z"
			/>
		<path style="fill:#FDD44B;" d="M213.479,60.442c0.177,0.035,0.342,0.1,0.515,0.146C213.821,60.542,213.657,60.477,213.479,60.442z
			"/>
		<path style="fill:#FDD44B;" d="M205.792,62.175c0.038-0.009,0.076-0.005,0.114-0.015C205.868,62.17,205.83,62.165,205.792,62.175z
			"/>
		<path style="fill:#FDD44B;" d="M196.065,60.565c-0.001,0-0.001,0-0.001,0c-3.43,0-6.381,2.094-7.642,5.071
			C189.682,62.659,192.634,60.565,196.065,60.565z"/>
		<path style="fill:#FDD44B;" d="M216.323,61.596c0.201,0.129,0.388,0.277,0.577,0.422C216.71,61.872,216.525,61.725,216.323,61.596
			z"/>
		<path style="fill:#FDD44B;" d="M218.041,63.076c-0.172-0.192-0.344-0.38-0.533-0.556C217.696,62.695,217.87,62.884,218.041,63.076
			z"/>
		<path style="fill:#FDD44B;" d="M219.829,66.339c0.08,0.285,0.157,0.572,0.207,0.869C219.986,66.91,219.909,66.625,219.829,66.339z
			"/>
		<path style="fill:#FDD44B;" d="M218.504,63.637c0.162,0.218,0.313,0.444,0.453,0.677C218.816,64.08,218.667,63.856,218.504,63.637
			z"/>
		<path style="fill:#FDD44B;" d="M187.886,69.884c0.007,0.042,0.017,0.083,0.025,0.124
			C187.903,69.966,187.892,69.926,187.886,69.884z"/>
		<path style="fill:#FDD44B;" d="M219.286,64.917c0.127,0.256,0.245,0.516,0.345,0.785C219.53,65.432,219.413,65.174,219.286,64.917
			z"/>
		<path style="fill:#FDD44B;" d="M201.128,90.286c-0.271-0.099-0.532-0.217-0.789-0.343
			C200.596,90.069,200.856,90.186,201.128,90.286z"/>
		<polygon style="fill:#FDD44B;" points="189.194,73.171 189.194,73.172 189.195,73.173 		"/>
		<path style="fill:#FDD44B;" d="M197.486,87.639c-0.155-0.196-0.312-0.389-0.448-0.599
			C197.175,87.25,197.331,87.443,197.486,87.639z"/>
		<path style="fill:#FDD44B;" d="M199.76,89.633c-0.239-0.142-0.469-0.294-0.691-0.458C199.292,89.34,199.521,89.491,199.76,89.633z
			"/>
		<path style="fill:#FDD44B;" d="M220.054,67.389c-0.38-0.055-0.765-0.093-1.159-0.093c-1.461,0-2.855,0.378-4.141,1.121
			c-2.33,1.349-5.203,1.348-7.533-0.001c-1.284-0.744-2.677-1.12-4.139-1.12c-4.574,0-8.297,3.722-8.297,8.297
			c0,2.943,1.595,5.695,4.166,7.18c2.376,1.373,3.815,3.934,3.752,6.678c-0.002,0.088-0.006,0.175-0.009,0.262
			c0.006,0.335,0.041,0.662,0.087,0.986c0.392,0.057,0.783,0.119,1.19,0.119c4.521,0,8.209-3.634,8.296-8.134
			c-0.005-0.083-0.008-0.165-0.01-0.249c-0.063-2.745,1.376-5.305,3.752-6.678c2.569-1.485,4.165-4.236,4.165-7.18
			C220.174,68.17,220.111,67.78,220.054,67.389z"/>
		<path style="fill:#FDD44B;" d="M202.611,90.681c-0.295-0.049-0.58-0.126-0.863-0.205
			C202.032,90.556,202.315,90.632,202.611,90.681z"/>
		<path style="fill:#FDD44B;" d="M197.96,88.2c0.182,0.193,0.377,0.369,0.577,0.544C198.337,88.57,198.142,88.392,197.96,88.2z"/>
		<path style="fill:#FDD44B;" d="M196.641,86.333c-0.106-0.204-0.222-0.402-0.312-0.615
			C196.419,85.932,196.534,86.129,196.641,86.333z"/>
		<path style="fill:#FDD44B;" d="M195.692,82.832c-0.002-0.046-0.014-0.089-0.015-0.136c0.004-0.086,0.008-0.174,0.009-0.262
			c0.063-2.745-1.376-5.305-3.752-6.678c-0.005-0.003-0.01-0.007-0.015-0.009c0.004,0.003,0.008,0.006,0.011,0.009
			c2.376,1.373,3.816,3.934,3.755,6.677c-0.002,0.089-0.006,0.177-0.01,0.265C195.677,82.743,195.69,82.786,195.692,82.832z"/>
		<path style="fill:#FDD44B;" d="M190.378,74.579c0.029,0.028,0.061,0.052,0.09,0.079C190.438,74.632,190.406,74.607,190.378,74.579
			z"/>
		<path style="fill:#FDD44B;" d="M196.035,84.826c-0.056-0.19-0.129-0.372-0.171-0.568C195.906,84.454,195.98,84.636,196.035,84.826
			z"/>
	</g>
	<path style="fill:#3F2D20;" d="M279.519,93.579c-0.587-0.717-1.296-1.303-2.081-1.755c1.245-2.852,1.941-5.997,1.941-9.303
		c0-6.871-3.07-13.361-8.217-17.752c-1.348-8.173-6.963-14.917-14.468-17.886c0.2-0.663,0.372-1.339,0.514-2.027
		c0.543-2.644,0.618-5.362,0.23-8.025c1.406-2.295,2.409-4.821,2.952-7.464c1.255-6.105,0.056-12.332-3.374-17.535
		c-3.431-5.203-8.681-8.759-14.783-10.013c-1.55-0.318-3.132-0.48-4.704-0.48c-5.225,0-10.272,1.771-14.346,4.957
		c-0.304-0.013-0.61-0.019-0.914-0.019c-6.757,0-12.974,2.959-17.288,7.733C201.374,5.775,193.159,0,183.608,0
		c-11.568,0-21.197,8.463-23.021,19.523c-0.24,0.204-0.469,0.417-0.7,0.63c-0.229-0.213-0.46-0.427-0.699-0.63
		C157.365,8.463,147.737,0,136.168,0c-9.55,0-17.766,5.774-21.372,14.008c-4.316-4.773-10.533-7.732-17.288-7.732
		c-0.304,0-0.61,0.006-0.915,0.019c-4.075-3.185-9.12-4.957-14.345-4.957c-1.572,0-3.154,0.162-4.702,0.48
		c-6.104,1.254-11.355,4.81-14.786,10.013c-3.43,5.202-4.628,11.43-3.374,17.535c0.543,2.643,1.547,5.17,2.953,7.465
		c-0.388,2.663-0.313,5.381,0.23,8.024c0.142,0.688,0.314,1.364,0.514,2.027c-7.505,2.97-13.12,9.712-14.468,17.885
		c-5.147,4.392-8.217,10.881-8.217,17.753c0,3.306,0.696,6.451,1.941,9.304c-0.785,0.451-1.494,1.037-2.081,1.754
		c-1.427,1.749-1.994,4.046-1.543,6.257l43.641,213.926c0.714,3.5,3.793,6.015,7.365,6.015h140.335c3.573,0,6.651-2.515,7.366-6.015
		l43.64-213.926C281.513,97.625,280.946,95.328,279.519,93.579z M216.759,304.743l10.015-84.495
		c3.216-6.106,4.917-12.683,4.917-19.495c0-3.562-0.469-7.059-1.366-10.46l10.007-84.441h24.158l-40.573,198.891H216.759z
		 M170.439,304.743h-21.101l-2.181-51.703c4.164,0.544,8.418,0.835,12.731,0.835c4.313,0,8.567-0.291,12.731-0.835L170.439,304.743z
		 M63.339,68.414c0.087-4.5,3.774-8.134,8.295-8.134c1.22,0,2.376,0.272,3.419,0.747c0.223,0.11,0.439,0.234,0.666,0.338
		c2.461,1.4,4.144,4.014,4.211,7.025c-0.005,0.09-0.009,0.181-0.011,0.273c-0.062,2.744,1.377,5.305,3.754,6.678
		c2.568,1.485,4.165,4.236,4.165,7.18c0,4.575-3.722,8.296-8.296,8.296c-1.463,0-2.856-0.377-4.141-1.121
		c-1.165-0.674-2.466-1.012-3.766-1.012s-2.602,0.338-3.766,1.012c-1.285,0.744-2.678,1.121-4.14,1.121
		c-4.574,0-8.295-3.721-8.295-8.296c0-2.944,1.595-5.695,4.165-7.18c2.377-1.373,3.816-3.934,3.753-6.678
		C63.347,68.579,63.344,68.497,63.339,68.414z M95.743,21.511c0.081-0.018,0.161-0.038,0.243-0.06
		c0.505-0.093,1.016-0.141,1.522-0.141c3.909,0,7.32,2.788,8.109,6.63c0.908,4.421-1.901,8.758-6.292,9.76
		c-0.061,0.01-0.123,0.02-0.185,0.03c-2.73,0.471-4.98,2.405-5.855,5.033c-0.937,2.815-3.311,4.932-6.194,5.524
		c-0.559,0.115-1.124,0.174-1.684,0.174c-1.122-0.001-2.199-0.236-3.189-0.654c-0.297-0.152-0.596-0.3-0.901-0.44
		c-2.017-1.155-3.529-3.141-4.022-5.537c-0.295-1.434-0.206-2.875,0.264-4.283c0.853-2.554,0.273-5.368-1.516-7.378
		c-0.987-1.109-1.637-2.397-1.931-3.829c-0.445-2.171-0.02-4.385,1.2-6.235c1.22-1.851,3.086-3.115,5.259-3.561
		c0.555-0.114,1.119-0.172,1.676-0.172c2.351,0,4.608,1.023,6.194,2.807C90.267,21.232,93.065,22.125,95.743,21.511z
		 M127.883,23.417c-0.002-0.087-0.006-0.174-0.01-0.261c0.092-4.494,3.778-8.121,8.295-8.121c4.517,0,8.203,3.628,8.294,8.124
		c-0.003,0.058-0.005,0.116-0.007,0.176c-0.094,2.773,1.349,5.373,3.751,6.761c2.569,1.484,4.165,4.234,4.165,7.178
		c0,4.575-3.722,8.297-8.296,8.297c-1.461,0-2.855-0.378-4.141-1.122c-1.165-0.674-2.465-1.011-3.765-1.011
		c-1.301,0-2.603,0.338-3.767,1.012c-1.284,0.744-2.677,1.121-4.139,1.121c-4.574,0-8.296-3.722-8.296-8.297
		c0-2.943,1.595-5.694,4.164-7.179C126.507,28.721,127.946,26.161,127.883,23.417z M171.568,30.096
		c2.376-1.373,3.816-3.934,3.755-6.677c-0.002-0.088-0.006-0.175-0.01-0.263c0.093-4.494,3.778-8.121,8.295-8.121
		c4.516,0,8.201,3.627,8.294,8.121c-0.005,0.086-0.008,0.173-0.01,0.261c-0.061,2.744,1.377,5.305,3.754,6.678
		c2.568,1.485,4.165,4.236,4.165,7.179c0,4.575-3.722,8.297-8.296,8.297c-1.463,0-2.856-0.377-4.141-1.121
		c-1.165-0.675-2.466-1.012-3.766-1.012c-1.301,0-2.602,0.338-3.767,1.012c-1.285,0.744-2.678,1.121-4.14,1.121
		c-4.574,0-8.295-3.722-8.295-8.297C167.406,34.33,169.001,31.58,171.568,30.096z M222.269,21.31c0.507,0,1.019,0.048,1.518,0.14
		c0.075,0.019,0.151,0.038,0.227,0.057c2.682,0.621,5.491-0.27,7.32-2.328c1.961-2.208,4.967-3.236,7.872-2.635
		c2.17,0.446,4.037,1.71,5.256,3.561c1.22,1.85,1.646,4.064,1.2,6.234c-0.294,1.433-0.944,2.721-1.931,3.83
		c-1.79,2.011-2.369,4.826-1.515,7.381c0.47,1.407,0.559,2.846,0.264,4.28c-0.492,2.395-2.004,4.38-4.018,5.535
		c-0.307,0.141-0.611,0.29-0.91,0.444c-0.988,0.416-2.063,0.651-3.183,0.651c-0.56,0-1.127-0.059-1.684-0.174
		c-2.885-0.592-5.258-2.709-6.195-5.524c-0.873-2.623-3.117-4.555-5.842-5.031c-0.066-0.012-0.135-0.023-0.204-0.032
		c-4.383-0.995-7.194-5.335-6.286-9.759C214.948,24.099,218.359,21.31,222.269,21.31z M256.436,68.401
		c-0.005,0.087-0.008,0.173-0.01,0.261c-0.062,2.744,1.377,5.305,3.754,6.678c2.568,1.485,4.165,4.236,4.165,7.18
		c0,4.575-3.722,8.296-8.296,8.296c-1.462,0-2.855-0.377-4.139-1.121c-1.166-0.674-2.467-1.012-3.768-1.012
		c-1.301,0-2.601,0.338-3.767,1.012c-1.284,0.744-2.677,1.121-4.139,1.121c-4.574,0-8.296-3.721-8.296-8.296
		c0-2.944,1.595-5.695,4.165-7.18c2.377-1.373,3.815-3.934,3.753-6.678c-0.002-0.087-0.006-0.173-0.01-0.261
		c0.063-3.014,1.745-5.633,4.207-7.035c0.233-0.107,0.456-0.233,0.685-0.347c1.04-0.47,2.189-0.739,3.402-0.739
		C252.657,60.28,256.343,63.907,256.436,68.401z M134.29,304.743h-16.134l-7.75-65.393c6.354,4.453,13.658,7.948,21.567,10.396
		L134.29,304.743z M142.776,149.13l-1.825-43.279h37.873l-1.824,43.279c-5.538-0.988-11.276-1.498-17.112-1.498
		C154.052,147.632,148.314,148.142,142.776,149.13z M102.081,169.11l-7.497-63.258h31.32l1.994,47.284
		c-6.477,2.369-12.488,5.461-17.815,9.24C107.129,164.47,104.468,166.728,102.081,169.11z M217.696,169.11
		c-2.387-2.382-5.048-4.64-8.002-6.734c-5.326-3.779-11.338-6.871-17.815-9.24l1.994-47.284h31.321L217.696,169.11z M118.78,174.637
		c10.882-7.719,25.482-11.971,41.108-11.971c15.626,0,30.226,4.252,41.108,11.971c10.099,7.165,15.66,16.44,15.66,26.116
		c0,9.677-5.561,18.952-15.66,26.116c-10.882,7.72-25.482,11.972-41.108,11.972c-15.626,0-30.226-4.252-41.108-11.972
		c-10.099-7.164-15.661-16.439-15.661-26.116C103.12,191.077,108.681,181.802,118.78,174.637z M211.878,60.28
		c4.574,0,8.296,3.722,8.296,8.297c0,2.943-1.596,5.695-4.165,7.18c-2.377,1.373-3.816,3.934-3.753,6.678
		c0.002,0.083,0.005,0.165,0.01,0.248c-0.086,4.5-3.774,8.134-8.295,8.134c-4.517,0-8.202-3.626-8.295-8.12
		c0.004-0.088,0.008-0.175,0.01-0.264c0.062-2.743-1.378-5.304-3.755-6.677c-1.12-0.647-2.04-1.544-2.737-2.583
		c-0.294-0.666-0.615-1.316-0.967-1.95c-0.29-0.844-0.459-1.733-0.459-2.646c0-4.575,3.721-8.297,8.295-8.297
		c1.462,0,2.856,0.378,4.142,1.122c2.329,1.35,5.203,1.349,7.533-0.001C209.023,60.657,210.416,60.28,211.878,60.28z
		 M168.232,68.401c-0.005,0.087-0.008,0.173-0.01,0.261c-0.062,2.744,1.377,5.305,3.754,6.678c1.12,0.647,2.04,1.545,2.739,2.584
		c0.292,0.665,0.614,1.316,0.967,1.95c0.288,0.845,0.458,1.733,0.458,2.647c0,4.575-3.721,8.296-8.296,8.296
		c-1.462,0-2.855-0.377-4.14-1.121c-1.165-0.674-2.466-1.012-3.766-1.012c-1.301,0-2.602,0.338-3.767,1.012
		c-1.285,0.744-2.678,1.121-4.14,1.121c-4.575,0-8.296-3.721-8.296-8.296c0-1.082,0.219-2.136,0.619-3.112
		c0.186-0.353,0.364-0.71,0.532-1.073c0.718-1.221,1.746-2.263,3.014-2.996c2.378-1.373,3.816-3.934,3.754-6.678
		c-0.002-0.087-0.006-0.173-0.01-0.261c0.093-4.494,3.778-8.121,8.295-8.121C164.453,60.28,168.139,63.907,168.232,68.401z
		 M119.571,61.401c1.286-0.744,2.68-1.122,4.141-1.122c4.574,0,8.295,3.722,8.295,8.297c0,1.082-0.219,2.135-0.619,3.112
		c-0.186,0.352-0.364,0.711-0.532,1.073c-0.718,1.22-1.746,2.262-3.013,2.994c-2.402,1.389-3.845,3.989-3.751,6.761
		c0.002,0.059,0.004,0.117,0.007,0.176c-0.091,4.496-3.777,8.124-8.294,8.124s-8.202-3.627-8.295-8.121
		c0.004-0.086,0.008-0.174,0.01-0.261c0.063-2.745-1.376-5.305-3.753-6.678c-2.57-1.485-4.166-4.236-4.166-7.18
		c0-4.575,3.722-8.297,8.297-8.297c1.462,0,2.855,0.377,4.139,1.12C114.369,62.749,117.242,62.75,119.571,61.401z M79.445,105.851
		l10.007,84.441c-0.898,3.401-1.366,6.898-1.366,10.46c0,6.811,1.701,13.389,4.917,19.495l10.014,84.495h-7.158L55.286,105.851
		H79.445z M201.572,304.743h-16.085l2.319-54.997c7.908-2.448,15.211-5.942,21.566-10.396l-7.688,64.869l-0.062,0.524H201.572z"/>
</g>
<g>
</g>
<g>
</g>
<g>
</g>
<g>
</g>
<g>
</g>
<g>
</g>
<g>
</g>
<g>
</g>
<g>
</g>
<g>
</g>
<g>
</g>
<g>
</g>
<g>
</g>
<g>
</g>
<g>
</g>
</svg>
