<?xml version="1.0" encoding="iso-8859-1"?>
<!-- Generator: Adobe Illustrator 18.0.0, SVG Export Plug-In . SVG Version: 6.00 Build 0)  -->
<!DOCTYPE svg PUBLIC "-//W3C//DTD SVG 1.1//EN" "http://www.w3.org/Graphics/SVG/1.1/DTD/svg11.dtd">
<svg version="1.1" id="Capa_1" xmlns="http://www.w3.org/2000/svg" xmlns:xlink="http://www.w3.org/1999/xlink" x="0px" y="0px"
	 viewBox="0 0 309.43 309.43" style="enable-background:new 0 0 309.43 309.43;" xml:space="preserve">
<g>
	<g>
		<path style="fill:#FFFFFF;" d="M218.06,248.807c-1.265-1.867-3.268-3.006-5.419-3.241c12.614,18.5,15.631,22.046,25.32,31.385
			c0.485,0.467,0.978,0.898,1.476,1.311C234.151,272.34,229.364,265.505,218.06,248.807z"/>
		<g>
			<path style="fill:#EF8829;" d="M257.314,40.578c0.817,0.6,1.632,1.204,2.429,1.838C258.946,41.782,258.131,41.178,257.314,40.578
				z"/>
			<path style="fill:#EF8829;" d="M224.927,27.167c0.876,0.123,1.755,0.237,2.622,0.394
				C226.681,27.404,225.803,27.289,224.927,27.167z"/>
			<path style="fill:#EF8829;" d="M223.591,26.968c-0.941-0.113-1.892-0.182-2.842-0.256
				C221.699,26.785,222.65,26.855,223.591,26.968z"/>
			<path style="fill:#EF8829;" d="M215.513,26.486c1.363,0,2.719,0.041,4.065,0.121C218.231,26.527,216.876,26.486,215.513,26.486z"
				/>
			<path style="fill:#EF8829;" d="M260.468,43.021c0.801,0.653,1.599,1.31,2.378,1.996C262.067,44.33,261.269,43.673,260.468,43.021
				z"/>
			<path style="fill:#EF8829;" d="M254.038,38.297c0.838,0.552,1.675,1.106,2.494,1.693
				C255.713,39.403,254.876,38.849,254.038,38.297z"/>
			<path style="fill:#EF8829;" d="M265.831,47.782c-0.754-0.734-1.529-1.439-2.306-2.139
				C264.303,46.343,265.077,47.048,265.831,47.782z"/>
			<path style="fill:#EF8829;" d="M215.526,35.31c-0.324,0.324-0.608,0.68-0.864,1.056C214.92,35.991,215.203,35.634,215.526,35.31z
				"/>
			<path style="fill:#EF8829;" d="M266.506,48.467c0.739,0.735,1.475,1.474,2.19,2.24C267.98,49.941,267.245,49.202,266.506,48.467z
				"/>
			<path style="fill:#EF8829;" d="M269.379,51.469c0.695,0.762,1.387,1.527,2.058,2.318
				C270.766,52.996,270.073,52.231,269.379,51.469z"/>
			<path style="fill:#EF8829;" d="M250.676,36.207c0.854,0.5,1.707,1.003,2.543,1.538C252.383,37.21,251.53,36.707,250.676,36.207z"
				/>
			<path style="fill:#EF8829;" d="M228.882,27.84c0.856,0.172,1.714,0.336,2.56,0.54C230.595,28.176,229.738,28.012,228.882,27.84z"
				/>
			<path style="fill:#EF8829;" d="M236.45,29.815c0.862,0.278,1.727,0.552,2.577,0.864C238.176,30.368,237.313,30.093,236.45,29.815
				z"/>
			<path style="fill:#EF8829;" d="M232.738,28.731c0.847,0.222,1.696,0.437,2.532,0.69
				C234.434,29.168,233.585,28.953,232.738,28.731z"/>
			<path style="fill:#EF8829;" d="M247.259,34.325c0.854,0.442,1.709,0.883,2.547,1.36
				C248.967,35.209,248.113,34.767,247.259,34.325z"/>
			<path style="fill:#EF8829;" d="M243.769,32.638c0.847,0.382,1.695,0.762,2.528,1.177C245.465,33.4,244.617,33.02,243.769,32.638z
				"/>
			<path style="fill:#EF8829;" d="M240.129,31.117c0.862,0.333,1.725,0.662,2.573,1.028
				C241.853,31.779,240.99,31.449,240.129,31.117z"/>
			<path style="fill:#EF8829;" d="M26.592,148.751c-0.107-0.29-0.2-0.586-0.27-0.887C26.394,148.166,26.484,148.46,26.592,148.751z"
				/>
			<path style="fill:#EF8829;" d="M82.35,36.436c0.27-0.402,0.576-0.781,0.922-1.126C82.926,35.655,82.619,36.033,82.35,36.436z"/>
			<path style="fill:#EF8829;" d="M29.486,93.002c-0.254,0.115-0.497,0.249-0.738,0.392C28.988,93.251,29.232,93.118,29.486,93.002z
				"/>
			<path style="fill:#EF8829;" d="M30.732,92.567c-0.234,0.061-0.464,0.128-0.691,0.211C30.267,92.695,30.499,92.628,30.732,92.567z
				"/>
			<path style="fill:#EF8829;" d="M28.33,93.645c-0.369,0.253-0.722,0.53-1.042,0.847C27.607,94.176,27.961,93.899,28.33,93.645z"/>
			<path style="fill:#EF8829;" d="M26.234,147.461c-0.076-0.427-0.13-0.859-0.13-1.296
				C26.104,146.602,26.157,147.035,26.234,147.461z"/>
			<path style="fill:#EF8829;" d="M55.123,205.791c-0.895-0.83-1.79-1.66-2.658-2.511C53.334,204.132,54.228,204.962,55.123,205.791
				z"/>
			<path style="fill:#EF8829;" d="M172.167,55.339c-0.099-0.268-0.18-0.541-0.249-0.818
				C171.987,54.799,172.067,55.071,172.167,55.339z"/>
			<path style="fill:#EF8829;" d="M81.668,37.705c0.09-0.213,0.216-0.407,0.325-0.611C81.885,37.298,81.758,37.492,81.668,37.705z"
				/>
			<path style="fill:#EF8829;" d="M172.744,56.544c-0.132-0.224-0.258-0.451-0.365-0.687
				C172.487,56.093,172.612,56.32,172.744,56.544z"/>
			<path style="fill:#EF8829;" d="M47.699,198.38c0.818,0.887,1.669,1.751,2.515,2.62C49.369,200.131,48.517,199.267,47.699,198.38z
				"/>
			<path style="fill:#EF8829;" d="M171.809,54.069c-0.08-0.438-0.133-0.882-0.133-1.331
				C171.676,53.187,171.728,53.631,171.809,54.069z"/>
			<path style="fill:#EF8829;" d="M81.238,39.079c0.035-0.164,0.1-0.318,0.146-0.48C81.339,38.761,81.273,38.915,81.238,39.079z"/>
			<path style="fill:#EF8829;" d="M23.014,159.39c-0.374-0.943-0.729-1.892-1.078-2.842
				C22.284,157.499,22.639,158.446,23.014,159.39z"/>
			<path style="fill:#EF8829;" d="M18.891,146.989c-0.252-0.93-0.503-1.86-0.73-2.794C18.388,145.13,18.639,146.059,18.891,146.989z
				"/>
			<path style="fill:#EF8829;" d="M17.367,140.63c-0.189-0.905-0.386-1.808-0.552-2.715C16.98,138.823,17.177,139.726,17.367,140.63
				z"/>
			<path style="fill:#EF8829;" d="M20.776,153.242c-0.314-0.942-0.618-1.886-0.907-2.834
				C20.158,151.356,20.462,152.3,20.776,153.242z"/>
			<path style="fill:#EF8829;" d="M43.226,193.281c0.765,0.92,1.57,1.814,2.363,2.716C44.797,195.095,43.991,194.201,43.226,193.281
				z"/>
			<path style="fill:#EF8829;" d="M16.211,134.133c-0.125-0.847-0.266-1.692-0.37-2.541
				C15.945,132.441,16.087,133.286,16.211,134.133z"/>
			<path style="fill:#EF8829;" d="M15.434,127.351c-0.058-0.707-0.143-1.412-0.186-2.12
				C15.291,125.938,15.375,126.644,15.434,127.351z"/>
			<path style="fill:#EF8829;" d="M41.227,190.764c-1.04-1.316-2.061-2.643-3.045-3.991
				C39.166,188.122,40.187,189.447,41.227,190.764z"/>
			<path style="fill:#EF8829;" d="M35.339,182.763c-0.591-0.878-1.134-1.779-1.701-2.669
				C34.205,180.984,34.748,181.885,35.339,182.763z"/>
			<path style="fill:#EF8829;" d="M25.597,165.427c-0.433-0.938-0.839-1.885-1.247-2.83
				C24.758,163.543,25.164,164.489,25.597,165.427z"/>
			<path style="fill:#EF8829;" d="M28.517,171.343c-0.49-0.926-0.945-1.865-1.41-2.801
				C27.572,169.478,28.028,170.416,28.517,171.343z"/>
			<path style="fill:#EF8829;" d="M31.767,177.126c-0.544-0.909-1.048-1.835-1.567-2.755
				C30.719,175.291,31.223,176.217,31.767,177.126z"/>
		</g>
		<g>
			<path style="fill:#EF8829;" d="M67.204,219.2c-0.009-0.183-0.031-0.362-0.054-0.542C67.173,218.838,67.195,219.018,67.204,219.2z
				"/>
			<path style="fill:#EF8829;" d="M42.283,276.198c0.805,0.702,1.614,1.329,2.426,1.922
				C43.897,277.532,43.087,276.901,42.283,276.198z"/>
			<path style="fill:#EF8829;" d="M47.507,279.945c-0.798-0.457-1.594-0.977-2.388-1.535
				C45.913,278.972,46.709,279.488,47.507,279.945z"/>
			<path style="fill:#EF8829;" d="M36.287,264.854c0.019,0.524,0.068,1.042,0.146,1.554
				C36.355,265.897,36.306,265.378,36.287,264.854L36.287,264.854z"/>
			<path style="fill:#EF8829;" d="M259.434,242.585c-7.26-7.19-11.642-11.53-16.181-19.156c-1.944-3.267-1.145-7.471,1.863-9.796
				c30.853-23.855,49.273-59.288,49.273-94.781c0-25.326-8.754-48.298-22.9-65.001c-12.543-10.564-27.829-16.927-44.346-17.314
				c-0.005-0.007-0.012-0.013-0.016-0.02c0.793,1.217,1.236,2.653,1.236,4.117c0,1.975-0.803,3.911-2.206,5.314
				c-1.395,1.395-3.339,2.206-5.315,2.206c-1.976,0-3.921-0.812-5.315-2.206c-1.403-1.403-2.205-3.339-2.205-5.314
				c0-1.298,0.373-2.56,1.004-3.681c-0.088,0.157-0.193,0.305-0.269,0.467c-10.157,1.6-20.005,5.285-28.921,10.725
				c-0.194-0.253-0.398-0.497-0.623-0.722c1.393,1.394,2.196,3.338,2.196,5.315c0,1.975-0.803,3.921-2.196,5.314
				c-1.404,1.404-3.339,2.206-5.324,2.206c-1.976,0-3.911-0.802-5.315-2.206c-0.313-0.313-0.585-0.661-0.836-1.023
				c0.015,0.022,0.025,0.046,0.041,0.068c-1.024,0.915-2.029,1.855-3.01,2.824c-2.575,2.544-6.656,3.965-10.647,0
				c-14.914-14.819-35.077-23.407-55.475-23.407c-2.951,0-5.863,0.198-8.732,0.569c-0.038-0.071-0.103-0.123-0.142-0.193
				c0.653,1.136,1.037,2.422,1.037,3.744c0,1.975-0.802,3.911-2.206,5.314c-1.394,1.395-3.328,2.206-5.314,2.206
				c-1.985,0-3.921-0.812-5.315-2.206c-1.404-1.403-2.206-3.339-2.206-5.314c0-0.202,0.043-0.399,0.06-0.599
				c-0.012,0.149-0.049,0.293-0.052,0.443c-9.159,3.256-17.616,8.414-25.038,15.08c-0.05-0.054-0.096-0.112-0.148-0.164
				c1.403,1.395,2.205,3.339,2.205,5.316c0,1.985-0.802,3.92-2.205,5.314c-1.395,1.403-3.339,2.206-5.315,2.206
				c-1.985,0-3.92-0.803-5.324-2.206c0.178,0.178,0.365,0.345,0.559,0.503c-5.927,7.573-10.79,16.303-14.315,25.862
				c-0.047,0.007-0.091,0.024-0.138,0.032c0.412-0.071,0.828-0.125,1.249-0.125c1.986,0,3.921,0.802,5.325,2.195
				c1.403,1.404,2.206,3.339,2.206,5.325c0,1.976-0.803,3.92-2.206,5.315c-1.404,1.404-3.339,2.206-5.325,2.206
				c-1.975,0-3.91-0.803-5.314-2.206c0.113,0.114,0.235,0.215,0.355,0.322c-1.677,7.483-2.199,15.334-2.199,23.426
				c0,5.257,0.154,9.612,0.879,18.984c0,0.007,0.698-3.241,0.698-3.234c0-1.426,0.625-2.759,1.655-3.79
				c1.404-1.394,3.152-2.205,5.128-2.205c1.985,0,3.826,0.812,5.23,2.205c1.394,1.404,2.149,3.339,2.149,5.325
				c0,1.976-0.826,3.911-2.22,5.315c-1.394,1.394-3.351,2.197-5.336,2.197c-1.976,0-3.917-0.803-5.321-2.197
				c-0.667-0.672-1.191-1.47-1.564-2.331c0.151,0.345,0.32,0.682,0.52,1.002c4.196,20.533,14.319,40.243,29.156,56.818
				c2.544,2.297,5.153,4.542,7.898,6.664c1.385,1.071,2.276,2.546,2.672,4.138c-0.023-0.093-0.026-0.191-0.052-0.284
				c2.384,2.131,4.848,4.196,7.407,6.174c3.007,2.326,3.806,6.53,1.862,9.797c-3.271,5.496-6.466,9.287-10.71,13.666
				c-0.148,0.008-0.29,0.047-0.437,0.064c0.279-0.032,0.554-0.083,0.836-0.083c1.975,0,3.921,0.802,5.314,2.205
				c1.404,1.394,2.206,3.329,2.206,5.316c0,1.975-0.802,3.91-2.206,5.314c-1.403,1.403-3.339,2.206-5.314,2.206
				c-1.985,0-3.921-0.803-5.324-2.206c-1.395-1.405-2.196-3.339-2.196-5.314c0-0.28,0.052-0.553,0.083-0.829
				c-0.016,0.145-0.055,0.287-0.063,0.433c-1.43,1.42-2.975,2.961-4.666,4.675c-4.904,4.97-7.606,10.794-7.412,15.978
				c0.065,1.758,0.478,3.445,1.194,5.063c8.384,4.799,16.886,3.826,23.961-2.995c10.772-10.382,13.29-13.593,29.928-38.171
				c1.802-2.661,5.094-3.885,8.197-3.043c8.04,2.181,28.529,7.255,45.12,7.255c16.591,0,37.08-5.074,45.12-7.255
				c3.1-0.843,6.395,0.381,8.197,3.043c16.639,24.577,19.156,27.789,29.928,38.171c8.553,8.244,19.191,7.97,29.187-0.753
				c3.822-3.337,5.84-7.153,5.996-11.344c0.194-5.184-2.508-11.008-7.412-15.978C263.378,246.491,261.298,244.432,259.434,242.585z
				 M255.667,195.642c-1.405,1.394-3.339,2.197-5.324,2.197c-1.976,0-3.911-0.803-5.316-2.197c-1.394-1.404-2.196-3.339-2.196-5.324
				c0-1.976,0.802-3.911,2.196-5.315c1.404-1.393,3.339-2.196,5.316-2.196c1.985,0,3.92,0.802,5.324,2.196
				c1.393,1.404,2.196,3.339,2.196,5.315C257.864,192.303,257.061,194.238,255.667,195.642z M271.501,94.493
				c1.405-1.394,3.339-2.195,5.324-2.195c1.976,0,3.921,0.802,5.316,2.195c1.403,1.404,2.205,3.349,2.205,5.325
				s-0.802,3.911-2.205,5.315c-1.395,1.404-3.339,2.206-5.316,2.206c-1.985,0-3.92-0.803-5.324-2.206
				c-1.393-1.394-2.196-3.339-2.196-5.315C269.305,97.832,270.108,95.897,271.501,94.493z M270.488,140.84
				c1.403-1.394,3.339-2.205,5.324-2.205c1.976,0,3.921,0.812,5.314,2.205c1.404,1.404,2.206,3.339,2.206,5.325
				c0,1.976-0.802,3.911-2.206,5.315c-1.394,1.394-3.338,2.197-5.314,2.197c-1.985,0-3.921-0.803-5.324-2.197
				c-1.394-1.404-2.197-3.339-2.197-5.315C268.292,144.18,269.094,142.235,270.488,140.84z M253.541,55.395
				c1.404-1.403,3.339-2.205,5.314-2.205c1.986,0,3.921,0.802,5.325,2.205c1.394,1.395,2.195,3.339,2.195,5.316
				c0,1.985-0.802,3.92-2.195,5.314c-1.404,1.403-3.339,2.206-5.325,2.206c-1.975,0-3.91-0.803-5.314-2.206
				c-1.403-1.395-2.206-3.329-2.206-5.314C251.335,58.724,252.138,56.789,253.541,55.395z M169.229,92.297
				c1.976,0,3.921,0.802,5.314,2.195c1.404,1.404,2.206,3.339,2.206,5.325c0,1.976-0.802,3.92-2.206,5.315
				c-1.393,1.404-3.338,2.206-5.314,2.206c-1.985,0-3.921-0.803-5.315-2.206c-1.404-1.394-2.206-3.339-2.206-5.315
				c0-1.986,0.802-3.921,2.206-5.325C165.308,93.099,167.243,92.297,169.229,92.297z M162.24,130.813
				c0,1.976-0.812,3.921-2.206,5.315c-1.403,1.404-3.339,2.206-5.315,2.206c-1.986,0-3.921-0.802-5.324-2.206
				c-1.395-1.404-2.196-3.339-2.196-5.315c0-1.985,0.802-3.92,2.196-5.315c1.403-1.404,3.338-2.206,5.324-2.206
				c1.975,0,3.911,0.803,5.315,2.206C161.428,126.892,162.24,128.828,162.24,130.813z M149.395,69.724
				c1.394-1.393,3.338-2.196,5.314-2.196c1.985,0,3.921,0.802,5.324,2.196c1.404,1.405,2.206,3.34,2.206,5.325
				c0,1.975-0.802,3.91-2.206,5.314c-1.403,1.394-3.339,2.196-5.324,2.196c-1.976,0-3.921-0.803-5.314-2.196
				c-1.395-1.404-2.196-3.339-2.196-5.314C147.198,73.064,148,71.129,149.395,69.724z M145.514,94.493
				c1.403,1.404,2.205,3.339,2.205,5.325c0,1.976-0.802,3.92-2.205,5.315c-1.395,1.404-3.329,2.206-5.315,2.206
				c-1.975,0-3.92-0.803-5.315-2.206c-1.403-1.394-2.206-3.339-2.206-5.315c0-1.986,0.803-3.921,2.206-5.325
				c1.395-1.394,3.339-2.195,5.315-2.195C142.184,92.297,144.119,93.099,145.514,94.493z M124.917,47.423
				c1.403-1.404,3.339-2.206,5.324-2.206c1.975,0,3.911,0.802,5.314,2.206c1.395,1.394,2.206,3.338,2.206,5.315
				c0,1.975-0.812,3.921-2.206,5.314c-1.403,1.404-3.339,2.206-5.314,2.206c-1.985,0-3.921-0.802-5.324-2.206
				c-1.395-1.394-2.197-3.339-2.197-5.314C122.72,50.762,123.522,48.817,124.917,47.423z M64.399,195.642
				c-1.403,1.394-3.339,2.197-5.314,2.197c-1.985,0-3.921-0.803-5.324-2.197c-1.395-1.404-2.196-3.339-2.196-5.324
				c0-1.976,0.802-3.911,2.196-5.315c1.403-1.393,3.339-2.196,5.324-2.196c1.975,0,3.911,0.802,5.314,2.196
				c1.395,1.404,2.206,3.339,2.206,5.315C66.606,192.303,65.794,194.238,64.399,195.642z M97.952,221.854
				c-1.403,1.404-3.349,2.206-5.324,2.206s-3.911-0.802-5.314-2.206c-1.404-1.404-2.206-3.339-2.206-5.324
				c0-1.975,0.802-3.911,2.206-5.314c1.394-1.395,3.328-2.196,5.314-2.196c1.985,0,3.921,0.802,5.324,2.196
				c1.395,1.403,2.196,3.339,2.196,5.314C100.148,218.515,99.347,220.45,97.952,221.854z M93.077,189.576
				c-1.455,1.99-3.736,3.082-6.074,3.082c-1.09,0-2.191-0.237-3.229-0.732c-1.632-0.777-39.933-19.642-38.451-73.834
				c0.508-18.582,5.553-34.657,14.591-46.488C68.987,59.729,81.376,53.188,94.8,53.188c11.124,0,22.308,4.554,32.342,13.168
				c2.924,2.511,3.477,6.825,1.281,9.992c-0.648,0.956-16.128,24.405,5.777,46.185c2.635,2.621,2.961,6.774,0.768,9.773
				L93.077,189.576z M117.967,167.936c0-1.986,0.803-3.921,2.206-5.325c1.404-1.403,3.339-2.205,5.325-2.205
				c1.975,0,3.91,0.802,5.314,2.205c1.393,1.405,2.196,3.339,2.196,5.325c0,1.975-0.802,3.91-2.196,5.314
				c-1.404,1.404-3.339,2.206-5.314,2.206c-1.986,0-3.921-0.802-5.325-2.206C118.77,171.846,117.967,169.911,117.967,167.936z
				 M138.554,230.528c-1.403,1.404-3.339,2.206-5.324,2.206c-1.976,0-3.911-0.802-5.315-2.206c-1.403-1.393-2.205-3.339-2.205-5.315
				c0-1.986,0.802-3.921,2.205-5.325c1.404-1.394,3.339-2.195,5.315-2.195c1.985,0,3.921,0.802,5.324,2.195
				c1.393,1.404,2.196,3.339,2.196,5.325C140.751,227.189,139.948,229.124,138.554,230.528z M181.513,230.528
				c-1.403,1.404-3.339,2.206-5.315,2.206c-1.985,0-3.921-0.802-5.324-2.206c-1.395-1.404-2.197-3.339-2.197-5.315
				c0-1.986,0.802-3.921,2.197-5.325c1.403-1.394,3.339-2.195,5.324-2.195c1.975,0,3.911,0.802,5.315,2.195
				c1.404,1.404,2.206,3.339,2.206,5.325C183.719,227.189,182.917,229.124,181.513,230.528z M184.356,203.543
				c-10.289,6.073-20.299,8.103-29.083,8.104c-17.152,0-29.631-7.739-30.408-8.233c-1.793-1.139-3.021-2.983-3.381-5.076
				c-0.359-2.094,0.183-4.241,1.495-5.913l25.818-32.925c2.562-3.269,7.198-3.718,10.558-1.277
				c2.72,1.976,26.71,33.452,27.654,35.02C189.155,196.8,187.933,201.43,184.356,203.543z M189.255,173.25
				c-1.404,1.404-3.339,2.206-5.315,2.206c-1.985,0-3.92-0.802-5.324-2.206c-1.394-1.405-2.197-3.339-2.197-5.314
				c0-1.986,0.803-3.921,2.197-5.325c1.404-1.403,3.349-2.205,5.324-2.205c1.976,0,3.911,0.802,5.315,2.205
				c1.404,1.405,2.205,3.339,2.205,5.325C191.46,169.911,190.658,171.846,189.255,173.25z M222.115,221.854
				c-1.394,1.404-3.339,2.206-5.314,2.206c-1.975,0-3.921-0.802-5.315-2.206c-1.404-1.404-2.206-3.339-2.206-5.324
				c0-1.975,0.802-3.911,2.206-5.314c1.393-1.395,3.329-2.196,5.315-2.196c1.985,0,3.921,0.802,5.314,2.196
				c1.404,1.403,2.206,3.339,2.206,5.314C224.321,218.515,223.519,220.45,222.115,221.854z M225.656,191.927
				c-1.037,0.494-2.14,0.732-3.229,0.732c-2.338,0-4.619-1.092-6.074-3.082l-41.89-57.269c-2.194-2.999-1.867-7.152,0.768-9.773
				c21.904-21.78,6.425-45.229,5.755-46.217c-2.147-3.165-1.598-7.47,1.302-9.96c10.035-8.615,21.219-13.168,32.342-13.168
				c13.424,0,25.812,6.541,34.885,18.416c9.037,11.83,14.083,27.906,14.591,46.488C265.588,172.285,227.287,191.15,225.656,191.927z
				 M248.858,259.94c-1.403,1.403-3.339,2.206-5.314,2.206c-1.986,0-3.921-0.803-5.325-2.206c-1.393-1.405-2.205-3.339-2.205-5.314
				c0-1.986,0.812-3.921,2.205-5.316c1.404-1.403,3.339-2.205,5.325-2.205c1.975,0,3.921,0.802,5.314,2.205
				c1.394,1.394,2.206,3.329,2.206,5.316C251.065,256.6,250.252,258.535,248.858,259.94z"/>
			<path style="fill:#EF8829;" d="M64.235,247.308c-0.201,0.045-0.392,0.118-0.588,0.179
				C63.843,247.425,64.034,247.354,64.235,247.308z"/>
			<path style="fill:#EF8829;" d="M66.925,221.615c-0.043,0.151-0.068,0.305-0.121,0.454
				C66.857,221.919,66.882,221.766,66.925,221.615z"/>
			<path style="fill:#EF8829;" d="M67.187,220.113c-0.013,0.178-0.017,0.356-0.042,0.533
				C67.17,220.468,67.175,220.291,67.187,220.113z"/>
			<path style="fill:#EF8829;" d="M62.903,247.739c-0.239,0.103-0.46,0.24-0.688,0.367
				C62.442,247.978,62.665,247.843,62.903,247.739z"/>
			<path style="fill:#EF8829;" d="M58.577,252.966c0.045-0.198,0.116-0.388,0.177-0.581
				C58.693,252.578,58.622,252.767,58.577,252.966z"/>
			<path style="fill:#EF8829;" d="M59.673,250.406c0.264-0.391,0.561-0.761,0.896-1.097
				C60.234,249.645,59.936,250.014,59.673,250.406z"/>
			<path style="fill:#EF8829;" d="M60.569,249.309c0.338-0.338,0.709-0.636,1.102-0.901
				C61.278,248.673,60.907,248.972,60.569,249.309z"/>
			<path style="fill:#EF8829;" d="M59.006,251.636c0.103-0.238,0.238-0.46,0.365-0.685
				C59.245,251.177,59.109,251.398,59.006,251.636z"/>
		</g>
		<path style="fill:#FFFFFF;" d="M266.158,249.326c-0.142-0.15-0.28-0.3-0.426-0.449c-0.628-0.636-1.234-1.247-1.824-1.839
			C264.625,247.78,265.374,248.54,266.158,249.326z"/>
	</g>
	<path style="fill:#3F2D20;" d="M134.199,122.534c-21.904-21.78-6.425-45.229-5.777-46.185c2.197-3.167,1.643-7.482-1.281-9.993
		c-10.034-8.614-21.219-13.168-32.342-13.168c-13.424,0-25.812,6.541-34.885,18.416c-9.037,11.83-14.083,27.906-14.591,46.488
		c-1.483,54.192,36.819,73.058,38.451,73.834c1.037,0.495,2.139,0.732,3.229,0.732c2.338,0,4.619-1.092,6.074-3.082l41.89-57.269
		C137.161,129.308,136.834,125.155,134.199,122.534z M60.359,118.503C61.156,89.372,75.64,68.23,94.8,68.23
		c5.833,0,11.86,2.007,17.678,5.851c-6.067,12.947-9.455,34.53,6.728,54.296L85.07,175.046
		C76.278,168.519,59.452,151.638,60.359,118.503z"/>
	<path style="fill:#3F2D20;" d="M264.107,118.092c-0.508-18.582-5.553-34.657-14.591-46.488
		c-9.073-11.876-21.462-18.416-34.885-18.416c-11.124,0-22.308,4.554-32.342,13.168c-2.9,2.491-3.449,6.795-1.302,9.96
		c0.67,0.988,16.149,24.438-5.755,46.217c-2.635,2.621-2.961,6.774-0.768,9.773l41.89,57.269c1.455,1.99,3.736,3.082,6.074,3.082
		c1.089,0,2.192-0.238,3.229-0.732C227.287,191.15,265.588,172.285,264.107,118.092z M196.953,74.081
		c5.818-3.845,11.844-5.851,17.678-5.851c19.159,0,33.644,21.142,34.441,50.274c0.91,33.267-15.86,50.056-24.696,56.562
		l-34.151-46.688C206.407,108.611,203.02,87.028,196.953,74.081z"/>
	<path style="fill:#3F2D20;" d="M159.356,158.223c-3.36-2.441-7.997-1.992-10.558,1.277l-25.818,32.925
		c-1.311,1.672-1.854,3.819-1.494,5.913c0.359,2.094,1.587,3.937,3.381,5.077c0.777,0.493,13.256,8.233,30.408,8.233
		c8.784-0.001,18.794-2.031,29.083-8.104c3.577-2.112,4.799-6.742,2.654-10.3C186.065,191.675,162.076,160.2,159.356,158.223z
		 M140.708,194.191l14.006-17.862l14.077,17.952C157.548,198.202,147.337,196.41,140.708,194.191z"/>
	<path style="fill:#3F2D20;" d="M55.887,66.025c1.404-1.395,2.206-3.33,2.206-5.315c0-1.976-0.802-3.921-2.206-5.315
		c-1.394-1.403-3.339-2.205-5.315-2.205c-1.985,0-3.92,0.802-5.324,2.205c-1.394,1.395-2.196,3.339-2.196,5.315
		c0,1.985,0.803,3.92,2.196,5.315c1.404,1.403,3.339,2.206,5.324,2.206C52.547,68.231,54.492,67.428,55.887,66.025z"/>
	<path style="fill:#3F2D20;" d="M154.709,82.561c1.985,0,3.921-0.803,5.324-2.197c1.404-1.404,2.206-3.339,2.206-5.314
		c0-1.986-0.802-3.921-2.206-5.325c-1.403-1.394-3.339-2.196-5.324-2.196c-1.976,0-3.921,0.802-5.314,2.196
		c-1.395,1.404-2.197,3.339-2.197,5.325c0,1.975,0.802,3.91,2.197,5.314C150.788,81.757,152.733,82.561,154.709,82.561z"/>
	<path style="fill:#3F2D20;" d="M132.678,99.818c0,1.975,0.803,3.92,2.206,5.315c1.395,1.403,3.339,2.206,5.315,2.206
		c1.986,0,3.921-0.803,5.315-2.206c1.403-1.395,2.205-3.339,2.205-5.315c0-1.986-0.802-3.921-2.205-5.325
		c-1.395-1.394-3.329-2.196-5.315-2.196c-1.975,0-3.92,0.802-5.315,2.196C133.481,95.897,132.678,97.832,132.678,99.818z"/>
	<path style="fill:#3F2D20;" d="M154.719,123.292c-1.986,0-3.921,0.803-5.324,2.206c-1.395,1.395-2.197,3.329-2.197,5.315
		c0,1.976,0.802,3.911,2.197,5.315c1.403,1.403,3.338,2.205,5.324,2.205c1.975,0,3.911-0.802,5.315-2.205
		c1.394-1.395,2.206-3.339,2.206-5.315c0-1.985-0.812-3.92-2.206-5.315C158.63,124.095,156.694,123.292,154.719,123.292z"/>
	<path style="fill:#3F2D20;" d="M130.813,173.25c1.393-1.404,2.196-3.339,2.196-5.314c0-1.986-0.802-3.921-2.196-5.325
		c-1.404-1.403-3.339-2.205-5.314-2.205c-1.986,0-3.921,0.802-5.325,2.205c-1.403,1.404-2.206,3.339-2.206,5.325
		c0,1.975,0.803,3.91,2.206,5.314c1.404,1.404,3.339,2.206,5.325,2.206C127.474,175.456,129.409,174.654,130.813,173.25z"/>
	<path style="fill:#3F2D20;" d="M133.23,217.693c-1.976,0-3.911,0.802-5.315,2.196c-1.403,1.404-2.205,3.339-2.205,5.325
		c0,1.975,0.802,3.921,2.205,5.315c1.404,1.404,3.339,2.206,5.315,2.206c1.985,0,3.921-0.802,5.324-2.206
		c1.393-1.404,2.196-3.339,2.196-5.315c0-1.986-0.803-3.921-2.196-5.325C137.151,218.495,135.215,217.693,133.23,217.693z"/>
	<path style="fill:#3F2D20;" d="M88.586,48.155c1.986,0,3.921-0.812,5.315-2.206c1.404-1.403,2.206-3.339,2.206-5.314
		c0-1.985-0.802-3.921-2.206-5.324c-1.394-1.395-3.329-2.196-5.315-2.196c-1.985,0-3.921,0.802-5.314,2.196
		c-1.404,1.403-2.206,3.339-2.206,5.324c0,1.975,0.802,3.911,2.206,5.314C84.665,47.343,86.601,48.155,88.586,48.155z"/>
	<path style="fill:#3F2D20;" d="M130.241,60.259c1.975,0,3.911-0.802,5.315-2.206c1.394-1.394,2.206-3.339,2.206-5.314
		c0-1.976-0.812-3.921-2.206-5.315c-1.404-1.404-3.339-2.206-5.315-2.206c-1.985,0-3.921,0.802-5.324,2.206
		c-1.395,1.394-2.197,3.338-2.197,5.315c0,1.975,0.802,3.921,2.197,5.314C126.32,59.457,128.256,60.259,130.241,60.259z"/>
	<path style="fill:#3F2D20;" d="M92.628,209.019c-1.986,0-3.921,0.802-5.314,2.197c-1.404,1.403-2.206,3.339-2.206,5.315
		c0,1.985,0.802,3.921,2.206,5.324c1.403,1.404,3.339,2.206,5.314,2.206s3.921-0.802,5.324-2.206
		c1.394-1.403,2.196-3.339,2.196-5.324c0-1.975-0.802-3.911-2.196-5.315C96.548,209.821,94.613,209.019,92.628,209.019z"/>
	<path style="fill:#3F2D20;" d="M65.894,247.104c-1.985,0-3.921,0.802-5.324,2.205c-1.395,1.395-2.196,3.329-2.196,5.315
		c0,1.975,0.802,3.91,2.196,5.315c1.404,1.403,3.339,2.206,5.324,2.206c1.975,0,3.911-0.803,5.314-2.206
		c1.404-1.404,2.206-3.339,2.206-5.315c0-1.986-0.802-3.921-2.206-5.315C69.815,247.906,67.869,247.104,65.894,247.104z"/>
	<path style="fill:#3F2D20;" d="M59.085,182.807c-1.985,0-3.921,0.802-5.324,2.196c-1.395,1.404-2.197,3.339-2.197,5.315
		c0,1.985,0.802,3.92,2.197,5.324c1.403,1.394,3.339,2.196,5.324,2.196c1.975,0,3.911-0.803,5.315-2.196
		c1.394-1.404,2.206-3.339,2.206-5.324c0-1.976-0.812-3.911-2.206-5.315C62.996,183.609,61.06,182.807,59.085,182.807z"/>
	<path style="fill:#3F2D20;" d="M33.615,138.635c-1.976,0-3.911,0.812-5.315,2.205c-1.394,1.394-2.196,3.339-2.196,5.325
		c0,1.975,0.802,3.91,2.196,5.314c1.404,1.394,3.339,2.197,5.315,2.197c1.985,0,3.931-0.803,5.324-2.197
		c1.394-1.404,2.196-3.339,2.196-5.314c0-1.986-0.803-3.921-2.196-5.325C37.535,139.447,35.6,138.635,33.615,138.635z"/>
	<path style="fill:#3F2D20;" d="M32.602,107.339c1.986,0,3.921-0.803,5.325-2.206c1.404-1.395,2.206-3.339,2.206-5.315
		c0-1.986-0.803-3.921-2.206-5.325c-1.404-1.394-3.339-2.196-5.325-2.196c-1.975,0-3.91,0.802-5.314,2.196
		c-1.394,1.404-2.196,3.339-2.196,5.325c0,1.975,0.802,3.92,2.196,5.315C28.692,106.536,30.627,107.339,32.602,107.339z"/>
	<path style="fill:#3F2D20;" d="M258.856,68.231c1.986,0,3.921-0.803,5.325-2.206c1.393-1.395,2.195-3.33,2.195-5.315
		c0-1.976-0.802-3.921-2.195-5.315c-1.404-1.403-3.339-2.205-5.325-2.205c-1.975,0-3.91,0.802-5.314,2.205
		c-1.403,1.395-2.206,3.329-2.206,5.315c0,1.985,0.803,3.92,2.206,5.315C254.946,67.428,256.881,68.231,258.856,68.231z"/>
	<path style="fill:#3F2D20;" d="M163.914,105.133c1.394,1.403,3.33,2.206,5.315,2.206c1.976,0,3.921-0.803,5.314-2.206
		c1.404-1.395,2.206-3.339,2.206-5.315c0-1.986-0.802-3.921-2.206-5.325c-1.393-1.394-3.338-2.196-5.314-2.196
		c-1.985,0-3.921,0.802-5.315,2.196c-1.404,1.404-2.206,3.339-2.206,5.325C161.708,101.793,162.51,103.738,163.914,105.133z"/>
	<path style="fill:#3F2D20;" d="M183.939,160.405c-1.975,0-3.92,0.802-5.324,2.205c-1.394,1.404-2.196,3.339-2.196,5.325
		c0,1.975,0.803,3.91,2.196,5.314c1.404,1.404,3.339,2.206,5.324,2.206c1.976,0,3.911-0.802,5.315-2.206
		c1.403-1.404,2.205-3.339,2.205-5.314c0-1.986-0.802-3.921-2.205-5.325C187.85,161.207,185.915,160.405,183.939,160.405z"/>
	<path style="fill:#3F2D20;" d="M176.198,217.693c-1.985,0-3.921,0.802-5.324,2.196c-1.395,1.404-2.197,3.339-2.197,5.325
		c0,1.975,0.802,3.91,2.197,5.315c1.403,1.404,3.339,2.206,5.324,2.206c1.975,0,3.911-0.802,5.314-2.206
		c1.404-1.404,2.206-3.339,2.206-5.315c0-1.986-0.802-3.921-2.206-5.325C180.109,218.495,178.173,217.693,176.198,217.693z"/>
	<path style="fill:#3F2D20;" d="M220.842,48.155c1.975,0,3.92-0.812,5.314-2.206c1.404-1.403,2.206-3.339,2.206-5.314
		c0-1.985-0.803-3.921-2.206-5.324c-1.394-1.395-3.339-2.196-5.314-2.196c-1.976,0-3.921,0.802-5.315,2.196
		c-1.403,1.403-2.205,3.339-2.205,5.324c0,1.975,0.802,3.911,2.205,5.314C216.921,47.343,218.865,48.155,220.842,48.155z"/>
	<path style="fill:#3F2D20;" d="M179.187,60.259c1.985,0,3.92-0.802,5.324-2.206c1.393-1.394,2.196-3.339,2.196-5.314
		c0-1.976-0.803-3.921-2.196-5.315c-1.404-1.404-3.339-2.206-5.324-2.206c-1.976,0-3.911,0.802-5.315,2.206
		c-1.393,1.394-2.195,3.329-2.195,5.315c0,1.985,0.802,3.921,2.195,5.314C175.276,59.457,177.211,60.259,179.187,60.259z"/>
	<path style="fill:#3F2D20;" d="M216.8,209.019c-1.986,0-3.921,0.802-5.314,2.197c-1.404,1.403-2.206,3.339-2.206,5.315
		c0,1.985,0.802,3.921,2.206,5.324c1.393,1.404,3.339,2.206,5.314,2.206c1.975,0,3.921-0.802,5.315-2.206
		c1.404-1.403,2.206-3.339,2.206-5.324c0-1.975-0.802-3.911-2.206-5.315C220.721,209.821,218.785,209.019,216.8,209.019z"/>
	<path style="fill:#3F2D20;" d="M243.544,247.104c-1.986,0-3.921,0.802-5.325,2.205c-1.393,1.395-2.205,3.329-2.205,5.315
		c0,1.975,0.812,3.91,2.205,5.315c1.404,1.403,3.339,2.206,5.325,2.206c1.975,0,3.911-0.803,5.314-2.206
		c1.394-1.404,2.206-3.339,2.206-5.315c0-1.986-0.813-3.921-2.206-5.315C247.465,247.906,245.519,247.104,243.544,247.104z"/>
	<path style="fill:#3F2D20;" d="M250.343,182.807c-1.976,0-3.911,0.802-5.315,2.196c-1.394,1.404-2.196,3.339-2.196,5.315
		c0,1.985,0.802,3.92,2.196,5.324c1.404,1.394,3.339,2.196,5.315,2.196c1.985,0,3.92-0.803,5.324-2.196
		c1.394-1.404,2.197-3.339,2.197-5.324c0-1.976-0.803-3.911-2.197-5.315C254.263,183.609,252.328,182.807,250.343,182.807z"/>
	<path style="fill:#3F2D20;" d="M275.813,153.677c1.976,0,3.921-0.803,5.315-2.197c1.404-1.404,2.206-3.339,2.206-5.314
		c0-1.986-0.802-3.921-2.206-5.325c-1.394-1.394-3.338-2.205-5.315-2.205c-1.985,0-3.921,0.812-5.324,2.205
		c-1.395,1.394-2.197,3.339-2.197,5.325c0,1.975,0.802,3.91,2.197,5.314C271.892,152.873,273.828,153.677,275.813,153.677z"/>
	<path style="fill:#3F2D20;" d="M276.825,107.339c1.976,0,3.921-0.803,5.316-2.206c1.403-1.404,2.205-3.339,2.205-5.315
		c0-1.976-0.802-3.921-2.205-5.325c-1.395-1.394-3.339-2.196-5.316-2.196c-1.985,0-3.92,0.802-5.324,2.196
		c-1.393,1.404-2.196,3.339-2.196,5.325c0,1.975,0.803,3.92,2.196,5.315C272.905,106.536,274.84,107.339,276.825,107.339z"/>
	<path style="fill:#3F2D20;" d="M270.018,231.897c-4.568-4.523-7.618-7.544-10.199-10.831c31.187-26.554,49.61-64.277,49.61-102.215
		c0-59.225-42.131-107.408-93.917-107.408c-21.996,0-43.777,8.27-60.798,22.889c-17.02-14.619-38.802-22.889-60.799-22.889
		C42.131,11.444,0,59.627,0,118.852c0,37.938,18.423,75.661,49.61,102.215c-2.581,3.286-5.631,6.307-10.199,10.831
		c-1.901,1.883-4.021,3.984-6.42,6.415c-7.92,8.028-12.088,17.652-11.737,27.102c0.313,8.382,4.164,16.029,11.137,22.116
		c7.984,6.969,16.872,10.455,25.542,10.455c8.562,0,16.913-3.4,23.974-10.206c11.339-10.929,14.853-15.396,28.964-36.171
		c10.499,2.614,28.445,6.424,43.843,6.424c15.398,0,33.344-3.81,43.843-6.424c14.11,20.775,17.625,25.242,28.964,36.172
		c7.062,6.806,15.41,10.206,23.974,10.205c8.669,0,17.559-3.487,25.542-10.455c6.973-6.086,10.824-13.733,11.137-22.116
		c0.352-9.45-3.816-19.074-11.736-27.102C274.039,235.881,271.919,233.78,270.018,231.897z M273.143,264.854
		c-0.156,4.191-2.174,8.007-5.996,11.344c-9.995,8.723-20.634,8.997-29.187,0.753c-10.772-10.383-13.29-13.594-29.928-38.172
		c-1.803-2.662-5.097-3.886-8.197-3.042c-8.04,2.181-28.529,7.254-45.12,7.254c-16.591,0-37.08-5.073-45.12-7.254
		c-3.103-0.842-6.396,0.381-8.197,3.042c-16.639,24.577-19.156,27.789-29.928,38.171c-8.554,8.246-19.193,7.971-29.187-0.752
		c-3.822-3.336-5.84-7.152-5.996-11.344c-0.194-5.184,2.508-11.008,7.412-15.978c2.353-2.385,4.433-4.445,6.298-6.292
		c7.26-7.19,11.642-11.53,16.181-19.155c1.944-3.267,1.145-7.471-1.863-9.797c-30.853-23.855-49.273-59.288-49.273-94.781
		c0-50.931,35.383-92.366,78.875-92.366c20.398,0,40.561,8.588,55.475,23.408c3.99,3.965,8.072,2.544,10.646,0
		c14.954-14.778,35.077-23.408,55.474-23.408c43.492,0,78.876,41.436,78.876,92.366c0,35.493-18.42,70.926-49.273,94.781
		c-3.007,2.326-3.807,6.53-1.863,9.797c4.539,7.625,8.921,11.965,16.18,19.155c1.865,1.847,3.945,3.906,6.298,6.292
		C270.635,253.847,273.337,259.67,273.143,264.854z"/>
</g>
<g>
</g>
<g>
</g>
<g>
</g>
<g>
</g>
<g>
</g>
<g>
</g>
<g>
</g>
<g>
</g>
<g>
</g>
<g>
</g>
<g>
</g>
<g>
</g>
<g>
</g>
<g>
</g>
<g>
</g>
</svg>
