<?xml version="1.0" encoding="iso-8859-1"?>
<!-- Generator: Adobe Illustrator 18.0.0, SVG Export Plug-In . SVG Version: 6.00 Build 0)  -->
<!DOCTYPE svg PUBLIC "-//W3C//DTD SVG 1.1//EN" "http://www.w3.org/Graphics/SVG/1.1/DTD/svg11.dtd">
<svg version="1.1" id="Capa_1" xmlns="http://www.w3.org/2000/svg" xmlns:xlink="http://www.w3.org/1999/xlink" x="0px" y="0px"
	 viewBox="0 0 315.719 315.719" style="enable-background:new 0 0 315.719 315.719;" xml:space="preserve">
<g>
	<g>
		<path style="fill:#EF8829;" d="M67.059,240.95c0.365,0.718,0.773,1.411,1.23,2.069C67.831,242.362,67.425,241.668,67.059,240.95z"
			/>
		<path style="fill:#EF8829;" d="M68.338,243.083c0.467,0.666,0.984,1.291,1.537,1.884
			C69.321,244.376,68.805,243.748,68.338,243.083z"/>
		<path style="fill:#EF8829;" d="M66.022,238.47c0.238,0.728,0.531,1.428,0.858,2.111C66.553,239.899,66.261,239.197,66.022,238.47z
			"/>
		<path style="fill:#EF8829;" d="M65.972,288.447c-0.238-0.747-0.412-1.523-0.549-2.31
			C65.559,286.925,65.734,287.699,65.972,288.447z"/>
		<path style="fill:#EF8829;" d="M65.339,285.587c-0.113-0.8-0.19-1.612-0.19-2.443C65.149,283.976,65.226,284.787,65.339,285.587z"
			/>
		<path style="fill:#EF8829;" d="M65.423,236.023c0.136,0.788,0.312,1.562,0.549,2.31C65.734,237.585,65.56,236.811,65.423,236.023z
			"/>
		<path style="fill:#EF8829;" d="M66.881,190.466c-0.328-0.682-0.621-1.384-0.859-2.112
			C66.26,189.083,66.553,189.784,66.881,190.466z"/>
		<path style="fill:#EF8829;" d="M65.149,233.03c0,0.831,0.078,1.642,0.19,2.443C65.226,234.673,65.149,233.862,65.149,233.03z"/>
		<path style="fill:#EF8829;" d="M68.289,192.905c-0.458-0.657-0.864-1.352-1.231-2.07
			C67.424,191.554,67.832,192.248,68.289,192.905z"/>
		<path style="fill:#EF8829;" d="M69.876,194.855c-0.555-0.593-1.071-1.222-1.539-1.888
			C68.804,193.634,69.322,194.261,69.876,194.855z"/>
		<path style="fill:#EF8829;" d="M66.881,290.694c-0.328-0.681-0.62-1.384-0.859-2.11C66.261,289.311,66.554,290.012,66.881,290.694
			z"/>
		<path style="fill:#EF8829;" d="M65.339,185.359c-0.113-0.8-0.19-1.612-0.19-2.443C65.149,183.747,65.226,184.559,65.339,185.359z"
			/>
		<path style="fill:#EF8829;" d="M65.972,188.219c-0.239-0.748-0.413-1.523-0.55-2.31C65.559,186.697,65.734,187.471,65.972,188.219
			z"/>
		<path style="fill:#EF8829;" d="M68.289,293.133c-0.458-0.657-0.864-1.352-1.231-2.07
			C67.424,291.782,67.832,292.475,68.289,293.133z"/>
		<path style="fill:#EF8829;" d="M240.952,167.288c0.717,0.366,1.41,0.771,2.066,1.228
			C242.361,168.059,241.669,167.653,240.952,167.288z"/>
		<path style="fill:#EF8829;" d="M238.479,116.14c0.723,0.238,1.422,0.528,2.1,0.854C239.9,116.668,239.202,116.377,238.479,116.14z
			"/>
		<path style="fill:#EF8829;" d="M243.088,118.455c0.662,0.466,1.287,0.98,1.878,1.531
			C244.374,119.435,243.75,118.92,243.088,118.455z"/>
		<path style="fill:#EF8829;" d="M243.088,168.568c0.662,0.466,1.287,0.98,1.878,1.531
			C244.374,169.549,243.75,169.034,243.088,168.568z"/>
		<path style="fill:#EF8829;" d="M250.57,82.688c0-5.001-2.114-9.507-5.482-12.706c1.862,1.773,3.339,3.947,4.286,6.385
			c-1.964-0.762-4.09-1.197-6.32-1.197c-0.743,0-1.529,0.054-2.329,0.16c-2.143,0.287-4.61-0.37-6.239-1.798
			c-1.629-1.427-2.86-3.487-2.86-5.654v-0.45c0-0.771,0.422-1.527,0.648-2.249c-0.609,0.017-1.078,0.043-1.72,0.128
			c-2.142,0.287-4.524-0.37-6.153-1.798c-1.629-1.427-2.775-3.487-2.775-5.653v-0.45c0-2.166,1.22-4.226,2.849-5.653
			c1.628-1.428,3.943-2.083,6.084-1.798c0.801,0.106,1.657,0.16,2.401,0.16c9.673,0,17.576-7.869,17.576-17.54
			c0-5-2.096-9.507-5.464-12.705c1.862,1.772,3.348,3.947,4.294,6.385c-1.964-0.762-4.086-1.197-6.316-1.197
			c-9.67,0-17.537,7.868-17.537,17.54c0,4.152-3.364,7.518-7.516,7.518c-4.151,0-7.517-3.366-7.517-7.518
			c0-0.973-0.099-1.92-0.252-2.85c0.138-0.043,0.264-0.11,0.398-0.161c-0.827,0.313-1.714,0.505-2.651,0.505
			c-4.151,0-7.518-3.365-7.518-7.517c0-5.001-2.114-9.508-5.482-12.706c1.862,1.773,3.34,3.947,4.286,6.386
			c-1.964-0.762-4.09-1.197-6.32-1.197c-9.67,0-17.54,7.868-17.54,17.54c0,4.152-3.365,7.518-7.517,7.518
			c-4.151,0-7.517-3.366-7.517-7.518c0-0.973-0.1-1.92-0.253-2.85c0.138-0.043,0.264-0.11,0.398-0.161
			c-0.827,0.313-1.714,0.505-2.651,0.505c-4.151,0-7.516-3.365-7.516-7.517c0-5.001-2.115-9.508-5.484-12.706
			c1.862,1.773,3.34,3.947,4.286,6.386c-1.964-0.762-4.09-1.197-6.32-1.197c-9.671,0-17.54,7.868-17.54,17.54
			c0,4.152-3.365,7.518-7.517,7.518c-4.151,0-7.518-3.366-7.518-7.518c0-0.973-0.099-1.92-0.253-2.85
			c0.137-0.043,0.264-0.11,0.398-0.161c-0.828,0.313-1.715,0.505-2.651,0.505c-4.151,0-7.517-3.365-7.517-7.517
			c0-5-2.114-9.507-5.482-12.705c1.862,1.772,3.339,3.947,4.285,6.385c-1.964-0.762-4.09-1.197-6.32-1.197
			c-9.671,0-17.54,7.868-17.54,17.54c0,2.23,0.434,4.356,1.197,6.32c-2.439-0.947-4.614-2.425-6.387-4.288
			c3.198,3.37,7.706,5.486,12.708,5.486c4.152,0,7.517,3.365,7.517,7.517c0,0.938-0.193,1.827-0.507,2.656
			c0.051-0.136,0.119-0.263,0.162-0.403c0.93,0.153,1.878,0.253,2.85,0.253c4.152,0,7.517,3.365,7.517,7.517
			s-3.365,7.517-7.517,7.517c-9.671,0-17.54,7.868-17.54,17.54c0,2.23,0.434,4.356,1.197,6.32c1.964,0.762,4.091,1.197,6.32,1.197
			c4.152,0,7.517,3.365,7.517,7.517c0,0.939-0.193,1.828-0.507,2.656c0.051-0.136,0.119-0.263,0.162-0.403
			c0.93,0.153,1.878,0.253,2.85,0.253c4.152,0,7.517,3.365,7.517,7.517c0,4.152-3.365,7.517-7.517,7.517
			c-9.671,0-17.54,7.868-17.54,17.54c0,2.23,0.434,4.356,1.197,6.32c1.964,0.762,4.091,1.197,6.32,1.197
			c4.152,0,7.517,3.365,7.517,7.518c0,0.939-0.193,1.828-0.507,2.656c0.052-0.136,0.119-0.264,0.163-0.403
			c0.93,0.153,1.878,0.252,2.85,0.252c4.152,0,7.517,3.365,7.517,7.517s-3.365,7.517-7.517,7.517c-9.671,0-17.54,7.868-17.54,17.54
			c0,2.23,0.434,4.356,1.197,6.32c-2.439-0.947-4.614-2.425-6.387-4.288c3.198,3.37,7.706,5.486,12.708,5.486
			c4.152,0,7.517,3.365,7.517,7.517c0,0.938-0.193,1.827-0.507,2.656c0.051-0.136,0.119-0.263,0.162-0.403
			c0.93,0.153,1.878,0.253,2.85,0.253c4.152,0,7.517,3.365,7.517,7.517s-3.365,7.517-7.517,7.517c-9.671,0-17.54,7.868-17.54,17.54
			c0,2.23,0.434,4.356,1.197,6.32c1.964,0.762,4.091,1.197,6.32,1.197c4.152,0,7.517,3.365,7.517,7.517
			c0,0.939-0.193,1.828-0.507,2.656c0.051-0.136,0.119-0.263,0.162-0.403c0.93,0.153,1.878,0.253,2.85,0.253
			c4.152,0,7.517,3.365,7.517,7.517c0,4.152-3.365,7.517-7.517,7.517c-9.671,0-17.54,7.868-17.54,17.54
			c0,2.23,0.434,4.356,1.197,6.32c-2.439-0.947-4.614-2.425-6.387-4.288c3.198,3.37,7.706,5.486,12.708,5.486
			c9.673,0,17.54-7.869,17.54-17.54c0-0.253-0.009-0.504-0.02-0.754c-0.085-2.046,0.669-4.037,2.086-5.515
			c1.418-1.478,3.376-2.313,5.424-2.313c2.048,0,4.035,0.836,5.452,2.314c1.417,1.477,2.199,3.47,2.113,5.516
			c-0.011,0.249-0.02,0.5-0.02,0.753c0,0.62,0.034,1.231,0.097,1.834c0.761-0.255,1.563-0.394,2.381-0.394
			c2.049,0,4.035,0.836,5.452,2.314c1.417,1.477,2.199,3.47,2.113,5.516c-0.011,0.249-0.02,0.5-0.02,0.752
			c0,2.23,0.434,4.356,1.197,6.32c-1.48-0.575-2.861-1.348-4.117-2.28c2.92,2.174,6.525,3.477,10.437,3.477
			c9.673,0,17.54-7.869,17.54-17.54c0-0.253-0.01-0.504-0.021-0.754c-0.085-2.046,0.669-4.037,2.086-5.515
			c1.418-1.478,3.377-2.313,5.424-2.313c2.048,0,4.034,0.836,5.452,2.314c1.417,1.477,2.199,3.47,2.113,5.516
			c-0.011,0.249-0.02,0.5-0.02,0.753c0,1.389,0.179,2.735,0.486,4.032c-0.17-0.718-0.31-1.448-0.388-2.197
			c0.76-0.255,1.562-0.394,2.38-0.394c2.049,0,4.035,0.836,5.452,2.314c1.417,1.477,2.199,3.47,2.113,5.516
			c-0.011,0.249-0.02,0.5-0.02,0.752c0,2.23,0.434,4.356,1.197,6.32c-1.48-0.575-2.861-1.348-4.117-2.28
			c2.92,2.174,6.525,3.477,10.437,3.477c9.673,0,17.54-7.869,17.54-17.54c0-0.253-0.009-0.504-0.02-0.754
			c-0.085-2.046,0.669-4.037,2.086-5.515c1.418-1.478,3.376-2.313,5.424-2.313c2.049,0,4.035,0.836,5.452,2.314
			c1.417,1.477,2.199,3.47,2.113,5.516c-0.011,0.249-0.02,0.5-0.02,0.753c0,1.389,0.179,2.734,0.486,4.03
			c-0.17-0.717-0.31-1.447-0.389-2.195c0.761-0.255,1.563-0.394,2.381-0.394c2.049,0,4.035,0.836,5.452,2.314
			c1.417,1.477,2.199,3.47,2.114,5.516c-0.011,0.249-0.021,0.5-0.021,0.752c0,2.23,0.434,4.356,1.197,6.32
			c-1.48-0.575-2.861-1.348-4.117-2.28c2.92,2.174,6.525,3.477,10.437,3.477c9.673,0,17.54-7.869,17.54-17.54
			c0-5-2.114-9.507-5.482-12.705c1.862,1.773,3.339,3.947,4.285,6.385c-1.964-0.763-4.09-1.197-6.32-1.197
			c-0.743,0-1.529,0.054-2.329,0.16c-2.143,0.289-4.61-0.369-6.239-1.798c-1.629-1.427-2.86-3.487-2.86-5.653v-0.45
			c0-0.772,0.422-1.527,0.648-2.249c-0.609,0.017-1.078,0.043-1.72,0.128c-2.142,0.289-4.524-0.369-6.153-1.798
			c-1.629-1.427-2.775-3.487-2.775-5.653v-0.45c0-2.166,1.22-4.227,2.849-5.654c1.628-1.428,3.943-2.082,6.084-1.798
			c0.801,0.106,1.657,0.16,2.401,0.16c9.673,0,17.576-7.868,17.576-17.54c0-5.001-2.096-9.507-5.465-12.706
			c1.862,1.773,3.348,3.947,4.295,6.386c-1.964-0.763-4.086-1.197-6.316-1.197c-0.743,0-1.526,0.054-2.327,0.16
			c-2.143,0.289-4.609-0.369-6.238-1.798c-1.629-1.427-2.859-3.487-2.859-5.654v-0.45c0-0.771,0.422-1.527,0.648-2.249
			c-0.609,0.017-1.078,0.043-1.72,0.128c-2.142,0.289-4.524-0.369-6.153-1.798c-1.629-1.427-2.775-3.487-2.775-5.653v-0.45
			c0-2.166,1.22-4.226,2.849-5.653c1.628-1.428,3.943-2.084,6.084-1.798c0.801,0.105,1.657,0.16,2.401,0.16
			c9.673,0,17.576-7.869,17.576-17.54c0-5-2.096-9.507-5.464-12.705c1.862,1.772,3.348,3.947,4.294,6.385
			c-1.964-0.762-4.086-1.197-6.316-1.197c-0.743,0-1.526,0.054-2.327,0.16c-2.143,0.288-4.609-0.369-6.238-1.798
			c-1.629-1.427-2.859-3.487-2.859-5.653v-0.45c0-0.772,0.422-1.528,0.648-2.249c-0.609,0.017-1.078,0.043-1.72,0.128
			c-2.142,0.288-4.524-0.369-6.153-1.798c-1.629-1.427-2.775-3.487-2.775-5.653v-0.45c0-2.166,1.22-4.226,2.849-5.653
			c1.628-1.429,3.943-2.085,6.084-1.798c0.801,0.106,1.657,0.159,2.401,0.159c9.673,0,17.576-7.868,17.576-17.54
			c0-5-2.096-9.507-5.464-12.705c1.862,1.773,3.348,3.947,4.294,6.385c-1.964-0.763-4.086-1.197-6.316-1.197
			c-0.743,0-1.526,0.054-2.327,0.16c-2.143,0.287-4.609-0.369-6.238-1.798c-1.629-1.427-2.859-3.487-2.859-5.653v-0.45
			c0-0.771,0.422-1.527,0.648-2.249c-0.609,0.017-1.078,0.043-1.72,0.128c-2.142,0.287-4.524-0.369-6.153-1.798
			c-1.629-1.427-2.775-3.487-2.775-5.653v-0.45c0-2.166,1.22-4.226,2.849-5.653c1.628-1.428,3.943-2.081,6.084-1.798
			c0.801,0.105,1.657,0.16,2.401,0.16C242.631,100.228,250.57,92.36,250.57,82.688z M124.078,234.427
			c-1.394,1.393-3.328,2.194-5.313,2.194c-1.974,0-3.908-0.802-5.312-2.194c-1.402-1.404-2.205-3.347-2.205-5.323
			c0-1.974,0.803-3.908,2.205-5.312c1.393-1.403,3.338-2.194,5.312-2.194c1.985,0,3.919,0.792,5.313,2.194
			c1.402,1.394,2.204,3.338,2.204,5.312C126.281,231.09,125.48,233.023,124.078,234.427z M124.078,163.175
			c-1.394,1.402-3.328,2.205-5.313,2.205c-1.974,0-3.919-0.803-5.312-2.205c-1.402-1.404-2.205-3.338-2.205-5.312
			c0-1.985,0.803-3.919,2.205-5.323c1.393-1.393,3.338-2.194,5.312-2.194c1.985,0,3.919,0.802,5.313,2.194
			c1.402,1.404,2.204,3.338,2.204,5.323C126.281,159.837,125.48,161.772,124.078,163.175z M124.087,91.923
			c-1.404,1.403-3.348,2.204-5.323,2.204c-1.974,0-3.919-0.802-5.312-2.204c-1.402-1.394-2.205-3.338-2.205-5.313
			c0-1.984,0.803-3.918,2.205-5.312c1.393-1.403,3.338-2.205,5.312-2.205c1.975,0,3.919,0.802,5.323,2.205
			c1.392,1.394,2.194,3.328,2.194,5.312C126.281,88.585,125.48,90.529,124.087,91.923z M163.176,234.427
			c-1.404,1.393-3.338,2.194-5.313,2.194c-1.974,0-3.918-0.802-5.322-2.194c-1.392-1.404-2.195-3.338-2.195-5.323
			c0-1.984,0.802-3.918,2.195-5.312c1.404-1.403,3.338-2.194,5.322-2.194c1.975,0,3.909,0.792,5.313,2.194
			c1.392,1.394,2.194,3.328,2.194,5.312C165.37,231.09,164.569,233.023,163.176,234.427z M163.176,163.175
			c-1.404,1.402-3.338,2.205-5.313,2.205c-1.985,0-3.918-0.803-5.322-2.205c-1.392-1.404-2.195-3.338-2.195-5.312
			c0-1.985,0.802-3.919,2.195-5.323c1.404-1.393,3.338-2.194,5.322-2.194c1.975,0,3.909,0.802,5.313,2.194
			c1.392,1.404,2.194,3.338,2.194,5.323C165.37,159.837,164.569,161.772,163.176,163.175z M163.176,91.923
			c-1.404,1.403-3.338,2.204-5.323,2.204c-1.974,0-3.908-0.802-5.312-2.204c-1.392-1.394-2.195-3.338-2.195-5.313
			c0-1.984,0.802-3.918,2.195-5.312c1.404-1.403,3.338-2.205,5.312-2.205c1.985,0,3.919,0.802,5.323,2.205
			c1.403,1.394,2.204,3.328,2.204,5.312C165.381,88.585,164.579,90.529,163.176,91.923z M202.265,234.427
			c-1.404,1.393-3.338,2.194-5.313,2.194c-1.984,0-3.918-0.802-5.311-2.194c-1.404-1.404-2.206-3.338-2.206-5.323
			c0-1.974,0.802-3.918,2.206-5.312c1.392-1.403,3.327-2.194,5.311-2.194c1.985,0,3.919,0.792,5.313,2.194
			c1.403,1.404,2.204,3.338,2.204,5.312C204.47,231.08,203.669,233.023,202.265,234.427z M202.265,163.175
			c-1.394,1.402-3.338,2.205-5.313,2.205c-1.974,0-3.918-0.803-5.311-2.205c-1.404-1.404-2.206-3.338-2.206-5.312
			c0-1.985,0.802-3.919,2.206-5.323c1.392-1.393,3.337-2.194,5.311-2.194c1.975,0,3.919,0.802,5.313,2.194
			c1.403,1.393,2.204,3.338,2.204,5.323C204.47,159.847,203.669,161.781,202.265,163.175z M202.265,91.923
			c-1.394,1.403-3.338,2.204-5.313,2.204c-1.984,0-3.918-0.802-5.311-2.204c-1.404-1.394-2.206-3.338-2.206-5.313
			c0-1.984,0.802-3.918,2.206-5.312c1.392-1.403,3.327-2.205,5.311-2.205c1.975,0,3.919,0.802,5.313,2.205
			c1.403,1.394,2.204,3.328,2.204,5.312C204.47,88.585,203.669,90.529,202.265,91.923z"/>
		<path style="fill:#EF8829;" d="M76.367,249.373c-2.438-0.947-4.612-2.425-6.385-4.287
			C71.754,246.953,73.927,248.425,76.367,249.373z"/>
		<path style="fill:#EF8829;" d="M235.473,115.453c-0.8-0.112-1.612-0.191-2.443-0.191
			C233.861,115.263,234.673,115.34,235.473,115.453z"/>
		<path style="fill:#EF8829;" d="M236.024,115.537c0.786,0.136,1.56,0.31,2.307,0.548
			C237.584,115.848,236.811,115.674,236.024,115.537z"/>
		<path style="fill:#EF8829;" d="M118.997,293.927c0.942,1.203,2.038,2.276,3.257,3.198
			C121.035,296.205,119.94,295.128,118.997,293.927z"/>
		<path style="fill:#EF8829;" d="M69.876,295.083c-0.555-0.593-1.071-1.222-1.539-1.888
			C68.804,293.862,69.322,294.489,69.876,295.083z"/>
		<path style="fill:#EF8829;" d="M118.831,293.704c-0.403-0.531-0.775-1.086-1.116-1.661
			C118.056,292.619,118.428,293.173,118.831,293.704z"/>
		<path style="fill:#EF8829;" d="M115.748,287.172c-0.169-0.715-0.308-1.442-0.387-2.188
			C115.439,285.731,115.579,286.457,115.748,287.172z"/>
		<path style="fill:#EF8829;" d="M116.482,289.524c-0.234-0.594-0.431-1.207-0.6-1.83
			C116.05,288.318,116.248,288.929,116.482,289.524z"/>
		<path style="fill:#EF8829;" d="M117.554,291.781c-0.366-0.642-0.694-1.309-0.978-1.998
			C116.86,290.473,117.189,291.138,117.554,291.781z"/>
		<path style="fill:#EF8829;" d="M240.952,117.174c0.717,0.366,1.41,0.771,2.066,1.228
			C242.361,117.945,241.669,117.539,240.952,117.174z"/>
		<path style="fill:#EF8829;" d="M140.723,16.945c0.717,0.366,1.411,0.771,2.067,1.229
			C142.133,17.717,141.441,17.311,140.723,16.945z"/>
		<path style="fill:#EF8829;" d="M132.802,15.034c0.831,0,1.643,0.078,2.443,0.19C134.445,15.112,133.633,15.034,132.802,15.034z"/>
		<path style="fill:#EF8829;" d="M90.609,16.945c0.717,0.366,1.411,0.772,2.067,1.229C92.019,17.717,91.327,17.311,90.609,16.945z"
			/>
		<path style="fill:#EF8829;" d="M188.363,15.911c0.724,0.238,1.423,0.529,2.103,0.855C189.786,16.44,189.088,16.148,188.363,15.911
			z"/>
		<path style="fill:#EF8829;" d="M185.91,15.309c0.786,0.136,1.562,0.311,2.308,0.549C187.47,15.62,186.697,15.445,185.91,15.309z"
			/>
		<path style="fill:#EF8829;" d="M92.744,18.225c0.662,0.467,1.289,0.981,1.879,1.533C94.031,19.206,93.407,18.691,92.744,18.225z"
			/>
		<path style="fill:#EF8829;" d="M82.688,15.034c0.831,0,1.643,0.078,2.443,0.19C84.33,15.112,83.52,15.034,82.688,15.034z"/>
		<path style="fill:#EF8829;" d="M138.249,15.911c0.724,0.238,1.423,0.529,2.103,0.855C139.672,16.44,138.973,16.148,138.249,15.911
			z"/>
		<path style="fill:#EF8829;" d="M135.796,15.309c0.786,0.136,1.56,0.31,2.307,0.548C137.356,15.62,136.583,15.445,135.796,15.309z"
			/>
		<path style="fill:#EF8829;" d="M142.858,18.225c0.662,0.467,1.289,0.981,1.881,1.534
			C144.147,19.207,143.522,18.691,142.858,18.225z"/>
		<path style="fill:#EF8829;" d="M243.088,18.226c0.662,0.466,1.287,0.98,1.878,1.531C244.374,19.206,243.75,18.692,243.088,18.226z
			"/>
		<path style="fill:#EF8829;" d="M190.837,16.945c0.717,0.366,1.411,0.772,2.067,1.229
			C192.247,17.717,191.555,17.311,190.837,16.945z"/>
		<path style="fill:#EF8829;" d="M233.031,15.034c0.831,0,1.643,0.078,2.443,0.19C234.673,15.112,233.861,15.034,233.031,15.034z"/>
		<path style="fill:#EF8829;" d="M238.479,15.911c0.723,0.237,1.422,0.528,2.1,0.854C239.9,16.44,239.202,16.149,238.479,15.911z"/>
		<path style="fill:#EF8829;" d="M240.952,16.945c0.717,0.366,1.41,0.771,2.066,1.228C242.361,17.717,241.669,17.311,240.952,16.945
			z"/>
		<path style="fill:#EF8829;" d="M192.972,18.225c0.663,0.467,1.29,0.981,1.881,1.534C194.261,19.207,193.636,18.691,192.972,18.225
			z"/>
		<path style="fill:#EF8829;" d="M182.916,15.034c0.831,0,1.643,0.078,2.443,0.19C184.559,15.112,183.748,15.034,182.916,15.034z"/>
		<path style="fill:#EF8829;" d="M236.024,15.309c0.786,0.136,1.56,0.31,2.307,0.548C237.584,15.62,236.811,15.445,236.024,15.309z"
			/>
		<path style="fill:#EF8829;" d="M69.876,44.513c-0.555-0.593-1.071-1.223-1.541-1.89C68.804,43.291,69.322,43.918,69.876,44.513z"
			/>
		<path style="fill:#EF8829;" d="M66.022,88.126c0.238,0.728,0.532,1.43,0.859,2.112C66.553,89.556,66.261,88.854,66.022,88.126z"/>
		<path style="fill:#EF8829;" d="M67.058,90.607c0.366,0.719,0.773,1.412,1.231,2.07C67.831,92.02,67.425,91.325,67.058,90.607z"/>
		<path style="fill:#EF8829;" d="M65.423,85.68c0.136,0.788,0.312,1.562,0.55,2.311C65.734,87.243,65.56,86.468,65.423,85.68z"/>
		<path style="fill:#EF8829;" d="M65.149,82.688c0,0.831,0.078,1.643,0.19,2.443C65.226,84.331,65.149,83.519,65.149,82.688z"/>
		<path style="fill:#EF8829;" d="M88.135,15.911c0.724,0.238,1.423,0.529,2.103,0.855C89.558,16.44,88.859,16.148,88.135,15.911z"/>
		<path style="fill:#EF8829;" d="M66.022,138.242c0.238,0.727,0.531,1.428,0.858,2.11C66.553,139.67,66.261,138.969,66.022,138.242z
			"/>
		<path style="fill:#EF8829;" d="M67.059,140.721c0.365,0.719,0.773,1.412,1.23,2.069C67.831,142.134,67.426,141.439,67.059,140.721
			z"/>
		<path style="fill:#EF8829;" d="M68.336,142.854c0.468,0.666,0.985,1.292,1.538,1.886C69.32,144.147,68.805,143.518,68.336,142.854
			z"/>
		<path style="fill:#EF8829;" d="M68.336,92.739c0.468,0.666,0.985,1.294,1.539,1.888C69.321,94.034,68.805,93.405,68.336,92.739z"
			/>
		<path style="fill:#EF8829;" d="M76.367,99.03c-2.439-0.947-4.613-2.425-6.386-4.288C71.753,96.61,73.926,98.083,76.367,99.03z"/>
		<path style="fill:#EF8829;" d="M76.367,149.145c-2.438-0.947-4.612-2.425-6.385-4.287
			C71.754,146.724,73.927,148.197,76.367,149.145z"/>
		<path style="fill:#EF8829;" d="M85.682,15.309c0.786,0.136,1.561,0.311,2.308,0.549C87.242,15.62,86.469,15.445,85.682,15.309z"/>
		<path style="fill:#EF8829;" d="M65.339,35.017c-0.113-0.8-0.19-1.612-0.19-2.443C65.149,33.405,65.226,34.216,65.339,35.017z"/>
		<path style="fill:#EF8829;" d="M65.423,135.795c0.136,0.788,0.312,1.562,0.549,2.31C65.734,137.357,65.56,136.582,65.423,135.795z
			"/>
		<path style="fill:#EF8829;" d="M68.29,42.564c-0.459-0.657-0.865-1.353-1.232-2.071C67.424,41.212,67.832,41.905,68.29,42.564z"/>
		<path style="fill:#EF8829;" d="M66.881,40.125c-0.328-0.682-0.62-1.384-0.859-2.111C66.261,38.741,66.554,39.442,66.881,40.125z"
			/>
		<path style="fill:#EF8829;" d="M65.972,37.877c-0.238-0.748-0.412-1.523-0.549-2.31C65.559,36.354,65.734,37.128,65.972,37.877z"
			/>
		<path style="fill:#EF8829;" d="M65.149,132.802c0,0.831,0.078,1.642,0.19,2.443C65.226,134.445,65.149,133.633,65.149,132.802z"/>
		<path style="fill:#EF8829;" d="M88.028,62.918c0.308-0.312,0.585-0.652,0.836-1.013C88.613,62.265,88.336,62.606,88.028,62.918z"
			/>
		<path style="fill:#EF8829;" d="M89.516,60.739c-0.132,0.289-0.286,0.564-0.451,0.832C89.231,61.302,89.385,61.028,89.516,60.739z"
			/>
		<path style="fill:#EF8829;" d="M88.028,163.146c0.308-0.312,0.586-0.652,0.836-1.014
			C88.614,162.493,88.336,162.834,88.028,163.146z"/>
		<path style="fill:#EF8829;" d="M86.63,64.007c-0.255,0.157-0.517,0.302-0.79,0.429C86.113,64.308,86.375,64.164,86.63,64.007z"/>
		<path style="fill:#EF8829;" d="M115.122,33.967c0.085-0.453,0.141-0.916,0.141-1.393
			C115.263,33.051,115.207,33.515,115.122,33.967z"/>
		<path style="fill:#EF8829;" d="M85.398,64.625c-0.291,0.113-0.591,0.202-0.897,0.279C84.808,64.827,85.108,64.738,85.398,64.625z"
			/>
		<path style="fill:#EF8829;" d="M113.204,37.716c0.243-0.258,0.47-0.528,0.675-0.818C113.675,37.187,113.447,37.458,113.204,37.716
			z"/>
		<path style="fill:#EF8829;" d="M114.123,36.512c0.156-0.253,0.3-0.513,0.426-0.784C114.422,35.999,114.279,36.259,114.123,36.512z
			"/>
		<path style="fill:#EF8829;" d="M114.74,35.282c0.112-0.289,0.201-0.588,0.277-0.893C114.94,34.694,114.852,34.993,114.74,35.282z"
			/>
		<path style="fill:#EF8829;" d="M87.836,113.2c-0.26,0.244-0.533,0.474-0.824,0.68C87.303,113.673,87.576,113.445,87.836,113.2z"/>
		<path style="fill:#EF8829;" d="M84.082,115.122c-0.453,0.085-0.916,0.141-1.394,0.141
			C83.166,115.263,83.629,115.207,84.082,115.122z"/>
		<path style="fill:#EF8829;" d="M86.628,114.122c-0.253,0.157-0.515,0.3-0.787,0.427C86.114,114.422,86.374,114.279,86.628,114.122
			z"/>
		<path style="fill:#EF8829;" d="M85.397,114.74c-0.289,0.112-0.59,0.201-0.895,0.277C84.808,114.941,85.107,114.852,85.397,114.74z
			"/>
		<path style="fill:#EF8829;" d="M84.082,65.008c-0.453,0.085-0.916,0.141-1.394,0.141C83.166,65.148,83.629,65.093,84.082,65.008z"
			/>
		<path style="fill:#EF8829;" d="M89.516,160.966c-0.132,0.289-0.286,0.566-0.452,0.834
			C89.23,161.531,89.385,161.256,89.516,160.966z"/>
		<path style="fill:#EF8829;" d="M89.516,110.853c-0.132,0.289-0.286,0.564-0.451,0.832
			C89.231,111.416,89.385,111.142,89.516,110.853z"/>
		<path style="fill:#EF8829;" d="M113.03,37.915c-0.31,0.307-0.65,0.584-1.01,0.834C112.38,38.499,112.72,38.222,113.03,37.915z"/>
		<path style="fill:#EF8829;" d="M88.028,113.031c0.308-0.311,0.585-0.652,0.836-1.013C88.614,112.379,88.337,112.72,88.028,113.031
			z"/>
		<path style="fill:#EF8829;" d="M87.838,63.083c-0.26,0.246-0.534,0.477-0.828,0.683C87.304,63.559,87.578,63.329,87.838,63.083z"
			/>
		<path style="fill:#EF8829;" d="M243.088,68.341c0.662,0.467,1.288,0.98,1.878,1.532C244.375,69.321,243.751,68.807,243.088,68.341
			z"/>
		<path style="fill:#EF8829;" d="M211.085,39.4c0.285-0.13,0.555-0.281,0.82-0.445C211.641,39.118,211.369,39.27,211.085,39.4z"/>
		<path style="fill:#EF8829;" d="M213.258,37.915c-0.31,0.307-0.65,0.584-1.01,0.834C212.608,38.499,212.948,38.222,213.258,37.915z
			"/>
		<path style="fill:#EF8829;" d="M213.432,37.717c0.244-0.258,0.471-0.529,0.676-0.819
			C213.903,37.187,213.675,37.459,213.432,37.717z"/>
		<path style="fill:#EF8829;" d="M214.35,36.513c0.157-0.253,0.3-0.513,0.426-0.785C214.651,35.999,214.507,36.26,214.35,36.513z"/>
		<path style="fill:#EF8829;" d="M236.024,65.423c0.786,0.136,1.56,0.31,2.307,0.548C237.584,65.734,236.811,65.559,236.024,65.423z
			"/>
		<path style="fill:#EF8829;" d="M235.473,65.339c-0.8-0.112-1.612-0.19-2.443-0.19C233.861,65.148,234.673,65.226,235.473,65.339z"
			/>
		<path style="fill:#EF8829;" d="M240.952,67.06c0.717,0.366,1.41,0.771,2.066,1.228C242.361,67.831,241.669,67.425,240.952,67.06z"
			/>
		<path style="fill:#EF8829;" d="M238.479,66.025c0.723,0.237,1.422,0.528,2.1,0.854C239.9,66.554,239.202,66.263,238.479,66.025z"
			/>
		<path style="fill:#EF8829;" d="M164.236,36.514c0.157-0.254,0.3-0.514,0.427-0.787C164.536,35.999,164.393,36.261,164.236,36.514z
			"/>
		<path style="fill:#EF8829;" d="M163.318,37.716c0.243-0.258,0.47-0.529,0.676-0.819C163.789,37.187,163.561,37.458,163.318,37.716
			z"/>
		<path style="fill:#EF8829;" d="M110.857,39.4c0.285-0.13,0.555-0.281,0.82-0.445C111.412,39.118,111.141,39.27,110.857,39.4z"/>
		<path style="fill:#EF8829;" d="M164.853,35.283c0.113-0.29,0.202-0.589,0.278-0.895C165.055,34.694,164.965,34.993,164.853,35.283
			z"/>
		<path style="fill:#EF8829;" d="M165.236,33.968c0.085-0.453,0.141-0.916,0.141-1.394
			C165.377,33.052,165.321,33.515,165.236,33.968z"/>
		<path style="fill:#EF8829;" d="M214.968,35.282c0.112-0.29,0.201-0.589,0.277-0.895C215.169,34.694,215.08,34.993,214.968,35.282z
			"/>
		<path style="fill:#EF8829;" d="M238.479,166.254c0.723,0.237,1.422,0.528,2.1,0.854
			C239.9,166.782,239.202,166.491,238.479,166.254z"/>
		<path style="fill:#EF8829;" d="M160.971,39.4c0.285-0.13,0.555-0.281,0.819-0.445C161.527,39.118,161.255,39.27,160.971,39.4z"/>
		<path style="fill:#EF8829;" d="M163.144,37.915c-0.31,0.307-0.65,0.584-1.01,0.834C162.494,38.499,162.834,38.222,163.144,37.915z
			"/>
		<path style="fill:#EF8829;" d="M215.35,33.968c0.085-0.453,0.141-0.916,0.141-1.394C215.491,33.052,215.435,33.515,215.35,33.968z
			"/>
		<path style="fill:#EF8829;" d="M240.952,267.516c0.717,0.366,1.41,0.771,2.066,1.228
			C242.361,268.287,241.669,267.881,240.952,267.516z"/>
		<path style="fill:#EF8829;" d="M168.945,293.704c-0.403-0.532-0.776-1.087-1.118-1.663
			C168.169,292.618,168.542,293.172,168.945,293.704z"/>
		<path style="fill:#EF8829;" d="M235.473,265.795c-0.8-0.112-1.612-0.191-2.443-0.191
			C233.861,265.605,234.673,265.683,235.473,265.795z"/>
		<path style="fill:#EF8829;" d="M238.479,266.482c0.723,0.238,1.422,0.528,2.1,0.854
			C239.9,267.011,239.202,266.719,238.479,266.482z"/>
		<path style="fill:#EF8829;" d="M236.024,265.88c0.786,0.136,1.56,0.31,2.307,0.548
			C237.584,266.191,236.811,266.016,236.024,265.88z"/>
		<path style="fill:#EF8829;" d="M216.109,287.692c0.168,0.625,0.367,1.237,0.6,1.833
			C216.475,288.929,216.278,288.316,216.109,287.692z"/>
		<path style="fill:#EF8829;" d="M169.111,293.927c0.942,1.203,2.038,2.276,3.257,3.198
			C171.149,296.205,170.054,295.128,169.111,293.927z"/>
		<path style="fill:#EF8829;" d="M219.059,293.704c-0.403-0.531-0.775-1.086-1.116-1.661
			C218.284,292.619,218.656,293.173,219.059,293.704z"/>
		<path style="fill:#EF8829;" d="M216.804,289.783c0.284,0.69,0.613,1.355,0.978,1.998
			C217.416,291.138,217.088,290.472,216.804,289.783z"/>
		<path style="fill:#EF8829;" d="M219.226,293.927c0.942,1.203,2.038,2.276,3.257,3.198
			C221.263,296.205,220.168,295.128,219.226,293.927z"/>
		<path style="fill:#EF8829;" d="M235.473,165.567c-0.8-0.112-1.612-0.19-2.443-0.19
			C233.861,165.377,234.673,165.455,235.473,165.567z"/>
		<path style="fill:#EF8829;" d="M243.088,218.683c0.662,0.467,1.288,0.98,1.878,1.532
			C244.375,219.663,243.751,219.149,243.088,218.683z"/>
		<path style="fill:#EF8829;" d="M240.952,217.402c0.717,0.366,1.41,0.771,2.066,1.228
			C242.361,218.173,241.669,217.767,240.952,217.402z"/>
		<path style="fill:#EF8829;" d="M243.088,268.797c0.662,0.466,1.287,0.98,1.878,1.531
			C244.374,269.777,243.75,269.263,243.088,268.797z"/>
		<path style="fill:#EF8829;" d="M236.024,165.651c0.786,0.136,1.56,0.31,2.307,0.548
			C237.584,165.962,236.811,165.788,236.024,165.651z"/>
		<path style="fill:#EF8829;" d="M238.479,216.368c0.723,0.237,1.422,0.528,2.1,0.854
			C239.9,216.896,239.202,216.605,238.479,216.368z"/>
		<path style="fill:#EF8829;" d="M235.473,215.681c-0.8-0.112-1.612-0.19-2.443-0.19
			C233.861,215.491,234.673,215.569,235.473,215.681z"/>
		<path style="fill:#EF8829;" d="M236.024,215.766c0.786,0.136,1.56,0.31,2.307,0.548
			C237.584,216.076,236.811,215.902,236.024,215.766z"/>
		<path style="fill:#EF8829;" d="M89.516,211.081c-0.132,0.289-0.286,0.564-0.451,0.832
			C89.231,211.645,89.385,211.37,89.516,211.081z"/>
		<path style="fill:#EF8829;" d="M87.838,213.425c-0.26,0.246-0.534,0.477-0.828,0.683
			C87.304,213.901,87.578,213.671,87.838,213.425z"/>
		<path style="fill:#EF8829;" d="M88.028,213.26c0.308-0.312,0.585-0.652,0.836-1.013C88.613,212.608,88.336,212.948,88.028,213.26z
			"/>
		<path style="fill:#EF8829;" d="M86.63,214.349c-0.255,0.157-0.517,0.302-0.79,0.429C86.113,214.65,86.375,214.507,86.63,214.349z"
			/>
		<path style="fill:#EF8829;" d="M87.838,163.311c-0.26,0.246-0.534,0.476-0.828,0.683
			C87.304,163.787,87.578,163.557,87.838,163.311z"/>
		<path style="fill:#EF8829;" d="M166.689,289.781c0.284,0.691,0.614,1.357,0.98,2.001
			C167.302,291.139,166.974,290.472,166.689,289.781z"/>
		<path style="fill:#EF8829;" d="M85.398,214.967c-0.291,0.113-0.591,0.202-0.897,0.279
			C84.808,215.169,85.108,215.08,85.398,214.967z"/>
		<path style="fill:#EF8829;" d="M86.63,164.235c-0.255,0.157-0.517,0.302-0.79,0.429C86.113,164.536,86.375,164.393,86.63,164.235z
			"/>
		<path style="fill:#EF8829;" d="M85.398,164.853c-0.291,0.113-0.591,0.202-0.897,0.279
			C84.808,165.055,85.108,164.966,85.398,164.853z"/>
		<path style="fill:#EF8829;" d="M84.082,165.236c-0.453,0.085-0.916,0.141-1.394,0.141
			C83.166,165.377,83.629,165.321,84.082,165.236z"/>
		<path style="fill:#EF8829;" d="M84.082,215.35c-0.453,0.085-0.916,0.141-1.394,0.141C83.166,215.491,83.629,215.435,84.082,215.35
			z"/>
		<path style="fill:#EF8829;" d="M86.628,264.464c-0.253,0.157-0.515,0.3-0.787,0.427C86.114,264.764,86.374,264.621,86.628,264.464
			z"/>
		<path style="fill:#EF8829;" d="M85.397,265.082c-0.289,0.112-0.59,0.201-0.895,0.277
			C84.808,265.283,85.107,265.194,85.397,265.082z"/>
		<path style="fill:#EF8829;" d="M165.995,287.689c0.168,0.628,0.367,1.241,0.602,1.839
			C166.362,288.931,166.164,288.316,165.995,287.689z"/>
		<path style="fill:#EF8829;" d="M84.082,265.464c-0.453,0.085-0.916,0.141-1.394,0.141
			C83.166,265.605,83.629,265.549,84.082,265.464z"/>
		<path style="fill:#EF8829;" d="M89.516,261.195c-0.132,0.289-0.286,0.564-0.451,0.832
			C89.231,261.759,89.385,261.484,89.516,261.195z"/>
		<path style="fill:#EF8829;" d="M87.836,263.542c-0.26,0.244-0.533,0.474-0.824,0.68C87.303,264.016,87.576,263.787,87.836,263.542
			z"/>
		<path style="fill:#EF8829;" d="M88.028,263.373c0.308-0.311,0.585-0.652,0.836-1.013
			C88.614,262.721,88.337,263.062,88.028,263.373z"/>
	</g>
	<path style="fill:#3F2D20;" d="M118.764,79.093c-1.974,0-3.919,0.802-5.312,2.205c-1.403,1.394-2.205,3.328-2.205,5.312
		c0,1.975,0.802,3.919,2.205,5.313c1.393,1.403,3.338,2.204,5.312,2.204c1.975,0,3.919-0.801,5.323-2.204
		c1.393-1.394,2.194-3.338,2.194-5.313c0-1.984-0.801-3.918-2.194-5.312C122.684,79.896,120.74,79.093,118.764,79.093z"/>
	<path style="fill:#3F2D20;" d="M118.764,150.346c-1.974,0-3.919,0.802-5.312,2.195c-1.403,1.404-2.205,3.338-2.205,5.323
		c0,1.974,0.802,3.908,2.205,5.312c1.393,1.402,3.338,2.205,5.312,2.205c1.985,0,3.919-0.803,5.313-2.205
		c1.403-1.404,2.204-3.338,2.204-5.312c0-1.985-0.801-3.919-2.204-5.323C122.684,151.148,120.749,150.346,118.764,150.346z"/>
	<path style="fill:#3F2D20;" d="M118.764,221.598c-1.974,0-3.919,0.792-5.312,2.194c-1.403,1.404-2.205,3.338-2.205,5.312
		c0,1.975,0.802,3.919,2.205,5.323c1.404,1.393,3.338,2.195,5.312,2.195c1.985,0,3.919-0.802,5.313-2.195
		c1.403-1.404,2.204-3.338,2.204-5.323c0-1.974-0.801-3.918-2.204-5.312C122.684,222.39,120.749,221.598,118.764,221.598z"/>
	<path style="fill:#3F2D20;" d="M196.952,79.093c-1.984,0-3.918,0.802-5.311,2.205c-1.404,1.394-2.206,3.328-2.206,5.312
		c0,1.975,0.802,3.919,2.206,5.313c1.393,1.403,3.327,2.204,5.311,2.204c1.975,0,3.919-0.801,5.313-2.204
		c1.403-1.394,2.204-3.338,2.204-5.313c0-1.984-0.801-3.918-2.204-5.312C200.871,79.896,198.927,79.093,196.952,79.093z"/>
	<path style="fill:#3F2D20;" d="M196.952,150.346c-1.973,0-3.918,0.802-5.311,2.195c-1.404,1.404-2.206,3.338-2.206,5.323
		c0,1.974,0.802,3.908,2.206,5.312c1.393,1.402,3.338,2.205,5.311,2.205c1.975,0,3.919-0.803,5.313-2.205
		c1.403-1.394,2.204-3.328,2.204-5.312c0-1.985-0.801-3.93-2.204-5.323C200.871,151.148,198.927,150.346,196.952,150.346z"/>
	<path style="fill:#3F2D20;" d="M196.952,221.598c-1.984,0-3.918,0.792-5.311,2.194c-1.404,1.394-2.206,3.338-2.206,5.312
		c0,1.985,0.802,3.919,2.206,5.323c1.393,1.393,3.327,2.195,5.311,2.195c1.975,0,3.909-0.802,5.313-2.195
		c1.403-1.404,2.204-3.347,2.204-5.323c0-1.974-0.801-3.908-2.204-5.312C200.871,222.39,198.937,221.598,196.952,221.598z"/>
	<path style="fill:#3F2D20;" d="M157.853,79.093c-1.974,0-3.908,0.802-5.312,2.205c-1.393,1.394-2.195,3.328-2.195,5.312
		c0,1.975,0.802,3.919,2.195,5.313c1.404,1.403,3.338,2.204,5.312,2.204c1.985,0,3.919-0.801,5.323-2.204
		c1.403-1.394,2.204-3.338,2.204-5.313c0-1.984-0.801-3.918-2.204-5.312C161.772,79.896,159.838,79.093,157.853,79.093z"/>
	<path style="fill:#3F2D20;" d="M157.863,150.346c-1.984,0-3.918,0.802-5.322,2.195c-1.393,1.404-2.195,3.338-2.195,5.323
		c0,1.974,0.802,3.908,2.195,5.312c1.404,1.402,3.338,2.205,5.322,2.205c1.975,0,3.909-0.803,5.313-2.205
		c1.393-1.404,2.194-3.338,2.194-5.312c0-1.985-0.801-3.919-2.194-5.323C161.772,151.148,159.838,150.346,157.863,150.346z"/>
	<path style="fill:#3F2D20;" d="M157.863,221.598c-1.984,0-3.918,0.792-5.322,2.194c-1.393,1.394-2.195,3.328-2.195,5.312
		c0,1.985,0.802,3.919,2.195,5.323c1.404,1.393,3.348,2.195,5.322,2.195c1.975,0,3.909-0.802,5.313-2.195
		c1.393-1.404,2.194-3.338,2.194-5.323c0-1.984-0.801-3.918-2.194-5.312C161.772,222.39,159.838,221.598,157.863,221.598z"/>
	<path style="fill:#3F2D20;" d="M265.605,82.688c0-10.064-4.589-19.078-11.782-25.057c7.193-5.979,11.782-14.993,11.782-25.057
		C265.605,14.612,250.992,0,233.031,0c-10.064,0-19.077,4.588-25.057,11.782C201.994,4.588,192.98,0,182.917,0
		c-10.064,0-19.077,4.588-25.057,11.782C151.88,4.588,142.866,0,132.802,0c-10.064,0-19.077,4.588-25.057,11.782
		C101.766,4.588,92.752,0,82.688,0C64.727,0,50.114,14.612,50.114,32.574c0,10.064,4.588,19.078,11.783,25.057
		c-7.194,5.979-11.783,14.993-11.783,25.057c0,10.064,4.588,19.078,11.783,25.057c-7.194,5.979-11.783,14.993-11.783,25.057
		c0,10.064,4.588,19.078,11.783,25.057c-7.194,5.979-11.783,14.993-11.783,25.057c0,10.064,4.588,19.078,11.783,25.057
		c-7.194,5.979-11.783,14.993-11.783,25.057c0,10.064,4.588,19.078,11.783,25.057c-7.194,5.98-11.783,14.993-11.783,25.057
		c0,17.962,14.613,32.574,32.574,32.574c10.064,0,19.078-4.589,25.057-11.782c5.981,7.193,14.993,11.782,25.057,11.782
		c10.064,0,19.078-4.589,25.057-11.782c5.98,7.193,14.993,11.782,25.057,11.782c10.064,0,19.078-4.589,25.057-11.782
		c5.981,7.193,14.993,11.782,25.057,11.782c17.962,0,32.574-14.612,32.574-32.574c0-10.064-4.589-19.078-11.782-25.057
		c7.193-5.979,11.782-14.993,11.782-25.057c0-10.064-4.589-19.078-11.782-25.057c7.193-5.979,11.782-14.993,11.782-25.057
		c0-10.064-4.589-19.078-11.782-25.057c7.193-5.979,11.782-14.993,11.782-25.057c0-10.064-4.589-19.078-11.782-25.057
		C261.016,101.766,265.605,92.752,265.605,82.688z M233.031,250.57c-0.744,0-1.529-0.054-2.33-0.16
		c-2.141-0.284-4.313,0.37-5.941,1.798c-1.629,1.427-2.563,3.487-2.563,5.654v0.45c0,2.166,0.934,4.226,2.563,5.653
		c1.63,1.429,3.799,2.087,5.941,1.798c0.801-0.106,1.586-0.16,2.33-0.16c9.672,0,17.54,7.868,17.54,17.54s-7.867,17.54-17.54,17.54
		c-9.67,0-17.54-7.869-17.54-17.54c0-0.253,0.01-0.503,0.02-0.753c0.085-2.046-0.696-4.038-2.113-5.515
		c-1.417-1.478-3.403-2.314-5.452-2.314c-2.048,0-4.006,0.835-5.425,2.313c-1.417,1.478-2.171,3.47-2.086,5.515
		c0.011,0.25,0.02,0.501,0.02,0.754c0,9.671-7.867,17.54-17.54,17.54c-9.671,0-17.54-7.869-17.54-17.54
		c0-0.253,0.01-0.503,0.02-0.753c0.085-2.046-0.696-4.038-2.113-5.515c-1.417-1.478-3.403-2.314-5.452-2.314
		c-2.047,0-4.006,0.835-5.424,2.313c-1.417,1.478-2.171,3.47-2.086,5.515c0.011,0.25,0.021,0.501,0.021,0.754
		c0,9.671-7.868,17.54-17.54,17.54c-9.67,0-17.54-7.869-17.54-17.54c0-0.253,0.01-0.503,0.02-0.753
		c0.085-2.046-0.696-4.038-2.113-5.515c-1.417-1.478-3.403-2.314-5.452-2.314c-2.048,0-4.006,0.835-5.424,2.313
		c-1.417,1.478-2.171,3.47-2.086,5.515c0.011,0.25,0.02,0.501,0.02,0.754c0,9.671-7.867,17.54-17.54,17.54
		c-9.671,0-17.54-7.869-17.54-17.54s7.87-17.54,17.54-17.54c4.152,0,7.517-3.365,7.517-7.517c0-4.152-3.365-7.517-7.517-7.517
		c-9.671,0-17.54-7.868-17.54-17.54c0-9.672,7.87-17.54,17.54-17.54c4.152,0,7.517-3.365,7.517-7.517
		c0-4.152-3.365-7.517-7.517-7.517c-9.671,0-17.54-7.868-17.54-17.54c0-9.671,7.87-17.54,17.54-17.54
		c4.152,0,7.517-3.365,7.517-7.517c0-4.152-3.365-7.517-7.517-7.517c-9.671,0-17.54-7.868-17.54-17.54s7.87-17.54,17.54-17.54
		c4.152,0,7.517-3.365,7.517-7.517c0-4.152-3.365-7.517-7.517-7.517c-9.671,0-17.54-7.868-17.54-17.54
		c0-9.672,7.87-17.54,17.54-17.54c4.152,0,7.517-3.365,7.517-7.517s-3.365-7.517-7.517-7.517c-9.671,0-17.54-7.869-17.54-17.54
		s7.87-17.54,17.54-17.54c9.672,0,17.54,7.868,17.54,17.54c0,4.152,3.366,7.517,7.517,7.517c4.152,0,7.517-3.365,7.517-7.517
		c0-9.671,7.87-17.54,17.54-17.54c9.672,0,17.54,7.868,17.54,17.54c0,4.152,3.366,7.517,7.517,7.517
		c4.152,0,7.517-3.365,7.517-7.517c0-9.671,7.87-17.54,17.54-17.54c9.672,0,17.54,7.868,17.54,17.54
		c0,4.152,3.366,7.517,7.517,7.517c4.152,0,7.517-3.365,7.517-7.517c0-9.671,7.87-17.54,17.54-17.54
		c9.672,0,17.54,7.868,17.54,17.54s-7.867,17.54-17.54,17.54c-0.744,0-1.529-0.054-2.33-0.16c-2.141-0.285-4.313,0.37-5.941,1.798
		c-1.629,1.427-2.563,3.487-2.563,5.653v0.45c0,2.166,0.934,4.226,2.563,5.653c1.63,1.428,3.799,2.085,5.941,1.798
		c0.801-0.106,1.586-0.16,2.33-0.16c9.672,0,17.54,7.868,17.54,17.54c0,9.671-7.867,17.54-17.54,17.54
		c-0.744,0-1.529-0.054-2.33-0.16c-2.141-0.283-4.313,0.37-5.941,1.798c-1.629,1.427-2.563,3.487-2.563,5.653v0.45
		c0,2.166,0.934,4.226,2.563,5.653c1.63,1.429,3.799,2.086,5.941,1.798c0.801-0.106,1.586-0.16,2.33-0.16
		c9.672,0,17.54,7.868,17.54,17.54s-7.867,17.54-17.54,17.54c-0.744,0-1.529-0.054-2.33-0.16c-2.141-0.287-4.313,0.369-5.941,1.798
		c-1.629,1.427-2.563,3.487-2.563,5.653v0.45c0,2.166,0.934,4.226,2.563,5.653c1.63,1.429,3.799,2.086,5.941,1.798
		c0.801-0.106,1.586-0.16,2.33-0.16c9.672,0,17.54,7.868,17.54,17.54c0,9.672-7.867,17.54-17.54,17.54
		c-0.744,0-1.529-0.054-2.33-0.16c-2.141-0.286-4.313,0.37-5.941,1.798c-1.629,1.427-2.563,3.487-2.563,5.653v0.45
		c0,2.166,0.934,4.226,2.563,5.653c1.63,1.429,3.799,2.087,5.941,1.798c0.801-0.106,1.586-0.16,2.33-0.16
		c9.672,0,17.54,7.868,17.54,17.54C250.57,242.702,242.703,250.57,233.031,250.57z"/>
</g>
<g>
</g>
<g>
</g>
<g>
</g>
<g>
</g>
<g>
</g>
<g>
</g>
<g>
</g>
<g>
</g>
<g>
</g>
<g>
</g>
<g>
</g>
<g>
</g>
<g>
</g>
<g>
</g>
<g>
</g>
</svg>
