<?xml version="1.0" encoding="iso-8859-1"?>
<!-- Generator: Adobe Illustrator 18.0.0, SVG Export Plug-In . SVG Version: 6.00 Build 0)  -->
<!DOCTYPE svg PUBLIC "-//W3C//DTD SVG 1.1//EN" "http://www.w3.org/Graphics/SVG/1.1/DTD/svg11.dtd">
<svg version="1.1" id="Capa_1" xmlns="http://www.w3.org/2000/svg" xmlns:xlink="http://www.w3.org/1999/xlink" x="0px" y="0px"
	 viewBox="0 0 399.855 399.855" style="enable-background:new 0 0 399.855 399.855;" xml:space="preserve">
<g>
	<path style="fill:#84BD93;" d="M202.749,44.997V15.042h-5.644v29.956c0.937-0.047,1.877-0.076,2.821-0.076
		C200.87,44.921,201.81,44.95,202.749,44.997z"/>
	<g>
		<path style="fill:#CE593F;" d="M205.438,384.63c-1.788,0.108-3.589,0.184-5.418,0.184
			C201.849,384.814,203.65,384.739,205.438,384.63z"/>
		<path style="fill:#CE593F;" d="M256.735,202.194c-11.445-27.783-22.27-54.093-18.142-93.386
			c-6.708-4.087-14.117-8.022-19.43-9.609l-13.58,15.233c-1.345,1.536-3.052,2.293-5.655,2.293h-0.003c-0.001,0-1.324,0-1.324,0
			v0.472c0-0.002-3.509-0.833-4.994-2.529l-13.24-15.478l3.098,3.359c-3.648,1.785-7.491,3.98-11.255,6.265
			c4.125,39.288-6.659,65.598-18.102,93.378c-11.167,27.11-22.694,55.143-22.694,99.705c0,46.134,30.818,80.102,74.015,82.733
			c43.199-2.63,74.013-36.598,74.013-82.732C279.444,257.335,267.902,229.304,256.735,202.194z M189.482,363.685
			c-0.863,3.406-3.909,5.68-7.268,5.68c-0.596,0-1.203-0.071-1.809-0.221c-0.587-0.145-14.537-3.705-27.15-16.318
			c-11.486-11.487-24.155-32.946-19.278-69.954c0.542-4.119,4.332-7.015,8.438-6.474c4.118,0.542,7.016,4.32,6.474,8.438
			c-7.634,57.938,33.416,69.263,35.168,69.717C188.063,355.591,190.497,359.674,189.482,363.685z"/>
	</g>
	<g>
		<path style="fill:#84BD93;" d="M217.088,63.816c0.279,0.128,0.557,0.258,0.834,0.392
			C217.645,64.073,217.367,63.944,217.088,63.816z"/>
		<path style="fill:#84BD93;" d="M220.675,65.645c0.144,0.083,0.283,0.175,0.427,0.259
			C220.958,65.819,220.819,65.727,220.675,65.645z"/>
		<path style="fill:#84BD93;" d="M214.13,62.571c0.093,0.034,0.183,0.076,0.275,0.111C214.313,62.647,214.223,62.605,214.13,62.571z
			"/>
		<path style="fill:#84BD93;" d="M226.71,69.74c0.181,0.144,0.354,0.299,0.533,0.446C227.064,70.039,226.891,69.884,226.71,69.74z"
			/>
		<path style="fill:#84BD93;" d="M232.676,75.351c-0.181-0.199-0.354-0.406-0.538-0.601
			C232.322,74.946,232.496,75.152,232.676,75.351z"/>
		<path style="fill:#84BD93;" d="M223.408,67.35c0.282,0.188,0.563,0.377,0.841,0.571C223.971,67.727,223.69,67.538,223.408,67.35z"
			/>
		<path style="fill:#84BD93;" d="M229.175,71.851c0.273,0.248,0.546,0.496,0.814,0.75C229.72,72.347,229.448,72.099,229.175,71.851z
			"/>
		<path style="fill:#84BD93;" d="M210.315,61.364c0.272,0.073,0.544,0.148,0.814,0.226
			C210.859,61.512,210.588,61.437,210.315,61.364z"/>
		<path style="fill:#84BD93;" d="M166.427,88.799c1-0.477,2.001-0.93,2.999-1.364C168.428,87.869,167.427,88.322,166.427,88.799z"/>
		<path style="fill:#84BD93;" d="M207.18,60.636c0.038,0.007,0.076,0.017,0.114,0.024C207.256,60.653,207.218,60.643,207.18,60.636z
			"/>
		<path style="fill:#84BD93;" d="M233.706,76.541c-7.039-4.755-15.213-7.553-23.752-7.553c-12.646,0-24.49,6.133-33.029,15.684
			c-0.032,0.009-0.064,0.021-0.096,0.031c2.137-0.621,4.184-1.05,6.067-1.203c2.368-0.197,4.696,0.751,6.264,2.541l10.765,12.293
			l10.766-12.293c1.568-1.79,3.888-2.739,6.264-2.541c7.755,0.628,18.227,5.798,26.759,10.812
			C241.57,87.717,238.096,81.677,233.706,76.541z"/>
		<path style="fill:#84BD93;" d="M172.549,86.164c-0.655,0.25-1.312,0.515-1.973,0.79C171.237,86.678,171.895,86.414,172.549,86.164
			z"/>
		<path style="fill:#84BD93;" d="M175.835,85.018c-0.674,0.212-1.351,0.434-2.039,0.681
			C174.484,85.452,175.162,85.23,175.835,85.018z"/>
		<path style="fill:#84BD93;" d="M160.012,92.114c0.711-0.391,1.429-0.778,2.152-1.16C161.439,91.337,160.723,91.722,160.012,92.114
			z"/>
		<path style="fill:#84BD93;" d="M203.188,60.115c0.269,0.022,0.538,0.047,0.806,0.075
			C203.725,60.162,203.457,60.138,203.188,60.115z"/>
		<path style="fill:#84BD93;" d="M156.139,94.311c0.951-0.559,1.934-1.119,2.928-1.676
			C158.073,93.192,157.092,93.751,156.139,94.311z"/>
		<path style="fill:#84BD93;" d="M163.247,90.385c0.806-0.416,1.616-0.82,2.429-1.216C164.863,89.566,164.053,89.97,163.247,90.385z
			"/>
	</g>
	<path style="fill:#3F2D20;" d="M184.057,354.553c-1.752-0.453-42.803-11.779-35.168-69.717c0.542-4.118-2.356-7.896-6.474-8.438
		c-4.106-0.542-7.896,2.355-8.438,6.474c-4.877,37.007,7.792,58.467,19.278,69.954c12.613,12.613,26.563,16.174,27.15,16.318
		c0.606,0.15,1.212,0.221,1.809,0.221c3.359,0,6.406-2.275,7.268-5.681C190.497,359.674,188.062,355.591,184.057,354.553z"/>
	<path style="fill:#3F2D20;" d="M270.643,196.465c-10.414-25.28-19.544-47.473-17.656-79.238c1.409,0.136,2.853-0.117,4.158-0.789
		c2.506-1.289,4.083-3.869,4.083-6.687c0-16.283-6.463-32.66-17.733-44.931c-7.36-8.014-16.16-13.779-25.704-16.979V7.521
		c0-4.154-3.367-7.521-7.521-7.521h-20.685c-4.154,0-7.52,3.367-7.52,7.521V47.84c-9.543,3.199-18.343,8.964-25.703,16.979
		c-11.269,12.271-17.732,28.648-17.732,44.931c0,2.818,1.577,5.401,4.084,6.689c1.305,0.671,2.749,0.923,4.156,0.787
		c1.888,31.765-7.243,53.959-17.656,79.238c-11.177,27.136-23.847,57.894-23.847,105.432c0,27.662,9.819,52.794,27.65,70.764
		c17.397,17.536,41.128,27.193,66.82,27.193c0.031,0,0.062-0.004,0.093-0.005c0.031,0.001,0.062,0.005,0.093,0.005
		c25.693,0,49.424-9.658,66.822-27.193c17.829-17.97,27.648-43.102,27.648-70.764C294.491,254.359,281.821,223.601,270.643,196.465z
		 M199.927,384.819c-0.031-0.001-0.062-0.005-0.093-0.005c-46.023,0-79.428-34.872-79.428-82.916
		c0-44.562,11.546-72.594,22.714-99.704c11.443-27.78,22.268-54.088,18.143-93.376c6.827-4.144,14.221-8.03,19.435-9.61
		l13.57,15.497c1.486,1.696,3.564,2.564,5.654,2.566h0.001c0.001,0,0.002,0,0.002,0h0.004c2.603,0,4.31-1.03,5.655-2.566
		l13.58-15.507c5.313,1.588,12.722,5.523,19.43,9.61c-4.128,39.293,6.697,65.603,18.142,93.385
		c11.167,27.11,22.714,55.141,22.714,99.704c0,48.045-33.405,82.916-79.429,82.916C199.989,384.814,199.958,384.818,199.927,384.819
		z M199.926,59.962c19.688,0,37.445,14.851,43.79,34.349c-8.532-5.014-19.005-10.184-26.759-10.812
		c-2.377-0.198-4.697,0.751-6.264,2.541l-10.766,12.293L189.161,86.04c-1.569-1.79-3.896-2.738-6.264-2.541
		c-7.755,0.628-18.225,5.798-26.757,10.812C162.483,74.813,180.239,59.962,199.926,59.962z M197.105,15.042h5.644v29.956
		c-0.938-0.047-1.878-0.076-2.822-0.076c-0.944,0-1.884,0.029-2.821,0.076V15.042z"/>
</g>
<g>
</g>
<g>
</g>
<g>
</g>
<g>
</g>
<g>
</g>
<g>
</g>
<g>
</g>
<g>
</g>
<g>
</g>
<g>
</g>
<g>
</g>
<g>
</g>
<g>
</g>
<g>
</g>
<g>
</g>
</svg>
