<?xml version="1.0" encoding="iso-8859-1"?>
<!-- Generator: Adobe Illustrator 18.0.0, SVG Export Plug-In . SVG Version: 6.00 Build 0)  -->
<!DOCTYPE svg PUBLIC "-//W3C//DTD SVG 1.1//EN" "http://www.w3.org/Graphics/SVG/1.1/DTD/svg11.dtd">
<svg version="1.1" id="Capa_1" xmlns="http://www.w3.org/2000/svg" xmlns:xlink="http://www.w3.org/1999/xlink" x="0px" y="0px"
	 viewBox="0 0 286.02 286.02" style="enable-background:new 0 0 286.02 286.02;" xml:space="preserve">
<g>
	<path style="fill:#CE593F;" d="M64.614,140.64l0.002,0.002c-6.367,4.109-13.211,6.267-20.053,6.267
		c-0.761,0-1.521-0.035-2.28-0.088c-0.371,4.987-0.058,10.19,0.974,15.37c2.181,10.948,7.189,20.558,14.104,27.059
		c3.976,3.74,8.263,6.107,12.518,7.002c2.651-0.582,5.164-1.8,7.436-3.616c-6.285-9.916-9.726-22.434-9.726-35.609
		c0-4.654,0.435-9.225,1.277-13.664C67.394,142.574,65.978,141.658,64.614,140.64z"/>
	<g>
		<path style="fill:#CE593F;" d="M97.649,255.924c0.293,0.105,0.584,0.208,0.875,0.301
			C98.233,256.132,97.941,256.028,97.649,255.924z"/>
		<path style="fill:#CE593F;" d="M79.201,211.087c-1.768,0.353-3.546,0.547-5.322,0.604c0.52,6.327,2.3,12.905,5.232,19.117
			c4.764,10.095,11.949,18.207,20.232,22.842c3.258,1.824,6.499,2.988,9.613,3.494c1.486-0.255,2.922-0.669,4.277-1.289
			c-0.116-0.16-0.238-0.309-0.353-0.47c-7.314-10.255-11.342-23.76-11.342-38.027c0-2.025,0.101-4.04,0.264-6.044
			c-5.222-1.193-10.162-3.663-14.61-7.319c1.087,0.893,2.203,1.714,3.346,2.464C87.049,208.717,83.238,210.282,79.201,211.087z"/>
		<path style="fill:#CE593F;" d="M95.14,254.909c0.263,0.121,0.525,0.226,0.787,0.339C95.665,255.135,95.403,255.029,95.14,254.909z
			"/>
		<path style="fill:#CE593F;" d="M104.166,257.347c-0.301-0.022-0.6-0.033-0.904-0.069
			C103.567,257.313,103.865,257.324,104.166,257.347z"/>
		<path style="fill:#CE593F;" d="M107.875,257.287c0.32-0.036,0.642-0.063,0.958-0.115
			C108.517,257.224,108.195,257.251,107.875,257.287z"/>
		<path style="fill:#CE593F;" d="M105.573,257.411c0.342,0.003,0.68-0.005,1.017-0.02
			C106.254,257.406,105.915,257.414,105.573,257.411z"/>
		<path style="fill:#CE593F;" d="M100.993,256.901c-0.238-0.052-0.48-0.126-0.72-0.185
			C100.513,256.776,100.755,256.849,100.993,256.901z"/>
	</g>
	<g>
		<path style="fill:#CE593F;" d="M22.58,124.451c-0.047-0.059-0.09-0.126-0.138-0.185C22.489,124.325,22.532,124.392,22.58,124.451z
			"/>
		<path style="fill:#CE593F;" d="M19.682,119.992c-0.127-0.239-0.258-0.475-0.381-0.721
			C19.424,119.517,19.554,119.752,19.682,119.992z"/>
		<path style="fill:#CE593F;" d="M24.187,126.236c0.181,0.183,0.368,0.352,0.553,0.526
			C24.556,126.588,24.368,126.418,24.187,126.236z"/>
		<path style="fill:#CE593F;" d="M21.086,122.377c-0.147-0.223-0.288-0.456-0.43-0.687
			C20.799,121.921,20.939,122.153,21.086,122.377z"/>
		<path style="fill:#CE593F;" d="M46.915,85.834c1.47-9.16,4.593-17.711,9.017-25.051c-5.372-0.12-11.036,2.212-16.289,6.777
			c-7.165,6.225-12.547,15.631-15.156,26.484c-2.61,10.854-2.089,21.678,1.462,30.48c0.743,1.841,1.603,3.529,2.559,5.065
			c1.422,0.807,2.922,1.412,4.492,1.789c6.244,1.498,13.079-0.6,19.301-5.792c-0.07-0.138-0.145-0.269-0.214-0.408
			C46.49,113.893,44.653,99.921,46.915,85.834z"/>
		<path style="fill:#CE593F;" d="M26.591,128.323c-0.208-0.154-0.411-0.32-0.615-0.484C26.18,128.004,26.382,128.169,26.591,128.323
			z"/>
		<path style="fill:#CE593F;" d="M28.484,129.578c-0.108-0.061-0.21-0.138-0.317-0.202
			C28.275,129.439,28.376,129.516,28.484,129.578z"/>
	</g>
	<path style="fill:#CE593F;" d="M216.297,196.293c4.327-0.859,8.689-3.243,12.733-7.044c6.914-6.501,11.923-16.111,14.103-27.058
		c1.032-5.18,1.346-10.384,0.973-15.371c-0.76,0.053-1.52,0.088-2.28,0.088c-6.915,0-13.832-2.205-20.256-6.4
		c-1.414,1.068-2.883,2.03-4.415,2.851c0.842,4.438,1.275,9.009,1.275,13.666c0,13.175-3.441,25.693-9.726,35.609
		C211.021,194.488,213.588,195.726,216.297,196.293z"/>
	<path style="fill:#CE593F;" d="M169.325,220.589c-0.055-0.909-0.122-1.815-0.216-2.714c-8.505-2.111-16.231-7.645-22.278-16.123
		c-1.395-1.957-2.669-4.034-3.821-6.21c-1.152,2.177-2.426,4.254-3.821,6.21c-6.046,8.477-13.773,14.011-22.278,16.123
		c-0.094,0.9-0.162,1.807-0.216,2.716c-0.066-1.068-0.114-2.143-0.114-3.232c0,21.727,12.103,40.082,26.428,40.082
		c14.327,0,26.43-18.355,26.43-40.082C169.439,218.448,169.39,219.521,169.325,220.589z"/>
	<g>
		<path style="fill:#CE593F;" d="M177.945,257.271c-0.324-0.04-0.646-0.088-0.965-0.145
			C177.3,257.183,177.621,257.232,177.945,257.271z"/>
		<path style="fill:#CE593F;" d="M179.309,257.382c0.306,0.015,0.608,0.039,0.918,0.039
			C179.918,257.421,179.615,257.398,179.309,257.382z"/>
		<path style="fill:#CE593F;" d="M185.56,253.651c8.283-4.635,15.467-12.747,20.232-22.842c2.932-6.212,4.712-12.789,5.233-19.117
			c-1.778-0.057-3.555-0.251-5.325-0.604c-3.822-0.762-7.434-2.216-10.768-4.283c0.063-0.04,0.124-0.086,0.187-0.126
			c-3.431,2.197-7.088,3.766-10.901,4.637c0.162,2.004,0.263,4.019,0.263,6.044c0,14.268-4.028,27.773-11.342,38.028
			c-0.115,0.16-0.235,0.309-0.351,0.468c1.197,0.547,2.463,0.914,3.762,1.177C179.478,256.479,182.511,255.357,185.56,253.651z"/>
		<path style="fill:#CE593F;" d="M195.861,206.178c1.009-0.677,2.004-1.39,2.967-2.182
			C197.865,204.788,196.868,205.498,195.861,206.178z"/>
		<path style="fill:#CE593F;" d="M182.231,257.329c0.219-0.02,0.438-0.047,0.659-0.073
			C182.67,257.283,182.45,257.309,182.231,257.329z"/>
		<path style="fill:#CE593F;" d="M190.853,254.922c-0.27,0.123-0.538,0.229-0.807,0.343
			C190.316,255.151,190.584,255.046,190.853,254.922z"/>
		<path style="fill:#CE593F;" d="M188.334,255.939c-0.308,0.109-0.615,0.213-0.921,0.31
			C187.719,256.151,188.026,256.048,188.334,255.939z"/>
		<path style="fill:#CE593F;" d="M184.912,256.92c0.289-0.062,0.581-0.142,0.872-0.215
			C185.494,256.778,185.201,256.859,184.912,256.92z"/>
	</g>
	<path style="fill:#CE593F;" d="M128.703,40.606c-3.463-3.9-7.65-6.139-11.977-6.139c-4.239,0-8.385,2.228-11.834,6.05
		c4.452,2.021,8.5,5.032,11.983,8.966c4.459-4.812,9.574-8.284,15.088-10.262C130.858,39.619,129.773,40.091,128.703,40.606z"/>
	<path style="fill:#CE593F;" d="M181.127,41.343c-3.449-5-7.596-6.462-11.834-6.462c-4.341,0-8.527,2.028-11.987,5.928
		c-1.07-0.514-2.152-1.089-3.256-1.485c5.517,1.978,10.634,5.812,15.095,10.625c3.484-3.935,7.533-6.606,11.986-8.606H181.127z"/>
	<g>
		<path style="fill:#CE593F;" d="M62.036,41.283c-0.005-0.002-0.009-0.005-0.014-0.008C62.027,41.277,62.031,41.28,62.036,41.283z"
			/>
		<path style="fill:#CE593F;" d="M86.661,35.103c-3.586-2.141-7.337-2.971-10.847-2.274c-4.627,0.922-8.628,4.493-11.314,9.816
			c1.537,0.936,3.014,1.999,4.417,3.192c5.126-3.999,10.678-6.591,16.386-7.675c0.443-1.093,0.915-2.156,1.415-3.19
			C86.699,35.015,86.682,35.061,86.661,35.103z"/>
	</g>
	<g>
		<path style="fill:#CE593F;" d="M270.479,106.298c0.07-0.532,0.137-1.064,0.19-1.605
			C270.616,105.234,270.549,105.767,270.479,106.298z"/>
		<path style="fill:#CE593F;" d="M269.908,109.69c0.108-0.525,0.208-1.053,0.3-1.589
			C270.116,108.636,270.017,109.166,269.908,109.69z"/>
		<path style="fill:#CE593F;" d="M269.526,111.358c-0.13,0.527-0.264,1.05-0.412,1.563
			C269.261,112.407,269.395,111.885,269.526,111.358z"/>
		<path style="fill:#CE593F;" d="M270.913,99.101c-0.004-0.525-0.001-1.046-0.02-1.577C270.912,98.055,270.91,98.577,270.913,99.101
			z"/>
		<path style="fill:#CE593F;" d="M261.161,93.3c-4.65-19.34-18.502-33.546-31.498-33.245l-0.002-0.002
			c4.657,7.496,7.926,16.32,9.444,25.781c2.262,14.087,0.425,28.06-5.172,39.344c-0.068,0.139-0.145,0.27-0.214,0.408
			c6.22,5.189,13.059,7.287,19.299,5.792c1.096-0.264,2.136-0.67,3.149-1.139C262.291,121.577,264.585,107.546,261.161,93.3z"/>
		<path style="fill:#CE593F;" d="M270.818,102.767c0.033-0.534,0.067-1.066,0.083-1.607
			C270.884,101.7,270.851,102.233,270.818,102.767z"/>
		<path style="fill:#CE593F;" d="M270.125,90.034c0.072,0.423,0.116,0.842,0.179,1.263
			C270.241,90.876,270.197,90.458,270.125,90.034z"/>
		<path style="fill:#CE593F;" d="M270.638,93.81c0.051,0.499,0.076,0.992,0.114,1.488C270.714,94.802,270.689,94.309,270.638,93.81z
			"/>
		<path style="fill:#CE593F;" d="M266.892,118.815c0.23-0.478,0.438-0.979,0.65-1.477
			C267.33,117.835,267.122,118.337,266.892,118.815z"/>
		<path style="fill:#CE593F;" d="M265.482,121.437c0.278-0.462,0.53-0.955,0.789-1.44
			C266.013,120.482,265.761,120.976,265.482,121.437z"/>
		<path style="fill:#CE593F;" d="M263.886,123.815c0.341-0.453,0.652-0.947,0.971-1.431
			C264.537,122.868,264.227,123.363,263.886,123.815z"/>
		<path style="fill:#CE593F;" d="M260.293,127.628c-0.429,0.359-0.885,0.667-1.336,0.984
			C259.409,128.295,259.864,127.988,260.293,127.628z"/>
		<path style="fill:#CE593F;" d="M258.191,129.156c-0.434,0.273-0.889,0.501-1.341,0.735
			C257.303,129.657,257.757,129.43,258.191,129.156z"/>
		<path style="fill:#CE593F;" d="M268.106,115.966c0.188-0.496,0.357-1.008,0.527-1.521
			C268.463,114.958,268.294,115.471,268.106,115.966z"/>
		<path style="fill:#CE593F;" d="M260.685,127.261c1.073-0.945,2.076-2.011,2.997-3.203
			C262.761,125.25,261.758,126.316,260.685,127.261z"/>
	</g>
	<g>
		<path style="fill:#CE593F;" d="M99.583,54.668c0.248,0.132,0.495,0.268,0.739,0.412C100.078,54.936,99.831,54.799,99.583,54.668z"
			/>
		<path style="fill:#CE593F;" d="M97.848,53.857c0.239,0.096,0.475,0.204,0.711,0.311C98.323,54.061,98.088,53.953,97.848,53.857z"
			/>
		<path style="fill:#CE593F;" d="M101.259,55.673c0.246,0.165,0.494,0.326,0.735,0.503
			C101.752,55.999,101.505,55.837,101.259,55.673z"/>
		<path style="fill:#CE593F;" d="M102.888,56.883c0.231,0.19,0.468,0.368,0.695,0.57C103.355,57.251,103.12,57.072,102.888,56.883z"
			/>
		<path style="fill:#CE593F;" d="M105.671,59.58c-0.269-0.305-0.537-0.613-0.815-0.9C105.134,58.967,105.402,59.275,105.671,59.58z"
			/>
		<path style="fill:#CE593F;" d="M75.029,129.507c-0.487-0.301-0.967-0.622-1.436-0.971
			C74.063,128.885,74.542,129.206,75.029,129.507z"/>
		<path style="fill:#CE593F;" d="M73.029,128.099c-0.432-0.344-0.855-0.711-1.271-1.096
			C72.173,127.388,72.596,127.755,73.029,128.099z"/>
		<path style="fill:#CE593F;" d="M108.029,62.627c-0.557-0.838-1.149-1.612-1.758-2.352c-1.923-1.13-3.969-1.891-6.104-2.234
			c-6.484-1.036-13.363,1.736-19.366,7.818c-6.665,6.756-11.31,16.547-13.079,27.568c-1.77,11.022-0.422,21.775,3.795,30.278
			c0.699,1.41,1.463,2.72,2.282,3.931c0.031,0.042,0.057,0.086,0.087,0.128c0.464,0.677,0.948,1.318,1.446,1.929
			c1.944,1.152,4.01,1.94,6.177,2.287c8.582,1.374,17.951-4.2,24.558-14.355c-2.958-7.707-4.528-16.315-4.528-25.22
			C101.538,81.701,103.806,71.423,108.029,62.627z"/>
		<path style="fill:#CE593F;" d="M96.057,53.243c0.204,0.057,0.403,0.131,0.605,0.195C96.459,53.374,96.26,53.3,96.057,53.243z"/>
		<path style="fill:#CE593F;" d="M69.979,125.166c0.396,0.453,0.798,0.892,1.212,1.303
			C70.777,126.058,70.375,125.618,69.979,125.166z"/>
		<path style="fill:#CE593F;" d="M69.493,124.618c-0.539-0.652-1.064-1.335-1.563-2.063
			C68.43,123.284,68.954,123.966,69.493,124.618z"/>
	</g>
	<g>
		<path style="fill:#CE593F;" d="M223.395,110.232c0.125-0.488,0.255-0.972,0.365-1.47
			C223.65,109.26,223.52,109.743,223.395,110.232z"/>
		<path style="fill:#CE593F;" d="M183.425,56.652c0.757-0.598,1.534-1.144,2.338-1.613
			C184.958,55.507,184.182,56.054,183.425,56.652z"/>
		<path style="fill:#CE593F;" d="M217.927,93.056c-1.768-11.022-6.414-20.812-13.079-27.568c-6.003-6.082-12.878-8.856-19.368-7.819
			c-1.658,0.266-3.266,0.783-4.801,1.529c-0.95,1.036-1.853,2.173-2.69,3.431c4.223,8.797,6.491,19.072,6.491,29.778
			c0,8.905-1.57,17.514-4.528,25.221c6.6,10.149,15.956,15.728,24.542,14.356c0.907-0.175,2.129-0.363,3.598-1.001
			c0.427-0.17,0.833-0.395,1.248-0.598C216.625,122.362,220.336,108.063,217.927,93.056z"/>
		<path style="fill:#CE593F;" d="M224.088,107.067c0.092-0.5,0.193-0.994,0.271-1.503
			C224.282,106.073,224.181,106.567,224.088,107.067z"/>
		<path style="fill:#CE593F;" d="M224.948,95.358c0.017,0.486,0.005,0.963,0.01,1.445C224.953,96.321,224.965,95.844,224.948,95.358
			z"/>
		<path style="fill:#CE593F;" d="M222.515,113.253c0.156-0.474,0.317-0.943,0.459-1.429
			C222.832,112.309,222.671,112.779,222.515,113.253z"/>
		<path style="fill:#CE593F;" d="M224.715,91.812c0.04,0.41,0.052,0.814,0.083,1.223C224.767,92.626,224.755,92.222,224.715,91.812z
			"/>
		<path style="fill:#CE593F;" d="M189.093,53.532c0.888-0.3,1.789-0.552,2.713-0.7C190.883,52.979,189.982,53.232,189.093,53.532z"
			/>
		<path style="fill:#CE593F;" d="M185.924,54.936c0.833-0.476,1.696-0.862,2.572-1.194
			C187.619,54.074,186.758,54.461,185.924,54.936z"/>
		<path style="fill:#CE593F;" d="M183.01,56.98c-0.79,0.656-1.555,1.373-2.286,2.167C181.454,58.354,182.22,57.636,183.01,56.98z"/>
		<path style="fill:#CE593F;" d="M213.796,127.379c0.319-0.283,0.634-0.572,0.942-0.876
			C214.43,126.807,214.115,127.096,213.796,127.379z"/>
		<path style="fill:#CE593F;" d="M224.88,100.345c0.027-0.5,0.068-0.993,0.081-1.498C224.948,99.352,224.907,99.846,224.88,100.345z
			"/>
		<path style="fill:#CE593F;" d="M215.619,125.58c0.296-0.324,0.588-0.653,0.872-0.997
			C216.207,124.926,215.914,125.256,215.619,125.58z"/>
		<path style="fill:#CE593F;" d="M224.763,102.254c-0.046,0.512-0.117,1.012-0.177,1.517
			C224.646,103.266,224.717,102.767,224.763,102.254z"/>
		<path style="fill:#CE593F;" d="M217.305,123.535c0.27-0.361,0.538-0.724,0.795-1.104
			C217.843,122.811,217.575,123.174,217.305,123.535z"/>
		<path style="fill:#CE593F;" d="M218.847,121.262c0.243-0.395,0.485-0.789,0.715-1.2
			C219.332,120.473,219.09,120.868,218.847,121.262z"/>
		<path style="fill:#CE593F;" d="M221.459,116.105c0.187-0.452,0.375-0.9,0.548-1.365
			C221.834,115.205,221.645,115.654,221.459,116.105z"/>
		<path style="fill:#CE593F;" d="M220.233,118.781c0.216-0.425,0.432-0.848,0.634-1.289
			C220.665,117.932,220.449,118.356,220.233,118.781z"/>
		<path style="fill:#CE593F;" d="M212.851,128.172c-0.33,0.261-0.667,0.509-1.008,0.746
			C212.185,128.681,212.52,128.433,212.851,128.172z"/>
		<path style="fill:#CE593F;" d="M210.84,129.572c-0.352,0.215-0.709,0.418-1.071,0.607
			C210.131,129.99,210.487,129.787,210.84,129.572z"/>
	</g>
	<path style="fill:#CE593F;" d="M174.04,196.821c12.959-2.368,23.395-19.623,23.395-39.795c0-3.347-0.28-6.628-0.823-9.815
		c-0.278,0.007-0.417,0.033-0.695,0.033c-0.218,0-0.517-0.016-0.517-0.021c0-0.004,0-0.009,0-0.013c0,0.002-0.257,0.004-0.317,0.007
		c-9.276-0.238-18.371-4.436-25.92-11.86c0.013-0.014-0.009-0.031,0.004-0.045c-5.14,5.55-11.161,9.343-17.652,11.094
		c-0.639,3.443-0.976,6.997-0.976,10.62c0,20.673,10.959,38.258,24.363,39.918C174.616,196.905,174.324,196.872,174.04,196.821z"/>
	<path style="fill:#CE593F;" d="M169.268,96.579c-1.494-19.753-12.91-35.694-26.26-35.694c-13.351,0-24.768,15.947-26.259,35.704
		c-0.101-1.379-0.169-2.77-0.169-4.182c0,21.009,11.317,38.863,25.017,40.019c0.044,0.006,0.089,0.006,0.134,0.012
		c0.423,0.032,0.849,0.051,1.277,0.051c14.327,0,26.43-18.355,26.43-40.081C169.439,93.816,169.369,95.203,169.268,96.579z"/>
	<g>
		<path style="fill:#CE593F;" d="M112.14,196.795c-0.267,0.05-0.536,0.094-0.806,0.132
			C111.604,196.89,111.872,196.845,112.14,196.795z"/>
		<path style="fill:#CE593F;" d="M134.522,146.407c-6.417-1.73-12.355-5.46-17.457-10.906c0.127,0.136,0.242,0.297,0.37,0.431
			c-7.652,7.28-16.757,11.313-26.08,11.313c-0.277,0-0.555-0.025-0.832-0.033c-0.543,3.189-0.822,6.469-0.822,9.814
			c0,19.877,10.133,36.916,22.827,39.676c12.755-2.674,22.961-19.733,22.961-39.676C135.489,153.403,135.159,149.85,134.522,146.407
			z"/>
	</g>
	<g>
		<path style="fill:#CE593F;" d="M222.168,42.276c-2.682-5.116-6.6-8.547-11.117-9.447c-3.724-0.74-7.725,0.241-11.509,2.687
			c0.408,0.865,0.808,1.739,1.175,2.645c5.709,1.084,11.259,3.677,16.385,7.676c1.601-1.361,3.303-2.541,5.077-3.566
			C222.175,42.273,222.171,42.274,222.168,42.276z"/>
		<path style="fill:#CE593F;" d="M224.317,41.127c0.741-0.358,1.49-0.697,2.255-0.997C225.808,40.43,225.057,40.764,224.317,41.127z
			"/>
	</g>
	<path style="fill:#3F2D20;" d="M283.973,82.713c-3.335-13.872-10.408-26.061-19.914-34.323c-6.88-5.977-14.487-9.459-22.153-10.282
		c-4.262-12.618-13.193-21.488-24.256-23.691c-9.332-1.857-19.013,1.184-27.112,8.22c-5.987-5.815-13.369-9.125-21.245-9.125
		c-10.231,0-19.679,5.645-26.286,15.12c-6.615-9.471-16.076-15.12-26.281-15.12c-7.876,0-15.257,3.31-21.243,9.123
		c-8.095-7.035-17.773-10.081-27.113-8.218C57.307,16.621,48.378,25.49,44.115,38.104c-7.668,0.822-15.274,4.307-22.154,10.286
		C12.454,56.652,5.38,68.842,2.047,82.713c-3.336,13.872-2.576,27.944,2.139,39.625c3.578,8.867,9.117,15.651,16.019,19.831
		c-0.952,7.415-0.68,15.239,0.859,22.96c2.787,13.993,9.376,26.45,18.552,35.078c3.883,3.651,8.048,6.454,12.361,8.384
		c0.095,9.487,2.415,19.275,6.834,28.637c6.089,12.903,15.495,23.396,26.486,29.548c6.809,3.81,13.766,5.732,20.443,5.732
		c4.91,0,9.668-1.039,14.1-3.132c1.594-0.753,3.114-1.639,4.56-2.639c5.676,3.755,11.999,5.745,18.607,5.745
		c6.61,0,12.933-1.99,18.609-5.746c1.447,1.002,2.967,1.888,4.561,2.64c4.433,2.093,9.19,3.132,14.101,3.132
		c6.677,0,13.635-1.921,20.443-5.732c10.991-6.152,20.398-16.646,26.487-29.547c4.418-9.361,6.739-19.149,6.833-28.638
		c4.315-1.93,8.478-4.734,12.362-8.384c9.176-8.628,15.764-21.085,18.551-35.077c1.539-7.721,1.81-15.546,0.858-22.962
		c6.902-4.181,12.44-10.963,16.019-19.83C286.549,110.659,287.308,96.586,283.973,82.713z M236.101,189.249
		c-6.226,5.852-13.205,8.369-19.646,7.086c-2.767-0.551-5.388-1.811-7.75-3.7c6.285-9.916,9.726-22.434,9.726-35.609
		c0-4.657-0.433-9.229-1.275-13.667c2.75-1.474,5.317-3.36,7.679-5.609c7.45,5.989,15.76,9.158,24.063,9.158
		c0.76,0,1.52-0.035,2.28-0.088c0.372,4.986,0.059,10.19-0.973,15.37C248.024,173.138,243.014,182.748,236.101,189.249z
		 M193.376,253.651c-7.378,4.13-14.677,4.908-20.588,2.205c0.116-0.159,0.236-0.308,0.35-0.468
		c7.314-10.255,11.342-23.76,11.342-38.028c0-2.025-0.1-4.04-0.263-6.044c5.221-1.193,10.163-3.663,14.611-7.319
		c4.344,3.604,9.314,6.02,14.687,7.091c1.771,0.354,3.547,0.547,5.325,0.604c-0.521,6.328-2.301,12.906-5.233,19.117
		C208.842,240.904,201.658,249.016,193.376,253.651z M143.008,257.441c-14.326,0-26.428-18.355-26.428-40.082
		c0-2.078,0.117-4.143,0.331-6.183c8.506-2.111,16.232-7.645,22.278-16.123c1.395-1.956,2.669-4.034,3.821-6.21
		c1.152,2.177,2.425,4.254,3.821,6.21c6.046,8.478,13.773,14.011,22.277,16.123c0.214,2.039,0.33,4.103,0.33,6.183
		C169.439,239.086,157.335,257.441,143.008,257.441z M72.413,230.808c-2.932-6.213-4.712-12.79-5.232-19.117
		c1.776-0.057,3.554-0.252,5.322-0.604c5.372-1.07,10.345-3.487,14.689-7.091c4.448,3.656,9.387,6.126,14.61,7.319
		c-0.163,2.004-0.264,4.019-0.264,6.044c0,14.267,4.028,27.772,11.342,38.027c0.115,0.161,0.236,0.31,0.353,0.47
		c-5.909,2.7-13.208,1.927-20.588-2.205C84.362,249.016,77.177,240.904,72.413,230.808z M35.815,162.19
		c-1.031-5.179-1.345-10.383-0.974-15.369c0.759,0.053,1.519,0.088,2.28,0.088c8.301,0,16.61-3.171,24.062-9.159
		c2.362,2.251,4.932,4.138,7.683,5.613c-0.842,4.438-1.277,9.009-1.277,13.664c0,13.175,3.441,25.693,9.726,35.609
		c-2.363,1.889-4.983,3.148-7.751,3.7c-6.436,1.284-13.419-1.231-19.645-7.086C43.005,182.748,37.996,173.138,35.815,162.19z
		 M18.133,116.708c-3.552-8.802-4.072-19.625-1.462-30.48c2.609-10.853,7.991-20.259,15.156-26.484
		c6.45-5.605,13.521-7.846,19.907-6.311c2.463,0.592,4.734,1.721,6.803,3.341c-5.825,8.143-9.877,18.182-11.623,29.059
		c-2.262,14.087-0.425,28.059,5.171,39.344c0.07,0.139,0.145,0.27,0.215,0.408c-6.222,5.191-13.058,7.29-19.301,5.792
		C26.612,129.842,21.331,124.633,18.133,116.708z M116.726,28.553c5.799,0,11.347,4.016,15.236,10.669
		c-5.514,1.978-10.629,5.45-15.088,10.262c-4.34-4.902-9.547-8.399-15.334-10.291C105.435,32.613,110.997,28.553,116.726,28.553z
		 M169.293,28.553c5.728,0,11.292,4.06,15.187,10.639c-5.789,1.892-10.995,5.39-15.335,10.292
		c-4.461-4.813-9.578-8.285-15.095-10.264C157.934,32.562,163.475,28.553,169.293,28.553z M211.175,60.649
		c6.665,6.756,11.31,16.547,13.079,27.568c3.144,19.579-4.117,37.974-16.162,42.765c-1.469,0.638-2.691,0.826-3.598,1.001
		c-8.586,1.372-17.942-4.207-24.542-14.356c2.958-7.707,4.528-16.315,4.528-25.221c0-10.706-2.268-20.982-6.491-29.778
		c3.653-5.495,8.461-8.938,13.817-9.797C198.297,51.794,205.172,54.567,211.175,60.649z M226.573,40.13
		c-3.41,1.336-6.59,3.259-9.471,5.707c-5.126-3.998-10.676-6.591-16.385-7.675c-0.443-1.092-0.915-2.155-1.416-3.188
		c4.832-4.667,10.374-6.807,15.412-5.806C219.663,30.154,223.899,34.174,226.573,40.13z M169.439,92.407
		c0,21.726-12.104,40.081-26.43,40.081c-0.428,0-0.854-0.019-1.277-0.051c-0.045-0.006-0.09-0.006-0.134-0.012
		c-13.7-1.156-25.017-19.01-25.017-40.019c0-21.727,12.103-40.082,26.428-40.082C157.335,52.325,169.439,70.68,169.439,92.407z
		 M135.489,157.027c0,21.726-12.104,40.081-26.43,40.081c-14.326,0-26.428-18.355-26.428-40.081c0-3.345,0.279-6.626,0.822-9.814
		c0.277,0.008,0.555,0.033,0.832,0.033c10.88,0,21.468-5.478,29.791-15.219c5.699,7.375,12.736,12.303,20.446,14.381
		C135.159,149.85,135.489,153.403,135.489,157.027z M108.029,62.627c-4.223,8.796-6.491,19.073-6.491,29.779
		c0,8.906,1.57,17.513,4.528,25.22c-6.606,10.155-15.976,15.729-24.558,14.355c-5.25-0.842-9.959-4.142-13.577-9.427
		c-0.03-0.042-0.057-0.086-0.087-0.129c-0.82-1.21-1.584-2.521-2.283-3.931c-4.217-8.503-5.564-19.256-3.794-30.278
		c1.768-11.022,6.414-20.812,13.079-27.568c6.003-6.082,12.882-8.854,19.366-7.818C99.569,53.691,104.378,57.133,108.029,62.627z
		 M86.719,34.973c-0.5,1.033-0.972,2.097-1.415,3.19c-5.708,1.084-11.26,3.677-16.386,7.675c-2.881-2.449-6.061-4.372-9.47-5.707
		c2.674-5.957,6.91-9.976,11.862-10.963C76.348,28.167,81.888,30.306,86.719,34.973z M150.531,157.027
		c0-3.623,0.329-7.177,0.968-10.62c7.709-2.079,14.746-7.006,20.444-14.38c8.323,9.741,18.912,15.218,29.792,15.218
		c0.278,0,0.554-0.027,0.832-0.033c0.543,3.188,0.823,6.468,0.823,9.815c0,21.726-12.104,40.081-26.43,40.081
		C162.633,197.108,150.531,178.753,150.531,157.027z M253.019,131.378c-6.24,1.495-13.079-0.602-19.299-5.792
		c0.068-0.138,0.145-0.269,0.214-0.408c5.597-11.284,7.434-25.257,5.172-39.344c-1.745-10.878-5.799-20.917-11.624-29.059
		c2.07-1.622,4.34-2.75,6.802-3.341c13.929-3.342,29.987,11.671,35.066,32.795C274.425,107.354,266.948,128.03,253.019,131.378z"/>
</g>
<g>
</g>
<g>
</g>
<g>
</g>
<g>
</g>
<g>
</g>
<g>
</g>
<g>
</g>
<g>
</g>
<g>
</g>
<g>
</g>
<g>
</g>
<g>
</g>
<g>
</g>
<g>
</g>
<g>
</g>
</svg>
