<?xml version="1.0" encoding="iso-8859-1"?>
<!-- Generator: Adobe Illustrator 18.0.0, SVG Export Plug-In . SVG Version: 6.00 Build 0)  -->
<!DOCTYPE svg PUBLIC "-//W3C//DTD SVG 1.1//EN" "http://www.w3.org/Graphics/SVG/1.1/DTD/svg11.dtd">
<svg version="1.1" id="Capa_1" xmlns="http://www.w3.org/2000/svg" xmlns:xlink="http://www.w3.org/1999/xlink" x="0px" y="0px"
	 viewBox="0 0 323.054 323.054" style="enable-background:new 0 0 323.054 323.054;" xml:space="preserve">
<g>
	<path style="fill:#CE593F;" d="M97.881,104.906c0,6.627,5.391,12.019,12.019,12.019c6.627,0,12.019-5.391,12.019-12.019
		c0-6.627-5.392-12.019-12.019-12.019C103.272,92.886,97.881,98.278,97.881,104.906z"/>
	<path style="fill:#CE593F;" d="M207.288,108.777c6.626,0,12.018-5.391,12.018-12.018c0-6.628-5.392-12.021-12.018-12.021
		c-6.628,0-12.02,5.392-12.02,12.021C195.269,103.386,200.66,108.777,207.288,108.777z"/>
	<path style="fill:#CE593F;" d="M179.867,160.409c-4.6,0-8.6,2.6-10.619,6.404c6.447-0.565,12.59-1.829,18.24-3.654
		C185.383,161.433,182.709,160.409,179.867,160.409z"/>
	<path style="fill:#CE593F;" d="M261.913,83.534c1.028,4.244,1.587,8.669,1.587,13.224c0,9.229-2.27,18.22-6.512,26.247h18.924
		c0.577-8.481,0.356-23.764-7.173-33.578C266.842,86.955,264.565,85.011,261.913,83.534z"/>
	<path style="fill:#CE593F;" d="M47.144,123.006h9.559c-1.969-5.801-3.015-11.92-3.015-18.1c0-6.32,1.055-12.396,2.989-18.07
		c-0.857,0.82-1.676,1.691-2.418,2.666C46.788,99.318,46.567,114.541,47.144,123.006z"/>
	<path style="fill:#3F2D20;" d="M204.718,208.585c-11.637-8.147-26.975-12.634-43.191-12.634c-16.215,0-31.553,4.487-43.191,12.634
		c-12.452,8.718-19.311,20.572-19.311,33.379c0,12.807,6.858,24.661,19.311,33.379c11.638,8.148,26.976,12.634,43.191,12.634
		c16.216,0,31.554-4.487,43.191-12.634c12.452-8.718,19.311-20.572,19.311-33.379C224.029,229.157,217.17,217.303,204.718,208.585z
		 M161.527,272.943c-25.729,0-47.467-14.187-47.467-30.979c0-16.792,21.738-30.979,47.467-30.979
		c25.73,0,47.468,14.187,47.468,30.979C208.994,258.756,187.257,272.943,161.527,272.943z"/>
	<g>
		<path style="fill:#EF8829;" d="M174.09,24.504c0.992,0.818,1.953,1.674,2.865,2.581C176.043,26.178,175.083,25.323,174.09,24.504z
			"/>
		<path style="fill:#EF8829;" d="M170.108,21.574c1.132,0.728,2.218,1.523,3.273,2.356
			C172.326,23.097,171.241,22.302,170.108,21.574z"/>
		<path style="fill:#EF8829;" d="M179.998,30.46c-0.889-1.101-1.825-2.161-2.82-3.164C178.173,28.298,179.109,29.359,179.998,30.46z
			"/>
		<path style="fill:#EF8829;" d="M166.372,19.453c1.245,0.629,2.465,1.304,3.636,2.052
			C168.836,20.757,167.618,20.082,166.372,19.453z"/>
		<path style="fill:#EF8829;" d="M147.946,15.034c1.44,0,2.86,0.102,4.267,0.25C150.805,15.136,149.386,15.034,147.946,15.034z"/>
		<path style="fill:#EF8829;" d="M153.363,15.428c1.145,0.154,2.277,0.352,3.393,0.6C155.64,15.781,154.509,15.581,153.363,15.428z"
			/>
		<path style="fill:#EF8829;" d="M162.356,17.696c1.067,0.403,2.114,0.849,3.139,1.337C164.469,18.546,163.423,18.1,162.356,17.696z
			"/>
		<path style="fill:#EF8829;" d="M113.444,48.819c-0.06-0.004-0.12-0.01-0.18-0.014C113.325,48.808,113.384,48.815,113.444,48.819z"
			/>
		<path style="fill:#EF8829;" d="M180.123,30.62c-6.964-5.292-15.611-8.421-24.855-8.421c-17.693,0-32.804,11.222-38.615,26.92
			c1.683,0.204,3.348,0.469,4.983,0.817c2.838-11.901,13.554-20.778,26.311-20.778c13.18,0,24.184,9.478,26.568,21.974
			c3.927-2.83,8.232-5.165,12.822-6.916C185.804,39.195,183.313,34.61,180.123,30.62z"/>
		<path style="fill:#EF8829;" d="M157.562,16.196c1.35,0.328,2.674,0.725,3.973,1.184C160.235,16.921,158.912,16.524,157.562,16.196
			z"/>
	</g>
	<g>
		<path style="fill:#EF8829;" d="M226.138,60.19c0.957,0.496,1.884,1.038,2.795,1.604C228.022,61.228,227.096,60.686,226.138,60.19z
			"/>
		<path style="fill:#EF8829;" d="M207.288,55.58c1.548,0,3.072,0.102,4.576,0.27C210.36,55.683,208.837,55.58,207.288,55.58z"/>
		<path style="fill:#EF8829;" d="M236.671,67.963c-2.055-2.097-4.331-3.971-6.792-5.593
			C232.338,63.993,234.617,65.867,236.671,67.963z"/>
		<path style="fill:#EF8829;" d="M237.158,68.499c0.829,0.876,1.626,1.783,2.376,2.729
			C238.784,70.281,237.988,69.375,237.158,68.499z"/>
		<path style="fill:#EF8829;" d="M213.284,56.068c1.02,0.15,2.034,0.317,3.028,0.541C215.317,56.384,214.304,56.217,213.284,56.068z
			"/>
		<path style="fill:#EF8829;" d="M239.718,71.473c-6.865-5.124-15.373-8.165-24.579-8.165c-3.725,0-7.333,0.506-10.767,1.438
			c-17.499,4.746-30.411,20.76-30.411,39.74c0,0.534,0.03,1.063,0.051,1.595c0.136,3.515,0.729,6.968,1.731,10.296
			c-0.014,0.001-0.027,0.003-0.041,0.004c1.375-0.105,2.763-0.164,4.165-0.164c3.238,0,6.428,0.293,9.555,0.83
			c-5.628-4.96-9.187-12.215-9.187-20.288c0-2.713,0.406-5.333,1.153-7.806c1.812-6.001,5.653-11.129,10.726-14.579
			c4.33-2.945,9.555-4.669,15.175-4.669c14.917,0,27.053,12.137,27.053,27.055c0,14.669-11.739,26.641-26.316,27.034
			c4.223,2.45,8.138,5.441,11.627,8.942c0.073-0.733,0.122-1.511,0.122-2.253c0-4.152,3.366-7.559,7.517-7.559h11.714
			c6.107-8,9.46-16.593,9.46-26.206C248.465,87.183,245.178,78.46,239.718,71.473z"/>
		<path style="fill:#EF8829;" d="M222.146,58.398c0.902,0.351,1.785,0.736,2.655,1.147
			C223.931,59.134,223.049,58.749,222.146,58.398z"/>
		<path style="fill:#EF8829;" d="M217.892,57.016c0.922,0.247,1.835,0.516,2.73,0.824C219.726,57.531,218.815,57.262,217.892,57.016
			z"/>
	</g>
	<g>
		<path style="fill:#EF8829;" d="M132.827,70.723c0.096,0.064,0.186,0.135,0.281,0.199
			C133.014,70.858,132.923,70.787,132.827,70.723z"/>
		<path style="fill:#EF8829;" d="M129.229,68.57c0.204,0.108,0.404,0.221,0.606,0.333C129.633,68.791,129.433,68.679,129.229,68.57z
			"/>
		<path style="fill:#EF8829;" d="M141.571,78.629c0.096,0.115,0.185,0.236,0.279,0.352
			C141.756,78.864,141.667,78.744,141.571,78.629z"/>
		<path style="fill:#EF8829;" d="M135.795,72.933c0.135,0.109,0.274,0.214,0.408,0.325C136.069,73.146,135.93,73.042,135.795,72.933
			z"/>
		<path style="fill:#EF8829;" d="M139.243,76.068c-0.163-0.166-0.327-0.331-0.493-0.494
			C138.917,75.737,139.081,75.902,139.243,76.068z"/>
		<path style="fill:#EF8829;" d="M125.559,66.84c0.181,0.075,0.364,0.144,0.544,0.222C125.923,66.985,125.74,66.915,125.559,66.84z"
			/>
		<path style="fill:#EF8829;" d="M113.7,63.921c0.221,0.02,0.443,0.036,0.663,0.06C114.143,63.958,113.921,63.942,113.7,63.921z"/>
		<path style="fill:#EF8829;" d="M142.744,80.175c-7.044-5.632-15.962-9.015-25.661-9.015c-22.705,0-41.178,18.431-41.178,41.135
			c0,3.618,0.495,7.627,1.423,10.627h12.486c-4.328-5-6.967-11.104-6.967-18.059c0-14.918,12.136-27.033,27.053-27.033
			c14.918,0,27.054,12.146,27.054,27.064c0,14.917-12.136,27.058-27.054,27.058c-2.274,0-4.48-0.282-6.591-0.813
			c0.15,5.288,2.172,10.35,5.682,14.916c0.304,0.007,0.608,0.025,0.91,0.025c22.704,0,41.176-18.471,41.176-41.176
			C151.076,95.619,147.95,87.071,142.744,80.175z"/>
		<path style="fill:#EF8829;" d="M117.901,64.523c0.226,0.045,0.45,0.095,0.675,0.144C118.351,64.619,118.127,64.568,117.901,64.523
			z"/>
		<path style="fill:#EF8829;" d="M122.086,65.572c0.064,0.02,0.126,0.044,0.189,0.065C122.211,65.616,122.15,65.592,122.086,65.572z
			"/>
	</g>
	<g>
		<path style="fill:#EF8829;" d="M202.225,137.849c0.95,0.616,1.849,1.312,2.749,2.006
			C204.074,139.161,203.176,138.464,202.225,137.849z"/>
		<path style="fill:#EF8829;" d="M198.163,135.534c0.975,0.484,1.904,1.052,2.837,1.611
			C200.066,136.586,199.138,136.018,198.163,135.534z"/>
		<path style="fill:#EF8829;" d="M211.703,146.408c-0.721-0.882-1.439-1.766-2.224-2.579
			C210.263,144.642,210.982,145.527,211.703,146.408z"/>
		<path style="fill:#EF8829;" d="M206.01,140.62c0.882,0.726,1.706,1.528,2.529,2.33C207.715,142.148,206.893,141.347,206.01,140.62
			z"/>
		<path style="fill:#EF8829;" d="M184.672,131.531c0.674,0.079,1.327,0.238,1.993,0.349
			C185.998,131.769,185.345,131.61,184.672,131.531z"/>
		<path style="fill:#EF8829;" d="M193.857,133.695c0.947,0.342,1.855,0.771,2.772,1.18
			C195.712,134.466,194.804,134.036,193.857,133.695z"/>
		<path style="fill:#EF8829;" d="M212.504,147.353c-7.168-5.672-16.102-8.874-25.518-8.874c-10.857,0-20.772,4.215-28.154,11.126
			c-0.965,1.077-1.959,2.127-3.004,3.126c-3.352,3.874-5.988,8.386-7.715,13.334c1.749,0.271,3.498,0.545,5.298,0.711
			c2.606-12.213,13.476-21.402,26.455-21.402c8.839,0,16.952,4.391,21.941,11.306c4.332-2.643,8.055-5.681,10.952-9.027
			C212.68,147.548,212.585,147.458,212.504,147.353z"/>
		<path style="fill:#EF8829;" d="M147.253,165.95c-0.683-0.112-1.358-0.239-2.032-0.365
			C145.896,165.714,146.57,165.837,147.253,165.95z"/>
		<path style="fill:#EF8829;" d="M189.35,132.354c0.862,0.204,1.695,0.495,2.539,0.753
			C191.045,132.849,190.213,132.557,189.35,132.354z"/>
	</g>
	<g>
		<path style="fill:#EF8829;" d="M165.818,211.132c0.544,0.034,1.082,0.087,1.621,0.134
			C166.899,211.22,166.363,211.166,165.818,211.132z"/>
		<path style="fill:#EF8829;" d="M167.439,272.662c-0.539,0.047-1.077,0.1-1.621,0.134
			C166.363,272.762,166.899,272.708,167.439,272.662z"/>
		<path style="fill:#EF8829;" d="M168.909,211.417c-22.243,2.47-39.815,15.451-39.815,30.547c0,15.096,17.572,28.077,39.815,30.547
			c22.365-2.398,40.085-15.393,40.085-30.547C208.994,226.81,191.274,213.815,168.909,211.417z"/>
	</g>
	<g>
		<polygon style="fill:#CE593F;" points="52.646,152.751 49.661,137.923 49.617,137.923 55.108,164.759 		"/>
		<path style="fill:#CE593F;" d="M227.676,153.923l0.009-0.521c-3.767,5.583-8.932,10.446-15.465,14.832
			c-13.646,9.162-31.65,14.083-50.692,14.083s-37.046-4.998-50.693-14.161c-6.715-4.508-11.983-9.6-15.772-15.461l0.313,1.227
			H67.681l31.342,153h139.803l31.581-153H227.676z M204.718,275.343c-11.637,8.148-26.975,12.634-43.191,12.634
			c-16.215,0-31.554-4.487-43.191-12.634c-12.452-8.718-19.311-20.572-19.311-33.379c0-12.806,6.858-24.661,19.311-33.379
			c11.638-8.148,26.976-12.634,43.191-12.634c16.216,0,31.554,4.487,43.191,12.634c12.452,8.718,19.311,20.572,19.311,33.379
			C224.029,254.77,217.17,266.625,204.718,275.343z"/>
	</g>
	<path style="fill:#3F2D20;" d="M280.705,80.327c-6.403-8.376-15.383-13.344-26.703-14.796
		c-10.097-15.054-27.265-24.984-46.714-24.984c-1.786,0-3.551,0.094-5.295,0.257C195.214,17.085,173.201,0,147.946,0
		c-29.46,0-53.681,22.785-56.01,51.656c-8.392,2.839-15.9,7.61-21.997,13.777c-11.794,1.31-21.108,6.352-27.68,15.014
		c-14.729,19.413-9.475,50.097-9.244,51.393c0.006,0.033,37.706,185.196,37.706,185.196c0.714,3.502,3.793,6.018,7.366,6.018
		h166.881c3.574,0,6.653-2.515,7.365-6.018c0,0,37.701-185.163,37.707-185.196C290.271,130.538,295.545,99.736,280.705,80.327z
		 M84.227,308.02l-34.61-169.98h39.374c2.298,11.458,9.854,21.894,21.844,29.943c13.646,9.162,31.65,14.208,50.693,14.208
		s37.046-5.046,50.693-14.208c11.989-8.049,19.546-18.485,21.844-29.943h39.374l-34.611,169.98H84.227z M147.946,15.034
		c18.253,0,34.198,12.177,39.39,29.182c-4.591,1.751-8.895,4.086-12.822,6.916c-2.384-12.496-13.388-21.974-26.568-21.974
		c-12.757,0-23.473,8.877-26.311,20.778c-3.787-0.807-7.71-1.241-11.735-1.241c-0.818,0-1.631,0.027-2.441,0.062
		C110.978,29.599,127.788,15.034,147.946,15.034z M109.9,63.729c22.704,0,41.176,18.472,41.176,41.177s-18.472,41.177-41.176,41.177
		c-0.301,0-0.606-0.017-0.91-0.024c-3.51-4.566-5.532-9.626-5.682-14.915c2.111,0.531,4.317,0.815,6.591,0.815
		c14.918,0,27.054-12.136,27.054-27.053c0-14.918-12.136-27.054-27.054-27.054c-14.917,0-27.053,12.136-27.053,27.054
		c0,6.954,2.639,13.302,6.967,18.1H72.912c-2.743-5.603-4.189-11.809-4.189-18.1C68.723,82.201,87.196,63.729,109.9,63.729z
		 M207.288,84.738c6.626,0,12.018,5.392,12.018,12.021c0,6.627-5.392,12.018-12.018,12.018c-6.628,0-12.02-5.391-12.02-12.018
		C195.269,90.13,200.66,84.738,207.288,84.738z M212.76,147.654c-2.897,3.346-6.621,6.384-10.953,9.027
		c-4.989-6.915-13.102-11.306-21.941-11.306c-12.979,0-23.849,9.189-26.455,21.402c-4.84-0.448-9.51-1.282-13.922-2.458
		c1.417-7.119,4.665-13.553,9.219-18.816c1.044-1,2.039-2.05,3.004-3.126c7.382-6.911,17.297-11.126,28.154-11.126
		C192.879,131.251,204.986,137.337,212.76,147.654z M151.877,67.575c-4.491-5.043-9.87-9.269-15.896-12.44
		c0.548-6.124,5.701-10.943,11.965-10.943c6.627,0,12.019,5.392,12.019,12.019C159.966,61.468,156.607,65.949,151.877,67.575z
		 M121.919,104.906c0,6.627-5.392,12.019-12.019,12.019c-6.627,0-12.019-5.391-12.019-12.019c0-6.627,5.391-12.019,12.019-12.019
		C116.527,92.886,121.919,98.278,121.919,104.906z M179.867,160.409c2.842,0,5.516,1.024,7.621,2.75
		c-5.65,1.824-11.792,3.089-18.24,3.654C171.267,163.009,175.266,160.409,179.867,160.409z M248.465,96.758
		c0,9.612-3.353,18.875-9.46,26.247h-11.714c-4.151,0-7.517,3.365-7.517,7.517c0,0.742-0.049,1.479-0.121,2.212
		c-3.488-3.501-7.403-6.492-11.627-8.942c14.577-0.393,26.316-12.365,26.316-27.034c0-14.918-12.136-27.055-27.053-27.055
		c-5.62,0-10.845,1.724-15.175,4.669c-5.073,3.45-8.914,8.578-10.726,14.579c-0.747,2.473-1.153,5.093-1.153,7.806
		c0,8.073,3.559,15.328,9.187,20.288c-3.126-0.537-6.317-0.83-9.555-0.83c-2.889,0-5.724,0.233-8.498,0.655
		c-3.177-5.663-4.954-11.993-5.207-18.519c-0.02-0.531-0.051-1.061-0.051-1.594c0-18.98,12.912-34.994,30.411-39.74
		c3.434-0.932,7.041-1.438,10.767-1.438C229.993,55.58,248.465,74.053,248.465,96.758z M56.678,86.835
		c-1.934,5.674-2.989,11.75-2.989,18.07c0,6.18,1.045,12.299,3.015,18.1h-9.559c-0.577-8.465-0.356-23.688,7.116-33.504
		C55.002,88.527,55.82,87.656,56.678,86.835z M275.911,123.006h-18.924c4.242-8.027,6.512-17.018,6.512-26.247
		c0-4.555-0.559-8.98-1.587-13.224c2.652,1.477,4.929,3.421,6.826,5.893C276.268,99.242,276.489,114.524,275.911,123.006z"/>
</g>
<g>
</g>
<g>
</g>
<g>
</g>
<g>
</g>
<g>
</g>
<g>
</g>
<g>
</g>
<g>
</g>
<g>
</g>
<g>
</g>
<g>
</g>
<g>
</g>
<g>
</g>
<g>
</g>
<g>
</g>
</svg>
