<?xml version="1.0" encoding="iso-8859-1"?>
<!-- Generator: Adobe Illustrator 18.0.0, SVG Export Plug-In . SVG Version: 6.00 Build 0)  -->
<!DOCTYPE svg PUBLIC "-//W3C//DTD SVG 1.1//EN" "http://www.w3.org/Graphics/SVG/1.1/DTD/svg11.dtd">
<svg version="1.1" id="Capa_1" xmlns="http://www.w3.org/2000/svg" xmlns:xlink="http://www.w3.org/1999/xlink" x="0px" y="0px"
	 viewBox="0 0 367.515 367.515" style="enable-background:new 0 0 367.515 367.515;" xml:space="preserve">
<g>
	<polygon style="fill:#CE593F;" points="108.35,159.833 124.35,153.207 124.35,102.654 108.35,109.268 	"/>
	<polygon style="fill:#CE593F;" points="108.35,302.231 98.557,306.509 124.35,295.605 124.35,245.038 108.35,251.663 	"/>
	<g>
		<path style="fill:#FDD44B;" d="M113.25,352.208c-0.836,0.173-1.702,0.265-2.59,0.265
			C111.548,352.473,112.413,352.381,113.25,352.208z"/>
		<path style="fill:#FDD44B;" d="M108.35,339.694c0,5.266,3.438,9.796,7.998,11.751c4.561-1.953,8.002-6.483,8.002-11.751v-23.457
			l-16,6.625V339.694z"/>
		<path style="fill:#FDD44B;" d="M115.662,351.45c-0.649,0.278-1.338,0.474-2.037,0.642
			C114.324,351.924,115.013,351.727,115.662,351.45z"/>
	</g>
	<polygon style="fill:#FDD44B;" points="108.35,231.031 124.35,224.406 124.35,173.839 108.35,180.465 	"/>
	<path style="fill:#FDD44B;" d="M127.844,44.382c-10.3,12.218-17.254,27.328-19.45,43.932l18.092-7.58
		c3.26-9.852,8.985-18.59,16.457-25.469L127.844,44.382z"/>
	<g>
		<g>
			<path style="fill:#CE593F;" d="M262.682,73.793L242.34,85.287c1.126,4.602,1.737,9.402,1.737,14.345
				c0,7.046,5.733,12.779,12.778,12.779c6.101,0,11.203-4.305,12.464-10.033C268.727,95.451,265.768,80.294,262.682,73.793z"/>
			<path style="fill:#CE593F;" d="M269.335,102.33c0.027-0.128,0.042-0.259,0.065-0.387
				C269.377,102.07,269.363,102.203,269.335,102.33z"/>
		</g>
		<path style="fill:#CE593F;" d="M183.757,23.784c-15.54,0-30.112,4.174-42.697,11.427l-7.276-5.351l22.141,16.283
			c11.788-6.816,29.01-6.804,29.598-6.786l9.358-14.824C191.236,24.056,187.529,23.784,183.757,23.784z"/>
		<path style="fill:#FDD44B;" d="M254.536,61.119c-9.559-13.888-27.334-29.613-43.849-33.299l4.907-7.921l-13.962,22.118
			c15.189,4.722,27.82,15.298,35.252,29.076l22.249-12.571L254.536,61.119z"/>
	</g>
	<path style="fill:#3F2D20;" d="M276.158,59.077c-0.136-0.389-20.891-40.963-61.108-54.03c-0.298-0.117-52.606-20.024-99.254,20.047
		C95.229,42.76,83.114,69.588,82.851,98.712c-0.002,0.078-0.012,0.154-0.012,0.232v240.75c0,15.34,12.481,27.821,27.821,27.821
		c15.339,0,27.819-12.481,27.819-27.821V99.632c0-24.967,20.311-45.279,45.277-45.279c24.967,0,45.279,20.312,45.279,45.279
		c0,15.34,12.48,27.82,27.82,27.82c15.34,0,27.82-12.48,27.82-27.82C284.676,85.214,282.752,73.773,276.158,59.077z M242.34,85.287
		l22.837-12.904c2.876,8.569,4.458,17.725,4.458,27.249c0,7.046-5.733,12.779-12.779,12.779c-7.046,0-12.778-5.733-12.778-12.779
		C244.077,94.689,243.466,89.889,242.34,85.287z M155.925,46.143L133.784,29.86c14.09-10.12,31.34-16.104,49.973-16.104
		c5.774,0,11.413,0.582,16.871,1.673l-15.104,23.927C184.935,39.339,167.713,39.326,155.925,46.143z M110.66,352.473
		c-7.047,0-12.779-5.733-12.779-12.779v-16.832l25.557-10.904v27.736C123.438,346.741,117.706,352.473,110.66,352.473z
		 M97.881,306.509v-54.846l25.557-10.903v54.845L97.881,306.509z M123.467,98.37c-0.015,0.19-0.029,0.38-0.029,0.574v54.263
		l-25.557,10.904v-54.843L123.467,98.37z M97.881,180.465l25.557-10.904v54.846l-25.557,10.903V180.465z M126.486,80.734
		L98.179,92.792c1.622-20.464,10.437-38.924,23.925-52.851l20.839,15.325C135.471,62.144,129.746,70.882,126.486,80.734z
		 M215.593,19.899c18.591,7.451,34,21.203,43.539,38.623l-22.249,12.571c-7.432-13.778-20.063-24.354-35.252-29.076L215.593,19.899z
		"/>
</g>
<g>
</g>
<g>
</g>
<g>
</g>
<g>
</g>
<g>
</g>
<g>
</g>
<g>
</g>
<g>
</g>
<g>
</g>
<g>
</g>
<g>
</g>
<g>
</g>
<g>
</g>
<g>
</g>
<g>
</g>
</svg>
