<?xml version="1.0" encoding="iso-8859-1"?>
<!-- Generator: Adobe Illustrator 18.0.0, SVG Export Plug-In . SVG Version: 6.00 Build 0)  -->
<!DOCTYPE svg PUBLIC "-//W3C//DTD SVG 1.1//EN" "http://www.w3.org/Graphics/SVG/1.1/DTD/svg11.dtd">
<svg version="1.1" id="Capa_1" xmlns="http://www.w3.org/2000/svg" xmlns:xlink="http://www.w3.org/1999/xlink" x="0px" y="0px"
	 viewBox="0 0 332.765 332.765" style="enable-background:new 0 0 332.765 332.765;" xml:space="preserve">
<g>
	<path style="fill:#3F2D20;" d="M148.231,149.231c-3.811-1.639-8.234,0.118-9.876,3.933c-14.26,33.135-20.974,70.221-24.096,95.498
		c-0.509,4.12,2.42,7.872,6.54,8.382c0.312,0.039,0.623,0.058,0.93,0.058c3.741,0,6.981-2.79,7.451-6.597
		c3.002-24.304,9.426-59.89,22.985-91.396C153.806,155.294,152.044,150.872,148.231,149.231z"/>
	<g>
		<path style="fill:#CE593F;" d="M96.523,301.562c-0.197-0.706-0.356-1.426-0.479-2.158
			C96.167,300.137,96.326,300.856,96.523,301.562z"/>
		<path style="fill:#CE593F;" d="M95.925,298.651c-0.12-0.915-0.204-1.842-0.204-2.788C95.721,296.81,95.804,297.736,95.925,298.651
			z"/>
		<path style="fill:#CE593F;" d="M97.619,304.625c-0.368-0.814-0.686-1.653-0.951-2.515
			C96.933,302.972,97.251,303.81,97.619,304.625z"/>
		<path style="fill:#CE593F;" d="M99.275,307.613c0.997,1.513,2.178,2.895,3.516,4.124
			C101.453,310.51,100.272,309.126,99.275,307.613z"/>
		<path style="fill:#CE593F;" d="M139.416,151.456c0.102-0.127,0.207-0.251,0.316-0.37
			C139.622,151.206,139.519,151.328,139.416,151.456z"/>
		<path style="fill:#CE593F;" d="M98.931,307.064c-0.389-0.63-0.746-1.281-1.069-1.95C98.186,305.784,98.542,306.433,98.931,307.064
			z"/>
		<path style="fill:#CE593F;" d="M134.884,161.736c0.217-0.563,0.424-1.129,0.645-1.69
			C135.308,160.608,135.101,161.173,134.884,161.736z"/>
		<path style="fill:#CE593F;" d="M195.216,126.733c-0.023-0.053-0.045-0.102-0.068-0.155
			C195.171,126.631,195.193,126.68,195.216,126.733z"/>
		<path style="fill:#CE593F;" d="M105.147,313.628c-0.668-0.466-1.306-0.969-1.917-1.501
			C103.841,312.659,104.478,313.162,105.147,313.628z"/>
		<path style="fill:#CE593F;" d="M107.832,315.243c-0.839-0.427-1.649-0.901-2.422-1.424
			C106.184,314.342,106.992,314.816,107.832,315.243z"/>
		<path style="fill:#CE593F;" d="M205.182,146.753c-0.982-1.542-3.975-6.951-7.808-15.438c0.001,0.003-0.112-0.026-0.111-0.026
			h-47.436c-3.563,8-6.511,13.863-8.643,18.497c-0.002,0.001-0.004,0.021-0.006,0.022c2.034-1.313,4.663-1.613,7.053-0.585
			c3.813,1.641,5.575,6.067,3.934,9.881c-13.56,31.506-19.983,67.094-22.985,91.399c-0.47,3.808-3.709,6.598-7.451,6.598
			c-0.307,0-0.618-0.018-0.93-0.057c-4.121-0.509-7.049-4.262-6.54-8.381c2.691-21.787,8.064-52.344,18.624-81.586
			c-0.075,0.206-0.157,0.41-0.231,0.616c-25.72,59.188-26.909,138.096-26.909,138.194c0,3.366,0.788,6.334,2.191,9.184
			c3.084,1.549,6.574,2.219,10.279,2.219h96.319c12.403,0,22.955-9.368,22.955-21.426c0-0.006,0-0.012,0-0.017
			C237.487,294.469,236.754,208.275,205.182,146.753z"/>
	</g>
	<path style="fill:#84BD93;" d="M188.783,107.289c-1.894-10-2.641-21-1.027-31h-32.76c1.614,10,0.868,21-1.028,31H188.783z"/>
	<path style="fill:#EF8829;" d="M121.851,23.729c-0.115-0.026-0.227-0.058-0.343-0.079C121.625,23.67,121.737,23.703,121.851,23.729
		z"/>
	<path style="fill:#EF8829;" d="M123.078,24.112c-0.108-0.045-0.216-0.088-0.326-0.128C122.862,24.023,122.97,24.067,123.078,24.112
		z"/>
	<path style="fill:#EF8829;" d="M124.187,24.674c-0.073-0.046-0.149-0.085-0.224-0.129
		C124.037,24.588,124.114,24.628,124.187,24.674z"/>
	<path style="fill:#EF8829;" d="M211.363,23.633c-0.066,0.011-0.128,0.032-0.194,0.044
		C211.234,23.665,211.297,23.644,211.363,23.633z"/>
	<path style="fill:#EF8829;" d="M210.185,23.928c-0.034,0.012-0.066,0.028-0.101,0.04C210.119,23.956,210.151,23.94,210.185,23.928z
		"/>
	<path style="fill:#EF8829;" d="M209.065,24.412c-0.004,0.002-0.008,0.004-0.011,0.006
		C209.057,24.416,209.061,24.414,209.065,24.412z"/>
	<path style="fill:#EF8829;" d="M126.878,24.289c-0.6,0-3.445,0.015-3.963,0.24c0.86,0.756,3.834,2.492,4.284,3.598l2.343,6.161
		h0.714c3.06,0,5.814,1.752,6.965,4.587l9.137,22.413h45.814l15.437-33.073c0.524-1.291,1.878-2.796,1.878-3.598v-0.329H126.878z"/>
	<path style="fill:#3F2D20;" d="M218.15,139.542c-0.116-0.227-21.398-35.265-13.989-67.815c0.012-0.029,0.029-0.054,0.04-0.082
		l13.453-33.155c9.833-0.87,17.567-9.153,17.567-19.208C235.222,8.65,226.571,0,215.94,0h-99.085
		c-10.633,0-19.282,8.65-19.282,19.283c0,10.055,7.735,18.338,17.568,19.208l13.303,32.783
		c9.509,27.992-13.743,68.036-13.863,68.269c-33.526,65.02-33.897,156.8-33.876,157.035c0.391,20.017,17.06,36.187,37.509,36.187
		h96.319c20.68,0,37.505-16.533,37.527-36.862c0-0.013,0.002-0.025,0.002-0.039C252.061,292.165,251.675,204.563,218.15,139.542z
		 M112.607,19.283c0-2.343,1.905-4.249,4.248-4.249h99.085c2.342,0,4.248,1.906,4.248,4.249c0,2.343-1.906,4.249-4.248,4.249h-3.379
		c-3.06,0-5.814,1.855-6.965,4.69l-13.423,33.079h-51.551l-13.423-33.079c-1.151-2.835-3.905-4.69-6.965-4.69h-3.379
		C114.512,23.532,112.607,21.626,112.607,19.283z M144.973,76.336h42.783c-1.614,10.369-0.867,20.617,1.027,29.967h-44.837
		C145.841,96.953,146.588,86.705,144.973,76.336z M237.027,295.863c0,12.058-10.092,21.867-22.495,21.867h-96.319
		c-12.403,0-22.492-9.809-22.492-21.867c0-0.104,1.339-89.252,32.057-149.11c1.326-2.081,5.712-12.407,12.025-25.416h53.123
		c5.926,14.288,10.699,23.335,12.025,25.416c31.572,61.522,32.072,147.716,32.075,149.092
		C237.027,295.851,237.027,295.857,237.027,295.863z"/>
</g>
<g>
</g>
<g>
</g>
<g>
</g>
<g>
</g>
<g>
</g>
<g>
</g>
<g>
</g>
<g>
</g>
<g>
</g>
<g>
</g>
<g>
</g>
<g>
</g>
<g>
</g>
<g>
</g>
<g>
</g>
</svg>
