<?xml version="1.0" encoding="iso-8859-1"?>
<!-- Generator: Adobe Illustrator 18.0.0, SVG Export Plug-In . SVG Version: 6.00 Build 0)  -->
<!DOCTYPE svg PUBLIC "-//W3C//DTD SVG 1.1//EN" "http://www.w3.org/Graphics/SVG/1.1/DTD/svg11.dtd">
<svg version="1.1" id="Capa_1" xmlns="http://www.w3.org/2000/svg" xmlns:xlink="http://www.w3.org/1999/xlink" x="0px" y="0px"
	 viewBox="0 0 342.886 342.886" style="enable-background:new 0 0 342.886 342.886;" xml:space="preserve">
<g>
	<g>
		<path style="fill:#84BD93;" d="M30.116,169.534c0.801-0.359,1.616-0.69,2.451-0.98C31.731,168.844,30.916,169.176,30.116,169.534z
			"/>
		<path style="fill:#84BD93;" d="M24.031,173.15c-1.902-1.507-3.73-3.067-5.461-4.694c-0.419,3.266-0.705,7.003-0.732,11.036
			c-0.047,0.065-0.084,0.137-0.131,0.202c1.928-2.687,4.277-5.046,6.954-6.988C24.453,172.858,24.235,172.994,24.031,173.15z"/>
		<path style="fill:#84BD93;" d="M25.535,172.091c0.44-0.296,0.892-0.577,1.348-0.851C26.427,171.515,25.976,171.795,25.535,172.091
			z"/>
		<path style="fill:#84BD93;" d="M27.769,170.716c0.508-0.282,1.029-0.541,1.554-0.794
			C28.799,170.176,28.277,170.434,27.769,170.716z"/>
	</g>
	<g>
		<path style="fill:#84BD93;" d="M30.172,206.916c0.903,1.192,1.971,2.247,3.173,3.137
			C32.143,209.164,31.076,208.106,30.172,206.916z"/>
		<path style="fill:#84BD93;" d="M45.345,182.155c0.72,0.128,1.426,0.3,2.108,0.524C46.771,182.455,46.066,182.283,45.345,182.155z"
			/>
		<path style="fill:#84BD93;" d="M47.777,182.797c0.643,0.227,1.268,0.492,1.869,0.797C49.045,183.288,48.42,183.024,47.777,182.797
			z"/>
		<path style="fill:#84BD93;" d="M55.153,188.256c-0.891-1.204-1.948-2.274-3.141-3.178
			C53.204,185.983,54.263,187.052,55.153,188.256z"/>
		<path style="fill:#84BD93;" d="M27.179,199.794c-0.11-0.747-0.186-1.505-0.186-2.283
			C26.992,198.288,27.068,199.046,27.179,199.794z"/>
		<path style="fill:#84BD93;" d="M49.876,183.705c0.645,0.341,1.258,0.731,1.846,1.156
			C51.134,184.436,50.521,184.046,49.876,183.705z"/>
		<path style="fill:#84BD93;" d="M42.606,181.898c0.777,0,1.536,0.076,2.283,0.186C44.141,181.974,43.383,181.898,42.606,181.898z"
			/>
		<path style="fill:#84BD93;" d="M37.788,212.356c-0.745-0.243-1.461-0.547-2.153-0.894
			C36.327,211.809,37.043,212.114,37.788,212.356z"/>
		<path style="fill:#84BD93;" d="M56.556,190.536c0.348,0.693,0.653,1.412,0.896,2.159c-1.519-0.494-3.137-0.769-4.819-0.769
			c-8.61,0-15.613,7.004-15.613,15.612c0,1.682,0.275,3.299,0.769,4.818c1.519,0.494,3.136,0.769,4.817,0.769
			c8.611,0,15.615-7.005,15.615-15.614C58.221,195.003,57.612,192.639,56.556,190.536z"/>
		<path style="fill:#84BD93;" d="M56.482,190.382c-0.348-0.674-0.744-1.318-1.183-1.93
			C55.737,189.064,56.134,189.708,56.482,190.382z"/>
		<path style="fill:#84BD93;" d="M35.473,211.384c-0.672-0.347-1.314-0.743-1.925-1.179
			C34.16,210.642,34.801,211.037,35.473,211.384z"/>
		<path style="fill:#84BD93;" d="M27.772,202.359c-0.224-0.683-0.396-1.388-0.524-2.108
			C27.377,200.971,27.549,201.675,27.772,202.359z"/>
		<path style="fill:#84BD93;" d="M28.687,204.548c-0.305-0.601-0.57-1.225-0.796-1.867
			C28.117,203.323,28.382,203.947,28.687,204.548z"/>
		<path style="fill:#84BD93;" d="M29.955,206.625c-0.424-0.587-0.814-1.2-1.155-1.844C29.14,205.425,29.53,206.038,29.955,206.625z"
			/>
	</g>
	<g>
		<path style="fill:#84BD93;" d="M112.716,206.841c0.641,0.339,1.252,0.728,1.836,1.15
			C113.967,207.569,113.358,207.18,112.716,206.841z"/>
		<path style="fill:#84BD93;" d="M110.618,205.932c0.639,0.226,1.261,0.489,1.859,0.793
			C111.878,206.421,111.257,206.158,110.618,205.932z"/>
		<path style="fill:#84BD93;" d="M105.443,205.033c0.777,0,1.535,0.076,2.282,0.186
			C106.978,205.108,106.221,205.033,105.443,205.033z"/>
		<path style="fill:#84BD93;" d="M108.183,205.289c0.72,0.128,1.424,0.3,2.106,0.523
			C109.607,205.588,108.903,205.417,108.183,205.289z"/>
		<path style="fill:#84BD93;" d="M117.976,211.373c-0.886-1.195-1.936-2.256-3.12-3.155
			C116.039,209.117,117.09,210.178,117.976,211.373z"/>
		<path style="fill:#84BD93;" d="M118.145,211.599c0.431,0.604,0.823,1.239,1.166,1.902
			C118.967,212.837,118.577,212.203,118.145,211.599z"/>
		<path style="fill:#84BD93;" d="M119.406,213.699c0.336,0.673,0.631,1.369,0.869,2.092
			C120.037,215.068,119.742,214.372,119.406,213.699z"/>
		<path style="fill:#84BD93;" d="M120.288,215.829c-1.518-0.494-3.135-0.769-4.817-0.769c-8.61,0-15.613,7.004-15.613,15.612
			c0,1.682,0.275,3.299,0.769,4.818c-0.75-0.244-1.472-0.55-2.167-0.9c2.104,1.059,4.472,1.669,6.984,1.669
			c8.61,0,15.613-7.005,15.613-15.614C121.057,218.964,120.782,217.348,120.288,215.829z"/>
		<path style="fill:#84BD93;" d="M92.795,229.765c-0.427-0.59-0.818-1.206-1.161-1.853
			C91.977,228.559,92.369,229.175,92.795,229.765z"/>
		<path style="fill:#84BD93;" d="M98.317,234.523c-0.677-0.349-1.323-0.748-1.938-1.188
			C96.994,233.776,97.64,234.173,98.317,234.523z"/>
		<path style="fill:#84BD93;" d="M90.611,225.495c-0.225-0.684-0.397-1.391-0.525-2.113
			C90.214,224.105,90.386,224.811,90.611,225.495z"/>
		<path style="fill:#84BD93;" d="M93.004,230.045c0.907,1.197,1.979,2.257,3.188,3.151C94.984,232.303,93.912,231.24,93.004,230.045
			z"/>
		<path style="fill:#84BD93;" d="M89.83,220.645L89.83,220.645c0,0.778,0.076,1.537,0.186,2.284
			C89.906,222.182,89.83,221.423,89.83,220.645z"/>
		<path style="fill:#84BD93;" d="M91.529,227.692c-0.308-0.605-0.575-1.235-0.803-1.882
			C90.954,226.458,91.22,227.086,91.529,227.692z"/>
	</g>
	<g>
		<path style="fill:#84BD93;" d="M173.878,212.831c0.721,0.128,1.426,0.3,2.109,0.524
			C175.304,213.131,174.599,212.959,173.878,212.831z"/>
		<path style="fill:#84BD93;" d="M178.411,214.383c0.642,0.34,1.253,0.729,1.839,1.152
			C179.664,215.112,179.053,214.723,178.411,214.383z"/>
		<path style="fill:#84BD93;" d="M176.308,213.473c0.642,0.226,1.265,0.491,1.865,0.796
			C177.572,213.963,176.95,213.699,176.308,213.473z"/>
		<path style="fill:#84BD93;" d="M171.138,212.575c0.777,0,1.535,0.076,2.281,0.186C172.673,212.65,171.915,212.575,171.138,212.575
			z"/>
		<path style="fill:#84BD93;" d="M183.678,218.924c-0.888-1.199-1.941-2.264-3.129-3.166
			C181.736,216.661,182.791,217.725,183.678,218.924z"/>
		<path style="fill:#84BD93;" d="M185.094,221.224c0.344,0.687,0.646,1.399,0.888,2.138
			C185.74,222.623,185.438,221.912,185.094,221.224z"/>
		<path style="fill:#84BD93;" d="M183.835,219.134c0.435,0.609,0.83,1.249,1.175,1.918
			C184.664,220.383,184.271,219.744,183.835,219.134z"/>
		<path style="fill:#84BD93;" d="M154.529,228.188c0,0.001,0,0.001,0,0.001c0,0.779,0.076,1.538,0.187,2.286
			C154.605,229.727,154.529,228.967,154.529,228.188z"/>
		<path style="fill:#84BD93;" d="M185.984,223.372c-1.519-0.494-3.136-0.769-4.819-0.769c-8.61,0-15.613,7.004-15.613,15.612
			c0,1.682,0.275,3.299,0.769,4.818c-0.751-0.244-1.473-0.551-2.169-0.901c2.105,1.059,4.473,1.67,6.986,1.67
			c8.61,0,15.615-7.004,15.615-15.612C186.754,226.508,186.479,224.891,185.984,223.372z"/>
		<path style="fill:#84BD93;" d="M158.494,237.312c-0.429-0.592-0.823-1.212-1.167-1.862
			C157.671,236.101,158.065,236.719,158.494,237.312z"/>
		<path style="fill:#84BD93;" d="M158.695,237.582c0.909,1.201,1.984,2.264,3.196,3.159
			C160.679,239.847,159.605,238.781,158.695,237.582z"/>
		<path style="fill:#84BD93;" d="M164.014,242.066c-0.678-0.349-1.326-0.749-1.942-1.19
			C162.688,241.317,163.335,241.716,164.014,242.066z"/>
		<path style="fill:#84BD93;" d="M157.228,235.244c-0.312-0.611-0.581-1.247-0.811-1.901
			C156.647,233.998,156.916,234.632,157.228,235.244z"/>
		<path style="fill:#84BD93;" d="M156.307,233.042c-0.226-0.686-0.398-1.396-0.527-2.12
			C155.909,231.647,156.082,232.356,156.307,233.042z"/>
	</g>
	<g>
		<path style="fill:#84BD93;" d="M127.057,199.012c0.415,0.414,0.847,0.811,1.238,1.248
			C127.905,199.823,127.472,199.427,127.057,199.012z"/>
		<path style="fill:#84BD93;" d="M154.62,202.403c0.074-0.048,0.146-0.098,0.221-0.145
			C154.766,202.305,154.694,202.355,154.62,202.403z"/>
		<path style="fill:#84BD93;" d="M158.003,200.515c0.175-0.083,0.354-0.16,0.531-0.241
			C158.357,200.355,158.178,200.431,158.003,200.515z"/>
		<path style="fill:#84BD93;" d="M123.082,195.597c0.96,0.678,1.875,1.413,2.75,2.193
			C124.958,197.009,124.041,196.275,123.082,195.597z"/>
		<path style="fill:#84BD93;" d="M130.466,202.994c-0.253-0.357-0.541-0.685-0.808-1.031
			C129.925,202.309,130.213,202.637,130.466,202.994z"/>
		<path style="fill:#84BD93;" d="M140.483,228.19c0-8.061,3.144-15.39,8.249-20.867c-4.927-0.357-10.475-0.839-16.479-1.498
			c-0.175-0.316-0.391-0.604-0.577-0.913c2.777,4.608,4.421,9.972,4.421,15.734c0,16.864-13.687,30.587-30.535,30.653
			c15.794,2.892,33.536,4.521,53.091,4.878C147.957,251.386,140.483,240.649,140.483,228.19z"/>
	</g>
	<g>
		<path style="fill:#84BD93;" d="M71.504,187.338c-0.326-0.925-0.683-1.835-1.093-2.717
			C70.821,185.503,71.177,186.414,71.504,187.338z"/>
		<path style="fill:#84BD93;" d="M72.341,190.171c-0.155-0.628-0.332-1.245-0.524-1.856
			C72.01,188.926,72.185,189.544,72.341,190.171z"/>
		<path style="fill:#84BD93;" d="M90.509,193.908c0.081-0.046,0.165-0.087,0.247-0.131C90.675,193.822,90.59,193.862,90.509,193.908
			z"/>
		<path style="fill:#84BD93;" d="M74.788,220.646c0-9.112,4.014-17.288,10.348-22.906c-0.001,0.001-0.003,0.002-0.004,0.004
			c-4.015-0.976-8.029-2.05-12.023-3.216c-0.004-0.047-0.015-0.092-0.019-0.139c0.105,1.028,0.173,2.068,0.173,3.123
			c0,15.964-12.267,29.11-27.869,30.524c7.754,5.651,16.917,10.491,27.455,14.461c6.22,2.344,12.928,4.387,20.102,6.135
			C82.259,243.838,74.788,233.101,74.788,220.646z"/>
		<path style="fill:#84BD93;" d="M72.924,193.21c-0.087-0.618-0.185-1.232-0.308-1.838C72.74,191.977,72.836,192.592,72.924,193.21z
			"/>
		<path style="fill:#84BD93;" d="M93.235,192.563c0.221-0.096,0.44-0.195,0.663-0.286C93.674,192.368,93.455,192.466,93.235,192.563
			z"/>
	</g>
	<g>
		<path style="fill:#84BD93;" d="M327.652,163.676c0.05,1.23,0.082,2.488,0.08,3.784
			C327.733,166.165,327.703,164.906,327.652,163.676z"/>
		<path style="fill:#84BD93;" d="M327.612,171.949c0.079-1.501,0.118-2.968,0.121-4.399
			C327.729,168.981,327.691,170.449,327.612,171.949z"/>
		<path style="fill:#84BD93;" d="M327.421,159.947c0.078,0.947,0.143,1.92,0.193,2.919
			C327.563,161.866,327.499,160.894,327.421,159.947z"/>
		<path style="fill:#84BD93;" d="M326.994,155.779c0.135,1.058,0.254,2.175,0.358,3.324
			C327.247,157.955,327.13,156.837,326.994,155.779z"/>
		<path style="fill:#84BD93;" d="M326.994,164.904c-2.919,2.742-6.101,5.304-9.485,7.71c-0.042-0.031-0.088-0.057-0.131-0.087
			c3.679,2.615,6.766,6.011,8.997,9.959c0.677-3.626,1.058-7.156,1.237-10.533C327.483,169.438,327.271,167.062,326.994,164.904z"/>
		<path style="fill:#84BD93;" d="M316.478,171.927c-0.407-0.269-0.818-0.532-1.238-0.782
			C315.66,171.394,316.071,171.658,316.478,171.927z"/>
		<path style="fill:#84BD93;" d="M314.313,170.618c-0.474-0.26-0.957-0.504-1.447-0.739
			C313.355,170.113,313.838,170.358,314.313,170.618z"/>
		<path style="fill:#84BD93;" d="M312.068,169.498c-0.771-0.344-1.554-0.665-2.358-0.944
			C310.513,168.833,311.296,169.155,312.068,169.498z"/>
	</g>
	<g>
		<path style="fill:#84BD93;" d="M211.811,202.993c0.249-0.352,0.533-0.676,0.797-1.017
			C212.344,202.318,212.06,202.641,211.811,202.993z"/>
		<path style="fill:#84BD93;" d="M187.432,202.254c0.078,0.05,0.154,0.103,0.232,0.153
			C187.586,202.357,187.511,202.304,187.432,202.254z"/>
		<path style="fill:#84BD93;" d="M215.195,199.036c-0.406,0.407-0.831,0.795-1.214,1.224
			C214.364,199.832,214.788,199.443,215.195,199.036z"/>
		<path style="fill:#84BD93;" d="M216.445,197.79c0.874-0.78,1.789-1.515,2.748-2.192
			C218.234,196.276,217.318,197.009,216.445,197.79z"/>
		<path style="fill:#84BD93;" d="M183.741,200.274c0.178,0.081,0.358,0.158,0.534,0.242
			C184.099,200.431,183.92,200.355,183.741,200.274z"/>
		<path style="fill:#84BD93;" d="M206.178,220.646c0-5.753,1.638-11.11,4.408-15.713c-0.181,0.302-0.392,0.584-0.564,0.893
			c-6.004,0.658-11.551,1.141-16.478,1.497c-0.001-0.001-0.002-0.001-0.002-0.002c5.107,5.478,8.253,12.807,8.253,20.87
			c0,12.46-7.478,23.2-18.177,27.988c19.564-0.352,37.312-1.983,53.111-4.879C219.874,251.243,206.178,237.516,206.178,220.646z"/>
	</g>
	<g>
		<path style="fill:#84BD93;" d="M249.042,192.564c-0.221-0.097-0.44-0.195-0.663-0.286
			C248.602,192.369,248.821,192.468,249.042,192.564z"/>
		<path style="fill:#84BD93;" d="M269.016,197.511c0-1.055,0.068-2.094,0.173-3.122c-0.005,0.047-0.015,0.092-0.02,0.139
			c-3.994,1.167-8.008,2.241-12.024,3.217c-0.002-0.002-0.004-0.003-0.006-0.004c6.334,5.617,10.349,13.793,10.349,22.906
			c0,12.459-7.476,23.198-18.173,27.988c7.178-1.749,13.89-3.795,20.113-6.139c10.538-3.969,19.701-8.809,27.455-14.461
			C281.282,226.621,269.016,213.475,269.016,197.511z"/>
		<path style="fill:#84BD93;" d="M251.769,193.91c-0.083-0.047-0.169-0.088-0.253-0.134
			C251.6,193.822,251.686,193.863,251.769,193.91z"/>
		<path style="fill:#84BD93;" d="M269.354,193.214c0.088-0.621,0.185-1.239,0.31-1.847
			C269.539,191.975,269.442,192.593,269.354,193.214z"/>
		<path style="fill:#84BD93;" d="M269.936,190.178c0.156-0.631,0.333-1.254,0.528-1.869
			C270.269,188.925,270.091,189.546,269.936,190.178z"/>
		<path style="fill:#84BD93;" d="M270.773,187.34c0.327-0.924,0.683-1.835,1.093-2.717
			C271.456,185.505,271.099,186.415,270.773,187.34z"/>
	</g>
	<g>
		<path style="fill:#84BD93;" d="M242.017,205.936c0.633,0.224,1.247,0.484,1.84,0.785
			C243.264,206.421,242.65,206.16,242.017,205.936z"/>
		<path style="fill:#84BD93;" d="M225.798,209.611c-0.472,0.472-0.902,0.985-1.311,1.514
			C224.896,210.595,225.325,210.083,225.798,209.611z"/>
		<path style="fill:#84BD93;" d="M236.832,205.033C236.832,205.033,236.831,205.033,236.832,205.033
			c-4.279,0-8.159,1.732-10.982,4.53C228.673,206.765,232.553,205.033,236.832,205.033z"/>
		<path style="fill:#84BD93;" d="M236.837,205.033c0.774,0,1.53,0.076,2.275,0.185C238.367,205.109,237.611,205.033,236.837,205.033
			z"/>
		<path style="fill:#84BD93;" d="M239.576,205.289c0.717,0.128,1.419,0.299,2.098,0.522
			C240.995,205.588,240.293,205.417,239.576,205.289z"/>
		<path style="fill:#84BD93;" d="M250.796,213.702c0.335,0.672,0.63,1.367,0.867,2.089
			C251.427,215.069,251.132,214.374,250.796,213.702z"/>
		<path style="fill:#84BD93;" d="M249.362,211.369c-0.884-1.191-1.93-2.249-3.111-3.146
			C247.43,209.12,248.479,210.178,249.362,211.369z"/>
		<path style="fill:#84BD93;" d="M249.536,211.601c0.43,0.603,0.821,1.236,1.163,1.899
			C250.356,212.837,249.967,212.205,249.536,211.601z"/>
		<path style="fill:#84BD93;" d="M244.109,206.843c0.638,0.338,1.246,0.725,1.828,1.145
			C245.355,207.568,244.748,207.181,244.109,206.843z"/>
		<path style="fill:#84BD93;" d="M222.001,225.497c-0.225-0.684-0.397-1.391-0.525-2.113
			C221.604,224.106,221.777,224.812,222.001,225.497z"/>
		<path style="fill:#84BD93;" d="M251.678,215.829c-1.518-0.494-3.135-0.769-4.817-0.769c-8.61,0-15.613,7.004-15.613,15.612
			c0,1.682,0.275,3.299,0.769,4.818c-0.752-0.245-1.476-0.551-2.173-0.902c2.106,1.06,4.474,1.672,6.988,1.672
			c8.611,0,15.615-7.005,15.615-15.614C252.446,218.964,252.172,217.348,251.678,215.829z"/>
		<path style="fill:#84BD93;" d="M222.919,227.694c-0.309-0.606-0.576-1.237-0.804-1.886
			C222.343,226.457,222.611,227.087,222.919,227.694z"/>
		<path style="fill:#84BD93;" d="M224.186,229.766c-0.427-0.59-0.819-1.208-1.162-1.855
			C223.366,228.559,223.759,229.175,224.186,229.766z"/>
		<path style="fill:#84BD93;" d="M223.091,213.242c0.006-0.011,0.01-0.022,0.016-0.032
			C223.101,213.22,223.097,213.231,223.091,213.242z"/>
		<path style="fill:#84BD93;" d="M229.71,234.525c-0.679-0.35-1.327-0.75-1.944-1.191
			C228.383,233.776,229.031,234.175,229.71,234.525z"/>
		<path style="fill:#84BD93;" d="M221.853,216.277c0.026-0.089,0.042-0.182,0.07-0.27
			C221.896,216.096,221.879,216.188,221.853,216.277z"/>
		<path style="fill:#84BD93;" d="M224.393,230.043c0.908,1.199,1.982,2.261,3.192,3.155
			C226.375,232.305,225.302,231.241,224.393,230.043z"/>
		<path style="fill:#84BD93;" d="M221.22,220.645L221.22,220.645c0,0.778,0.076,1.536,0.186,2.282
			C221.295,222.181,221.22,221.422,221.22,220.645z"/>
	</g>
	<g>
		<path style="fill:#84BD93;" d="M306.947,183.709c0.638,0.338,1.246,0.725,1.828,1.145
			C308.192,184.434,307.586,184.047,306.947,183.709z"/>
		<path style="fill:#84BD93;" d="M302.413,182.155c0.717,0.128,1.42,0.299,2.1,0.522
			C303.832,182.454,303.131,182.283,302.413,182.155z"/>
		<path style="fill:#84BD93;" d="M304.853,182.802c0.633,0.224,1.248,0.485,1.841,0.785
			C306.102,183.287,305.487,183.026,304.853,182.802z"/>
		<path style="fill:#84BD93;" d="M313.634,190.567c0.335,0.672,0.63,1.368,0.868,2.09
			C314.264,191.935,313.97,191.239,313.634,190.567z"/>
		<path style="fill:#84BD93;" d="M312.373,188.467c0.43,0.603,0.821,1.237,1.163,1.899
			C313.194,189.703,312.804,189.07,312.373,188.467z"/>
		<path style="fill:#84BD93;" d="M312.2,188.235c-0.884-1.191-1.931-2.25-3.112-3.147
			C310.267,185.985,311.316,187.044,312.2,188.235z"/>
		<path style="fill:#84BD93;" d="M299.673,181.899c0.775,0,1.531,0.076,2.276,0.186
			C301.204,181.974,300.448,181.899,299.673,181.899z"/>
		<path style="fill:#84BD93;" d="M287.236,206.915c0.905,1.193,1.974,2.25,3.177,3.141
			C289.209,209.165,288.14,208.106,287.236,206.915z"/>
		<path style="fill:#84BD93;" d="M287.02,206.626c-0.425-0.587-0.815-1.202-1.157-1.846
			C286.205,205.425,286.595,206.038,287.02,206.626z"/>
		<path style="fill:#84BD93;" d="M314.515,192.695c-1.518-0.494-3.135-0.769-4.817-0.769c-8.61,0-15.613,7.004-15.613,15.612
			c0,1.682,0.275,3.299,0.769,4.818c-0.747-0.243-1.465-0.548-2.158-0.896c2.102,1.056,4.465,1.664,6.973,1.664
			c8.611,0,15.615-7.005,15.615-15.614C315.284,195.83,315.009,194.213,314.515,192.695z"/>
		<path style="fill:#84BD93;" d="M292.54,211.385c-0.673-0.347-1.317-0.744-1.929-1.182
			C291.223,210.642,291.866,211.038,292.54,211.385z"/>
		<path style="fill:#84BD93;" d="M284.057,197.511c0,0.777,0.076,1.535,0.186,2.283
			C284.133,199.046,284.057,198.288,284.057,197.511z"/>
		<path style="fill:#84BD93;" d="M299.67,181.598h-0.001c-6.456,0-12.009,3.94-14.383,9.541
			C287.659,185.538,293.213,181.598,299.67,181.598z"/>
		<path style="fill:#84BD93;" d="M284.313,200.25c0.128,0.721,0.3,1.425,0.524,2.108
			C284.613,201.676,284.441,200.971,284.313,200.25z"/>
		<path style="fill:#84BD93;" d="M284.955,202.681c0.227,0.643,0.491,1.268,0.797,1.869
			C285.447,203.949,285.182,203.324,284.955,202.681z"/>
	</g>
	<path style="fill:#3F2D20;" d="M338.651,138.222V93.316c0-12.687-10.321-23.009-23.009-23.009
		c-12.686,0-23.007,10.321-23.007,23.009c0,4.154,3.367,7.521,7.521,7.521c4.154,0,7.521-3.367,7.521-7.521
		c0-4.393,3.573-7.967,7.965-7.967c4.393,0,7.967,3.574,7.967,7.967v43.735c-33.377,45.836-150.515,47.085-152.475,47.099
		c-0.892-0.006-124.252-3.256-153.722-48.882c-1.544-2.391-4.361-3.647-7.179-3.306c-2.825,0.345-5.214,2.256-6.17,4.937
		c-0.643,1.803-13.901,43.532,11.246,82.116c36.754,56.391,155.829,53.539,160.114,53.539c75.875,0,126.856-18.835,151.545-53.539
		C351.399,184.673,341.074,145.935,338.651,138.222z M15.901,182.486c-1.887-10.106-1.543-19.508-0.619-26.707
		c5.071,4.763,10.911,8.999,17.284,12.775C25.467,171.022,19.548,176.03,15.901,182.486z M42.606,181.898
		c8.611,0,15.615,7.004,15.615,15.612c0,8.61-7.005,15.614-15.615,15.614c-8.61,0-15.613-7.005-15.613-15.614
		C26.992,188.902,33.996,181.898,42.606,181.898z M45.394,228.035c15.602-1.414,27.869-14.56,27.869-30.524
		c0-4.603-1.026-8.967-2.852-12.889c8.748,2.664,17.666,4.836,26.403,6.614c-12.714,3.737-22.026,15.504-22.026,29.41
		c0,12.455,7.471,23.192,18.162,27.984c-7.174-1.748-13.882-3.792-20.102-6.135C62.311,238.525,53.148,233.686,45.394,228.035z
		 M121.057,220.646c0,8.61-7.004,15.614-15.613,15.614s-15.613-7.005-15.613-15.614c0-8.61,7.004-15.613,15.613-15.613
		S121.057,212.036,121.057,220.646z M136.098,220.646c0-10.34-5.151-19.493-13.016-25.049c16.244,2.135,30.191,3.001,38.842,3.353
		c-12.414,3.922-21.44,15.546-21.44,29.24c0,12.458,7.474,23.196,18.17,27.986c-19.555-0.357-37.296-1.986-53.091-4.878
		C122.411,251.233,136.098,237.51,136.098,220.646z M155.525,228.19c0-8.611,7.004-15.615,15.613-15.615
		c8.611,0,15.615,7.005,15.615,15.615c0,8.609-7.005,15.612-15.615,15.612C162.528,243.803,155.525,236.799,155.525,228.19z
		 M201.795,228.19c0-13.694-9.027-25.318-21.442-29.24c8.651-0.352,22.596-1.218,38.84-3.352
		c-7.864,5.556-13.014,14.709-13.014,25.048c0,16.87,13.696,30.597,30.551,30.654c-15.799,2.896-33.548,4.526-53.111,4.879
		C194.317,251.39,201.795,240.65,201.795,228.19z M221.22,220.646c0-8.61,7.004-15.613,15.611-15.613
		c8.611,0,15.615,7.004,15.615,15.613c0,8.61-7.005,15.614-15.615,15.614C228.223,236.26,221.22,229.256,221.22,220.646z
		 M267.488,220.646c0-13.907-9.312-25.671-22.026-29.409c8.738-1.778,17.656-3.951,26.404-6.614
		c-1.824,3.921-2.851,8.285-2.851,12.888c0,15.964,12.266,29.111,27.867,30.524c-7.754,5.651-16.917,10.492-27.455,14.461
		c-6.223,2.344-12.935,4.39-20.113,6.139C260.012,243.844,267.488,233.105,267.488,220.646z M284.057,197.511
		c0-8.609,7.004-15.612,15.612-15.612c8.611,0,15.615,7.004,15.615,15.612c0,8.61-7.005,15.614-15.615,15.614
		C291.061,213.125,284.057,206.121,284.057,197.511z M309.71,168.554c6.373-3.775,12.213-8.011,17.284-12.775
		c0.923,7.201,1.267,16.602-0.619,26.706C322.727,176.03,316.81,171.024,309.71,168.554z"/>
</g>
<g>
</g>
<g>
</g>
<g>
</g>
<g>
</g>
<g>
</g>
<g>
</g>
<g>
</g>
<g>
</g>
<g>
</g>
<g>
</g>
<g>
</g>
<g>
</g>
<g>
</g>
<g>
</g>
<g>
</g>
</svg>
