<?xml version="1.0" encoding="iso-8859-1"?>
<!-- Generator: Adobe Illustrator 18.0.0, SVG Export Plug-In . SVG Version: 6.00 Build 0)  -->
<!DOCTYPE svg PUBLIC "-//W3C//DTD SVG 1.1//EN" "http://www.w3.org/Graphics/SVG/1.1/DTD/svg11.dtd">
<svg version="1.1" id="Capa_1" xmlns="http://www.w3.org/2000/svg" xmlns:xlink="http://www.w3.org/1999/xlink" x="0px" y="0px"
	 viewBox="0 0 333.024 333.024" style="enable-background:new 0 0 333.024 333.024;" xml:space="preserve">
<g>
	<path style="fill:#3F2D20;" d="M77.512,238.627h119.44c4.15,0,7.517-3.365,7.517-7.517s-3.367-7.517-7.517-7.517H77.512
		c-4.151,0-7.517,3.365-7.517,7.517S73.36,238.627,77.512,238.627z"/>
	<path style="fill:#3F2D20;" d="M77.512,208.408h119.44c4.15,0,7.517-3.365,7.517-7.517c0-4.152-3.367-7.517-7.517-7.517H77.512
		c-4.151,0-7.517,3.365-7.517,7.517C69.995,205.043,73.36,208.408,77.512,208.408z"/>
	<path style="fill:#3F2D20;" d="M77.512,178.189h119.44c4.15,0,7.517-3.365,7.517-7.517c0-4.152-3.367-7.517-7.517-7.517H77.512
		c-4.151,0-7.517,3.365-7.517,7.517C69.995,174.824,73.36,178.189,77.512,178.189z"/>
	<g>
		<path style="fill:#EF8829;" d="M96.64,53.019C96.64,53.019,96.64,53.02,96.64,53.019c0.408,0.571,0.834,1.197,1.266,1.857
			C97.474,54.219,97.048,53.589,96.64,53.019z"/>
		<path style="fill:#EF8829;" d="M91.958,71.602L91.958,71.602c-1.824,0-3.606,0.691-4.975,1.9c0,0,0,0.001,0,0.001
			C88.352,72.294,90.134,71.602,91.958,71.602z"/>
		<path style="fill:#EF8829;" d="M86.645,84.432c0.316,0.317,0.666,0.592,1.031,0.843C87.312,85.022,86.961,84.748,86.645,84.432z"
			/>
		<path style="fill:#EF8829;" d="M109.322,93.41c-0.74-18-6.474-30.727-11.208-38.038c0.436,0.676,0.88,1.297,1.328,2.059
			c-2.341,3.43-5.012,8.118-7.244,14.228c-0.08-0.002-0.159-0.034-0.239-0.034c1.985,0,3.918,0.791,5.322,2.194
			c1.393,1.403,2.195,3.332,2.195,5.306c0,1.985-0.802,3.917-2.195,5.309c-1.404,1.403-3.338,2.204-5.322,2.204
			c-1.356,0-2.68-0.403-3.839-1.094c0.148,0.087,0.287,0.365,0.44,0.442c-0.372,2.301-0.666,4.423-0.862,7.423H109.322z"/>
		<path style="fill:#EF8829;" d="M86.645,84.432c-0.669-0.664-1.196-1.453-1.569-2.309c0,0,0,0.001,0,0.001
			C85.449,82.979,85.976,83.768,86.645,84.432z"/>
	</g>
	<path style="fill:#FDD44B;" d="M68.902,93.059L68.902,93.059c0.072-2.026,0.223-3.968,0.398-5.883
		C69.122,89.087,68.973,91.032,68.902,93.059z"/>
	<path style="fill:#FDD44B;" d="M60.536,30.887c0.44-1.411,1.015-2.764,1.71-4.042C61.551,28.123,60.976,29.476,60.536,30.887z"/>
	<path style="fill:#FDD44B;" d="M214.734,27.63c-3.04-1.529-8.691-2.22-12.32-2.22H92.095c-12.435,0-23.299,9.764-23.299,22.198
		V84.66c0,0.222,0.332,0.456,0.308,0.679c3.579-32.77,21.551-48.699,22.416-49.453c0.02-0.016,0.136-0.027,0.157-0.044
		c2.786-2.383,7.012-2.433,9.859,0.044c0.584,0.51,8.938,7.955,15.379,22.85c6.441-14.895,14.784-22.34,15.368-22.85
		c0.02-0.016,0.049-0.027,0.07-0.044c2.786-2.383,6.968-2.433,9.814,0.044c0.585,0.51,8.916,7.955,15.358,22.85
		c6.44-14.895,14.773-22.34,15.356-22.85c0.02-0.016,0.043-0.027,0.065-0.044c2.786-2.383,6.965-2.258,9.811,0.22
		c0.93,0.811,21.467,17.349,22.805,57.349h11.234V37.586C216.796,33.94,216.277,30.681,214.734,27.63z"/>
	<path style="fill:#FDD44B;" d="M73.302,16.809c1.348-0.571,2.764-1.015,4.23-1.316C76.066,15.794,74.651,16.238,73.302,16.809z"/>
	<path style="fill:#FDD44B;" d="M71.332,17.76c-3.195,1.738-5.926,4.226-7.954,7.226C65.406,21.986,68.136,19.498,71.332,17.76z"/>
	<rect x="68.796" y="118.41" style="fill:#84BD93;" width="145" height="17"/>
	<g>
		<path style="fill:#84BD93;" d="M62.364,306.372c-0.129-0.231-0.244-0.469-0.364-0.704
			C62.121,305.903,62.236,306.141,62.364,306.372z"/>
		<path style="fill:#84BD93;" d="M63.437,308.117c-0.121-0.177-0.226-0.364-0.342-0.544C63.21,307.754,63.316,307.94,63.437,308.117
			z"/>
		<path style="fill:#84BD93;" d="M65.014,310.146c-0.123-0.142-0.255-0.275-0.373-0.419
			C64.76,309.871,64.892,310.004,65.014,310.146z"/>
		<path style="fill:#84BD93;" d="M61.447,304.522c-0.113-0.255-0.217-0.514-0.32-0.774C61.23,304.008,61.334,304.267,61.447,304.522
			z"/>
		<path style="fill:#84BD93;" d="M59.722,298.295c-0.029-0.23-0.069-0.457-0.091-0.69C59.653,297.838,59.693,298.065,59.722,298.295
			z"/>
		<path style="fill:#84BD93;" d="M66.001,311.232c0.194,0.197,0.399,0.38,0.599,0.57C66.4,311.612,66.194,311.428,66.001,311.232z"
			/>
		<path style="fill:#84BD93;" d="M60.117,300.512c-0.061-0.264-0.126-0.528-0.177-0.796
			C59.991,299.985,60.056,300.247,60.117,300.512z"/>
		<path style="fill:#84BD93;" d="M60.695,302.57c-0.089-0.267-0.175-0.534-0.255-0.805C60.52,302.036,60.606,302.303,60.695,302.57z
			"/>
		<path style="fill:#84BD93;" d="M75.46,316.996c-0.259-0.079-0.507-0.181-0.762-0.27C74.954,316.815,75.201,316.917,75.46,316.996z
			"/>
		<path style="fill:#84BD93;" d="M68.194,313.177c-0.237-0.186-0.475-0.372-0.704-0.567
			C67.719,312.805,67.956,312.99,68.194,313.177z"/>
		<path style="fill:#84BD93;" d="M194.044,297.41H82.253c-4.755,0-9.675-0.134-13.876-1.852c0.269,0.11,0.419,1.075,0.419,1.178
			v2.089c0,7.395,3.447,14.779,8.28,19.283c1.548,0.357,3.531,1.302,5.177,1.302h111.791c12.601,0,22.752-12.506,22.752-26.039
			v-2.492C211.796,296.026,202.612,297.41,194.044,297.41z"/>
		<path style="fill:#84BD93;" d="M64.365,296.238c-0.396-0.212-0.775-0.451-1.163-0.678
			C63.59,295.786,63.968,296.026,64.365,296.238z"/>
		<path style="fill:#84BD93;" d="M66.955,297.499c-0.301-0.133-0.591-0.287-0.888-0.427
			C66.365,297.212,66.654,297.366,66.955,297.499z"/>
		<path style="fill:#84BD93;" d="M61.888,294.788c-0.81-0.518-1.601-1.064-2.367-1.64C60.287,293.725,61.077,294.271,61.888,294.788
			z"/>
		<path style="fill:#84BD93;" d="M69.874,314.378c-0.263-0.17-0.522-0.345-0.778-0.526
			C69.353,314.033,69.611,314.207,69.874,314.378z"/>
		<path style="fill:#84BD93;" d="M73.51,316.291c-0.285-0.118-0.561-0.253-0.84-0.382C72.949,316.038,73.224,316.173,73.51,316.291z
			"/>
		<path style="fill:#84BD93;" d="M71.648,315.416c-0.28-0.147-0.553-0.305-0.826-0.463
			C71.095,315.112,71.368,315.269,71.648,315.416z"/>
	</g>
	<path style="fill:#84BD93;" d="M68.796,273.123c0,3.629,1.297,6.795,2.841,9.835c3.079,1.543,6.687,3.548,10.367,3.548
		l111.587-1.378c12.552,0,23.205-9.593,23.205-22.027V160.41h-148V273.123z M77.681,163.41h120.567c4.189,0,7.588,3.348,7.588,7.5
		s-3.399,7.5-7.588,7.5H77.681c-4.191,0-7.588-3.348-7.588-7.5S73.491,163.41,77.681,163.41z M77.681,194.41h120.567
		c4.189,0,7.588,2.348,7.588,6.5c0,4.152-3.399,6.5-7.588,6.5H77.681c-4.191,0-7.588-2.348-7.588-6.5
		C70.094,196.758,73.491,194.41,77.681,194.41z M77.681,222.41h120.567c4.189,0,7.588,3.848,7.588,8c0,4.152-3.399,8-7.588,8H77.681
		c-4.191,0-7.588-3.848-7.588-8C70.094,226.258,73.491,222.41,77.681,222.41z"/>
	<g>
		<path style="fill:#EF8829;" d="M128.333,71.043c-0.259,0.805-0.52,1.606-0.76,2.453c0,0,0.001-0.001,0.001-0.001
			C127.813,72.648,128.074,71.847,128.333,71.043z"/>
		<path style="fill:#EF8829;" d="M132.549,71.602c-0.001,0-0.002,0-0.003,0c-0.203,0-0.401,0.04-0.602,0.056
			C132.146,71.642,132.345,71.602,132.549,71.602z"/>
		<path style="fill:#EF8829;" d="M137.228,53.019C137.228,53.019,137.227,53.02,137.228,53.019c0.408,0.571,0.833,1.197,1.264,1.855
			C138.061,54.218,137.636,53.589,137.228,53.019z"/>
		<path style="fill:#EF8829;" d="M128.625,70.099c0.047-0.142,0.1-0.268,0.148-0.408C128.725,69.831,128.673,69.958,128.625,70.099z
			"/>
		<path style="fill:#EF8829;" d="M149.91,93.41c-0.74-18-6.474-30.725-11.208-38.037c0.436,0.675,0.879,1.296,1.327,2.057
			c-2.341,3.43-5.012,8.118-7.243,14.228c-0.077-0.002-0.153-0.033-0.23-0.033c1.973,0.001,3.906,0.791,5.307,2.194
			c1.403,1.403,2.205,3.332,2.205,5.306c0,1.985-0.803,3.917-2.205,5.309c-1.403,1.403-3.337,2.204-5.312,2.204
			c-1.346,0-2.655-0.396-3.804-1.07c0.135,0.079,0.262,0.348,0.401,0.419c-0.372,2.301-0.666,4.423-0.862,7.423H149.91z"/>
		<path style="fill:#EF8829;" d="M126.444,83.478c-0.302-0.428-0.571-0.88-0.779-1.36c0,0.002-0.001,0.005-0.001,0.007
			C125.874,82.603,126.142,83.052,126.444,83.478z"/>
		<path style="fill:#EF8829;" d="M127.39,84.565c0.269,0.254,0.551,0.489,0.853,0.698C127.942,85.052,127.658,84.818,127.39,84.565z
			"/>
	</g>
	<g>
		<path style="fill:#EF8829;" d="M167.89,84.489c0.292,0.285,0.608,0.542,0.941,0.773C168.498,85.029,168.18,84.775,167.89,84.489z"
			/>
		<path style="fill:#EF8829;" d="M179.068,54.857c-0.427-0.65-0.849-1.273-1.254-1.838C178.22,53.584,178.641,54.206,179.068,54.857
			z"/>
		<path style="fill:#EF8829;" d="M190.498,93.41c-0.739-18-6.466-30.708-11.199-38.022c0.433,0.671,0.872,1.286,1.317,2.042
			c-2.34,3.43-5.18,8.118-7.411,14.228c-0.08-0.002-0.408-0.047-0.408-0.047v-0.004c3,0,4.087,0.8,5.491,2.203
			c1.392,1.403,2.278,3.337,2.278,5.311c0,1.985-0.761,3.919-2.152,5.312c-1.404,1.403-3.317,2.205-5.302,2.205
			c-1.337,0-2.636-0.394-3.784-1.067c0.134,0.078,0.264,0.346,0.402,0.416c-0.372,2.301-0.661,4.423-0.857,7.423H190.498z"/>
	</g>
	<path style="fill:#3F2D20;" d="M264.518,84.985c-11.671,0-19.198,8.09-20.095,21.306l-5.871,7.479h-8.576V37.586
		C229.977,16.861,213.116,0,192.391,0H82.072C61.347,0,44.486,16.861,44.486,37.586v257.853c0,20.725,16.861,37.586,37.586,37.586
		h110.319c20.725,0,37.586-16.861,37.586-37.586V128.804h8.576l5.871,7.479c0.897,13.218,8.424,21.307,20.095,21.307
		c13.245,0,24.019-10.775,24.019-24.019v-24.567C288.538,95.76,277.763,84.985,264.518,84.985z M214.942,37.586v55.473h-9.381
		c-1.337-38.016-21.874-56.362-22.804-57.173c-2.846-2.477-7.026-2.426-9.811-0.044c-0.022,0.017-0.045,0.027-0.065,0.044
		c-0.583,0.51-8.915,7.955-15.355,22.85c-6.442-14.895-14.772-22.34-15.357-22.85c-2.847-2.477-7.026-2.426-9.811-0.044
		c-0.021,0.017-0.044,0.027-0.064,0.044c-0.584,0.51-8.916,7.955-15.356,22.85c-6.441-14.895-14.772-22.34-15.356-22.85
		c-2.847-2.477-7.026-2.426-9.812-0.044c-0.02,0.017-0.044,0.027-0.064,0.044c-0.93,0.811-21.469,19.156-22.805,57.173h-9.381
		V37.586c0-12.435,10.116-22.551,22.551-22.551h110.319C204.826,15.034,214.942,25.151,214.942,37.586z M109.322,93.059H83.95
		c0.162-3.907,0.561-7.546,1.126-10.936c0.374,0.856,0.901,1.645,1.569,2.309c1.403,1.403,3.338,2.205,5.312,2.205
		c1.984,0,3.919-0.802,5.322-2.205c1.393-1.393,2.195-3.327,2.195-5.312c0-1.974-0.802-3.909-2.195-5.312
		c-1.404-1.403-3.338-2.205-5.322-2.205c-1.824,0-3.606,0.691-4.975,1.901c2.667-9.393,6.555-16.163,9.657-20.484
		C101.567,59.898,108.503,73.043,109.322,93.059z M149.909,93.059h-25.372c0.163-3.908,0.562-7.55,1.128-10.941
		c0.372,0.858,0.897,1.649,1.562,2.314c1.403,1.403,3.338,2.205,5.323,2.205c1.974,0,3.909-0.802,5.312-2.205
		c1.403-1.393,2.205-3.327,2.205-5.312c0-1.974-0.802-3.909-2.205-5.312c-1.403-1.403-3.338-2.205-5.312-2.205
		c-1.828,0-3.61,0.687-4.978,1.893c2.667-9.389,6.554-16.156,9.656-20.476C142.154,59.898,149.091,73.043,149.909,93.059z
		 M178.455,73.808c-1.404-1.403-3.338-2.205-5.323-2.205c-1.823,0-3.612,0.689-4.972,1.897c2.666-9.39,6.554-16.16,9.655-20.48
		c4.927,6.879,11.865,20.024,12.683,40.04h-25.372c0.162-3.906,0.56-7.545,1.126-10.934c0.374,0.855,0.901,1.644,1.568,2.307
		c1.394,1.403,3.338,2.205,5.313,2.205c1.985,0,3.919-0.802,5.323-2.205c1.392-1.393,2.195-3.327,2.195-5.312
		C180.65,77.145,179.847,75.211,178.455,73.808z M59.521,149.515h155.422V263.1c0,12.434-10.117,22.551-22.551,22.551H82.072
		c-12.435,0-22.551-10.117-22.551-22.551V149.515z M59.521,134.481v-26.388h155.422v26.388H59.521z M59.521,293.148
		c6.286,4.73,14.096,7.538,22.551,7.538h110.319c8.455,0,16.266-2.808,22.551-7.538v2.29c0,12.435-10.117,22.551-22.551,22.551
		H82.072c-12.435,0-22.551-10.117-22.551-22.551V293.148z M273.504,133.571c0,4.954-4.031,8.985-8.985,8.985
		c-1.541,0-5.151,0-5.151-8.985c0-1.684-0.564-3.317-1.603-4.642l-6-7.642l6-7.642c1.04-1.323,1.603-2.958,1.603-4.641
		c0-8.985,3.61-8.985,5.151-8.985c4.955,0,8.985,4.031,8.985,8.985V133.571z"/>
</g>
<g>
</g>
<g>
</g>
<g>
</g>
<g>
</g>
<g>
</g>
<g>
</g>
<g>
</g>
<g>
</g>
<g>
</g>
<g>
</g>
<g>
</g>
<g>
</g>
<g>
</g>
<g>
</g>
<g>
</g>
</svg>
